<svg width="32" height="32" viewBox="0 0 32 32" fill="none" xmlns="http://www.w3.org/2000/svg">
<rect width="32" height="32" rx="8" fill="#27272E"/>
<path d="M24.1909 20.6045H21.8262V24.8211H25.9992V20.6045H24.1909Z" fill="white"/>
<path d="M14.5788 14.3332C13.7136 14.0746 13.0098 13.9453 12.2419 13.7176C11.2154 13.4364 10.7368 12.9417 10.7368 12.1012C10.7368 11.2607 11.4073 10.645 12.4339 10.645C13.747 10.645 14.3563 11.4209 14.3813 12.7477H18.3262C18.2956 9.12142 16.1479 7.27734 12.5285 7.27734C9.09266 7.27734 6.66672 9.41377 6.66672 12.3261C6.66672 14.9488 7.85187 16.568 10.2222 17.4423C11.074 17.7447 11.9403 18.0036 12.8178 18.2181C14.003 18.5414 14.5149 18.994 14.5149 19.9975C14.5149 21.0011 13.619 21.5493 12.4979 21.5493C10.8286 21.5493 10.4141 20.4473 10.4141 19.2189H6.31061C6.21881 22.2324 7.70164 25.0463 12.4311 25.0463C15.7946 25.0463 18.6768 23.2022 18.6768 19.6743C18.6796 16.5343 17.3331 15.1765 14.5788 14.3332Z" fill="white"/>
</svg>
