<svg width="45" height="45" viewBox="0 0 45 45" fill="none" xmlns="http://www.w3.org/2000/svg">
<g id="activation">
<circle id="Ellipse 2182" cx="1.5" cy="1.5" r="1.5" fill="#FFE8DF"/>
<circle id="Ellipse 2183" cx="1.5" cy="19.5" r="1.5" fill="#FF7446"/>
<circle id="Ellipse 2184" cx="1.5" cy="7.5" r="1.5" fill="#FF7446"/>
<circle id="Ellipse 2185" cx="1.5" cy="25.5" r="1.5" fill="#FF7446"/>
<circle id="Ellipse 2186" cx="1.5" cy="37.5" r="1.5" fill="#FF7446"/>
<circle id="Ellipse 2187" cx="1.5" cy="13.5" r="1.5" fill="#FF7446"/>
<circle id="Ellipse 2188" cx="1.5" cy="31.5" r="1.5" fill="#FF7446"/>
<circle id="Ellipse 2189" cx="1.5" cy="43.5" r="1.5" fill="#FFE8DF"/>
<circle id="Ellipse 2190" cx="7.5" cy="1.5" r="1.5" fill="#FFE8DF"/>
<circle id="Ellipse 2191" cx="7.5" cy="19.5" r="1.5" fill="#FF7446"/>
<circle id="Ellipse 2192" cx="7.5" cy="7.5" r="1.5" fill="#FF7446"/>
<circle id="Ellipse 2193" cx="7.5" cy="25.5" r="1.5" fill="#FF7446"/>
<circle id="Ellipse 2194" cx="7.5" cy="37.5" r="1.5" fill="#FF7446"/>
<circle id="Ellipse 2195" cx="7.5" cy="13.5" r="1.5" fill="#FFE8DF"/>
<circle id="Ellipse 2196" cx="7.5" cy="31.5" r="1.5" fill="#FFE8DF"/>
<circle id="Ellipse 2197" cx="7.5" cy="43.5" r="1.5" fill="#FFE8DF"/>
<circle id="Ellipse 2198" cx="13.5" cy="1.5" r="1.5" fill="#FFE8DF"/>
<circle id="Ellipse 2199" cx="13.5" cy="19.5" r="1.5" fill="#FF7446"/>
<circle id="Ellipse 2200" cx="13.5" cy="7.5" r="1.5" fill="#FF7446"/>
<circle id="Ellipse 2201" cx="13.5" cy="25.5" r="1.5" fill="#FF7446"/>
<circle id="Ellipse 2202" cx="13.5" cy="37.5" r="1.5" fill="#FF7446"/>
<circle id="Ellipse 2203" cx="13.5" cy="13.5" r="1.5" fill="#FFE8DF"/>
<circle id="Ellipse 2204" cx="13.5" cy="31.5" r="1.5" fill="#FFE8DF"/>
<circle id="Ellipse 2205" cx="13.5" cy="43.5" r="1.5" fill="#FFE8DF"/>
<circle id="Ellipse 2206" cx="19.5" cy="1.5" r="1.5" fill="#FFE8DF"/>
<circle id="Ellipse 2207" cx="19.5" cy="19.5" r="1.5" fill="#FF7446"/>
<circle id="Ellipse 2208" cx="19.5" cy="7.5" r="1.5" fill="#FF7446"/>
<circle id="Ellipse 2209" cx="19.5" cy="25.5" r="1.5" fill="#FF7446"/>
<circle id="Ellipse 2210" cx="19.5" cy="37.5" r="1.5" fill="#FF7446"/>
<circle id="Ellipse 2211" cx="19.5" cy="13.5" r="1.5" fill="#FFE8DF"/>
<circle id="Ellipse 2212" cx="19.5" cy="31.5" r="1.5" fill="#FFE8DF"/>
<circle id="Ellipse 2213" cx="19.5" cy="43.5" r="1.5" fill="#FFE8DF"/>
<circle id="Ellipse 2214" cx="25.5" cy="1.5" r="1.5" fill="#FFE8DF"/>
<circle id="Ellipse 2215" cx="25.5" cy="19.5" r="1.5" fill="#FF7446"/>
<circle id="Ellipse 2216" cx="25.5" cy="7.5" r="1.5" fill="#FF7446"/>
<circle id="Ellipse 2217" cx="25.5" cy="25.5" r="1.5" fill="#FF7446"/>
<circle id="Ellipse 2218" cx="25.5" cy="37.5" r="1.5" fill="#FF7446"/>
<circle id="Ellipse 2219" cx="25.5" cy="13.5" r="1.5" fill="#FFE8DF"/>
<circle id="Ellipse 2220" cx="25.5" cy="31.5" r="1.5" fill="#FFE8DF"/>
<circle id="Ellipse 2221" cx="25.5" cy="43.5" r="1.5" fill="#FFE8DF"/>
<circle id="Ellipse 2222" cx="31.5" cy="1.5" r="1.5" fill="#FFE8DF"/>
<circle id="Ellipse 2223" cx="31.5" cy="19.5" r="1.5" fill="#FF7446"/>
<circle id="Ellipse 2224" cx="31.5" cy="7.5" r="1.5" fill="#FF7446"/>
<circle id="Ellipse 2225" cx="31.5" cy="25.5" r="1.5" fill="#FF7446"/>
<circle id="Ellipse 2226" cx="31.5" cy="37.5" r="1.5" fill="#FF7446"/>
<circle id="Ellipse 2227" cx="31.5" cy="13.5" r="1.5" fill="#FF7446"/>
<circle id="Ellipse 2228" cx="31.5" cy="31.5" r="1.5" fill="#FFE8DF"/>
<circle id="Ellipse 2229" cx="31.5" cy="43.5" r="1.5" fill="#FFE8DF"/>
<circle id="Ellipse 2230" cx="37.5" cy="1.5" r="1.5" fill="#FFE8DF"/>
<circle id="Ellipse 2231" cx="37.5" cy="19.5" r="1.5" fill="#FF7446"/>
<circle id="Ellipse 2232" cx="37.5" cy="7.5" r="1.5" fill="#FF7446"/>
<circle id="Ellipse 2233" cx="37.5" cy="25.5" r="1.5" fill="#FF7446"/>
<circle id="Ellipse 2234" cx="37.5" cy="37.5" r="1.5" fill="#FF7446"/>
<circle id="Ellipse 2235" cx="37.5" cy="13.5" r="1.5" fill="#FF7446"/>
<circle id="Ellipse 2236" cx="37.5" cy="31.5" r="1.5" fill="#FFE8DF"/>
<circle id="Ellipse 2237" cx="37.5" cy="43.5" r="1.5" fill="#FFE8DF"/>
<circle id="Ellipse 2238" cx="43.5" cy="1.5" r="1.5" fill="#FFE8DF"/>
<circle id="Ellipse 2239" cx="43.5" cy="19.5" r="1.5" fill="#FF7446"/>
<circle id="Ellipse 2240" cx="43.5" cy="7.5" r="1.5" fill="#FF7446"/>
<circle id="Ellipse 2241" cx="43.5" cy="25.5" r="1.5" fill="#FF7446"/>
<circle id="Ellipse 2242" cx="43.5" cy="37.5" r="1.5" fill="#FF7446"/>
<circle id="Ellipse 2243" cx="43.5" cy="13.5" r="1.5" fill="#FF7446"/>
<circle id="Ellipse 2244" cx="43.5" cy="31.5" r="1.5" fill="#FF7446"/>
<circle id="Ellipse 2245" cx="43.5" cy="43.5" r="1.5" fill="#FFE8DF"/>
</g>
</svg>
