<svg width="48" height="47" viewBox="0 0 48 47" fill="none" xmlns="http://www.w3.org/2000/svg">
<circle cx="2.4994" cy="7.69227" r="1.53846" fill="#FFE8DF"/>
<circle cx="2.4994" cy="26.1542" r="1.53846" fill="#FFE8DF"/>
<circle cx="2.4994" cy="32.308" r="1.53846" fill="#FFE8DF"/>
<circle cx="2.4994" cy="1.53846" r="1.53846" fill="#FFE8DF"/>
<circle cx="2.4994" cy="38.4618" r="1.53846" fill="#FFE8DF"/>
<circle cx="2.4994" cy="44.5385" r="1.53846" fill="#FFE8DF"/>
<circle cx="2.4994" cy="13.8461" r="1.53846" fill="#FFE8DF"/>
<circle cx="2.4994" cy="19.9999" r="1.53846" fill="#FFE8DF"/>
<circle cx="45.4994" cy="26.1539" r="1.53846" transform="rotate(-90 45.4994 26.1539)" fill="#FFE8DF"/>
<ellipse cx="27.1146" cy="1.53869" rx="1.53846" ry="1.53846" transform="rotate(-90 27.1146 1.53869)" fill="#FFE8DF"/>
<ellipse cx="20.9603" cy="1.53869" rx="1.53846" ry="1.53846" transform="rotate(-90 20.9603 1.53869)" fill="#FFE8DF"/>
<ellipse cx="27.1146" cy="44.5387" rx="1.53846" ry="1.53846" transform="rotate(-90 27.1146 44.5387)" fill="#FF7446"/>
<ellipse cx="33.2689" cy="1.53869" rx="1.53846" ry="1.53846" transform="rotate(-90 33.2689 1.53869)" fill="#FFE8DF"/>
<ellipse cx="45.4994" cy="32.3077" rx="1.53846" ry="1.53846" transform="rotate(-90 45.4994 32.3077)" fill="#FFE8DF"/>
<ellipse cx="39.4213" cy="1.53869" rx="1.53846" ry="1.53846" transform="rotate(-90 39.4213 1.53869)" fill="#FFE8DF"/>
<ellipse cx="45.4994" cy="1.53869" rx="1.53846" ry="1.53846" transform="rotate(-90 45.4994 1.53869)" fill="#FFE8DF"/>
<ellipse cx="33.2689" cy="44.5387" rx="1.53846" ry="1.53846" transform="rotate(-90 33.2689 44.5387)" fill="#FF7446"/>
<ellipse cx="45.4994" cy="38.4615" rx="1.53846" ry="1.53846" transform="rotate(-90 45.4994 38.4615)" fill="#FFE8DF"/>
<ellipse cx="39.4213" cy="44.5387" rx="1.53846" ry="1.53846" transform="rotate(-90 39.4213 44.5387)" fill="#FFE8DF"/>
<ellipse cx="45.4994" cy="44.5387" rx="1.53846" ry="1.53846" transform="rotate(-90 45.4994 44.5387)" fill="#FFE8DF"/>
<circle cx="8.6537" cy="7.69227" r="1.53846" fill="#FFE8DF"/>
<circle cx="8.6537" cy="1.53846" r="1.53846" fill="#FFE8DF"/>
<circle cx="8.6537" cy="44.5385" r="1.53846" fill="#FFE8DF"/>
<ellipse cx="45.4994" cy="20.0001" rx="1.53846" ry="1.53846" transform="rotate(-90 45.4994 20.0001)" fill="#FFE8DF"/>
<circle cx="14.808" cy="1.53846" r="1.53846" fill="#FFE8DF"/>
<circle cx="14.808" cy="44.5385" r="1.53846" fill="#FF7446"/>
<circle cx="14.808" cy="19.9999" r="1.53846" fill="#FF7446"/>
<ellipse cx="45.4994" cy="13.8463" rx="1.53846" ry="1.53846" transform="rotate(-90 45.4994 13.8463)" fill="#FFE8DF"/>
<ellipse cx="27.1146" cy="7.6925" rx="1.53846" ry="1.53846" transform="rotate(-90 27.1146 7.6925)" fill="#FF7446"/>
<ellipse cx="39.4213" cy="7.6925" rx="1.53846" ry="1.53846" transform="rotate(-90 39.4213 7.6925)" fill="#FFE8DF"/>
<ellipse cx="45.4994" cy="7.69201" rx="1.53846" ry="1.53846" transform="rotate(-90 45.4994 7.69201)" fill="#FFE8DF"/>
<circle cx="20.9603" cy="7.69227" r="1.53846" fill="#FF7446"/>
<circle cx="14.808" cy="26.1537" r="1.53846" fill="#FF7446"/>
<circle cx="20.9603" cy="19.9999" r="1.53846" fill="#FFE8DF"/>
<circle cx="20.9603" cy="26.1537" r="1.53846" fill="#FFE8DF"/>
<circle cx="20.9603" cy="44.5385" r="1.53846" fill="#FF7446"/>
<circle cx="27.1146" cy="26.1539" r="1.53846" transform="rotate(-90 27.1146 26.1539)" fill="#FFE8DF"/>
<circle cx="33.2689" cy="26.1539" r="1.53846" transform="rotate(-90 33.2689 26.1539)" fill="#FF7446"/>
<circle cx="39.4213" cy="26.1539" r="1.53846" transform="rotate(-90 39.4213 26.1539)" fill="#FFE8DF"/>
<ellipse cx="27.1146" cy="32.3077" rx="1.53846" ry="1.53846" transform="rotate(-90 27.1146 32.3077)" fill="#FFE8DF"/>
<ellipse cx="20.9603" cy="32.3077" rx="1.53846" ry="1.53846" transform="rotate(-90 20.9603 32.3077)" fill="#FFE8DF"/>
<ellipse cx="27.1146" cy="38.4615" rx="1.53846" ry="1.53846" transform="rotate(-90 27.1146 38.4615)" fill="#FF7446"/>
<ellipse cx="33.2689" cy="32.3077" rx="1.53846" ry="1.53846" transform="rotate(-90 33.2689 32.3077)" fill="#FF7446"/>
<ellipse cx="39.4213" cy="32.3077" rx="1.53846" ry="1.53846" transform="rotate(-90 39.4213 32.3077)" fill="#FFE8DF"/>
<ellipse cx="33.2689" cy="38.4615" rx="1.53846" ry="1.53846" transform="rotate(-90 33.2689 38.4615)" fill="#FF7446"/>
<ellipse cx="39.4213" cy="38.4615" rx="1.53846" ry="1.53846" transform="rotate(-90 39.4213 38.4615)" fill="#FFE8DF"/>
<circle cx="8.6537" cy="26.1537" r="1.53846" fill="#FFE8DF"/>
<circle cx="8.6537" cy="32.308" r="1.53846" fill="#FFE8DF"/>
<circle cx="8.6537" cy="38.4613" r="1.53846" fill="#FFE8DF"/>
<circle cx="8.6537" cy="13.8461" r="1.53846" fill="#FFE8DF"/>
<circle cx="8.6537" cy="19.9999" r="1.53846" fill="#FFE8DF"/>
<ellipse cx="27.1146" cy="20.0001" rx="1.53846" ry="1.53846" transform="rotate(-90 27.1146 20.0001)" fill="#FFE8DF"/>
<ellipse cx="33.2689" cy="20.0001" rx="1.53846" ry="1.53846" transform="rotate(-90 33.2689 20.0001)" fill="#FF7446"/>
<ellipse cx="39.4213" cy="20.0001" rx="1.53846" ry="1.53846" transform="rotate(-90 39.4213 20.0001)" fill="#FFE8DF"/>
<circle cx="14.808" cy="7.69227" r="1.53846" fill="#FF7446"/>
<circle cx="14.808" cy="32.308" r="1.53846" fill="#FF7446"/>
<circle cx="14.808" cy="38.4613" r="1.53846" fill="#FF7446"/>
<circle cx="14.808" cy="13.8461" r="1.53846" fill="#FF7446"/>
<ellipse cx="27.1146" cy="13.8463" rx="1.53846" ry="1.53846" transform="rotate(-90 27.1146 13.8463)" fill="#FFE8DF"/>
<ellipse cx="33.2689" cy="13.8463" rx="1.53846" ry="1.53846" transform="rotate(-90 33.2689 13.8463)" fill="#FF7446"/>
<ellipse cx="39.4213" cy="13.8463" rx="1.53846" ry="1.53846" transform="rotate(-90 39.4213 13.8463)" fill="#FFE8DF"/>
<ellipse cx="33.2689" cy="7.69201" rx="1.53846" ry="1.53846" transform="rotate(-90 33.2689 7.69201)" fill="#FF7446"/>
<circle cx="20.9603" cy="38.4613" r="1.53846" fill="#FF7446"/>
<circle cx="20.9603" cy="13.8461" r="1.53846" fill="#FFE8DF"/>
<circle cx="2.4994" cy="7.69227" r="1.53846" fill="#FFE8DF"/>
<circle cx="2.4994" cy="26.1542" r="1.53846" fill="#FFE8DF"/>
<circle cx="2.4994" cy="32.308" r="1.53846" fill="#FFE8DF"/>
<circle cx="2.4994" cy="1.53846" r="1.53846" fill="#FFE8DF"/>
<circle cx="2.4994" cy="38.4618" r="1.53846" fill="#FFE8DF"/>
<circle cx="2.4994" cy="44.5385" r="1.53846" fill="#FFE8DF"/>
<circle cx="2.4994" cy="13.8461" r="1.53846" fill="#FFE8DF"/>
<circle cx="2.4994" cy="19.9999" r="1.53846" fill="#FFE8DF"/>
<circle cx="45.4994" cy="26.1539" r="1.53846" transform="rotate(-90 45.4994 26.1539)" fill="#FFE8DF"/>
<ellipse cx="27.1146" cy="1.53869" rx="1.53846" ry="1.53846" transform="rotate(-90 27.1146 1.53869)" fill="#FFE8DF"/>
<ellipse cx="20.9603" cy="1.53869" rx="1.53846" ry="1.53846" transform="rotate(-90 20.9603 1.53869)" fill="#FFE8DF"/>
<ellipse cx="27.1146" cy="44.5387" rx="1.53846" ry="1.53846" transform="rotate(-90 27.1146 44.5387)" fill="#FF7446"/>
<ellipse cx="33.2689" cy="1.53869" rx="1.53846" ry="1.53846" transform="rotate(-90 33.2689 1.53869)" fill="#FFE8DF"/>
<ellipse cx="45.4994" cy="32.3077" rx="1.53846" ry="1.53846" transform="rotate(-90 45.4994 32.3077)" fill="#FFE8DF"/>
<ellipse cx="39.4213" cy="1.53869" rx="1.53846" ry="1.53846" transform="rotate(-90 39.4213 1.53869)" fill="#FFE8DF"/>
<ellipse cx="45.4994" cy="1.53869" rx="1.53846" ry="1.53846" transform="rotate(-90 45.4994 1.53869)" fill="#FFE8DF"/>
<ellipse cx="33.2689" cy="44.5387" rx="1.53846" ry="1.53846" transform="rotate(-90 33.2689 44.5387)" fill="#FF7446"/>
<ellipse cx="45.4994" cy="38.4615" rx="1.53846" ry="1.53846" transform="rotate(-90 45.4994 38.4615)" fill="#FFE8DF"/>
<ellipse cx="39.4213" cy="44.5387" rx="1.53846" ry="1.53846" transform="rotate(-90 39.4213 44.5387)" fill="#FFE8DF"/>
<ellipse cx="45.4994" cy="44.5387" rx="1.53846" ry="1.53846" transform="rotate(-90 45.4994 44.5387)" fill="#FFE8DF"/>
<circle cx="8.6537" cy="7.69227" r="1.53846" fill="#FFE8DF"/>
<circle cx="8.6537" cy="1.53846" r="1.53846" fill="#FFE8DF"/>
<circle cx="8.6537" cy="44.5385" r="1.53846" fill="#FFE8DF"/>
<ellipse cx="45.4994" cy="20.0001" rx="1.53846" ry="1.53846" transform="rotate(-90 45.4994 20.0001)" fill="#FFE8DF"/>
<circle cx="14.808" cy="1.53846" r="1.53846" fill="#FFE8DF"/>
<circle cx="14.808" cy="44.5385" r="1.53846" fill="#FF7446"/>
<circle cx="14.808" cy="19.9999" r="1.53846" fill="#FF7446"/>
<ellipse cx="45.4994" cy="13.8463" rx="1.53846" ry="1.53846" transform="rotate(-90 45.4994 13.8463)" fill="#FFE8DF"/>
<ellipse cx="27.1146" cy="7.6925" rx="1.53846" ry="1.53846" transform="rotate(-90 27.1146 7.6925)" fill="#FF7446"/>
<ellipse cx="39.4213" cy="7.6925" rx="1.53846" ry="1.53846" transform="rotate(-90 39.4213 7.6925)" fill="#FFE8DF"/>
<ellipse cx="45.4994" cy="7.69201" rx="1.53846" ry="1.53846" transform="rotate(-90 45.4994 7.69201)" fill="#FFE8DF"/>
<circle cx="20.9603" cy="7.69227" r="1.53846" fill="#FF7446"/>
<circle cx="14.808" cy="26.1537" r="1.53846" fill="#FF7446"/>
<circle cx="20.9603" cy="19.9999" r="1.53846" fill="#FFE8DF"/>
<circle cx="20.9603" cy="26.1537" r="1.53846" fill="#FFE8DF"/>
<circle cx="20.9603" cy="44.5385" r="1.53846" fill="#FF7446"/>
<circle cx="27.1146" cy="26.1539" r="1.53846" transform="rotate(-90 27.1146 26.1539)" fill="#FFE8DF"/>
<circle cx="33.2689" cy="26.1539" r="1.53846" transform="rotate(-90 33.2689 26.1539)" fill="#FF7446"/>
<circle cx="39.4213" cy="26.1539" r="1.53846" transform="rotate(-90 39.4213 26.1539)" fill="#FFE8DF"/>
<ellipse cx="27.1146" cy="32.3077" rx="1.53846" ry="1.53846" transform="rotate(-90 27.1146 32.3077)" fill="#FFE8DF"/>
<ellipse cx="20.9603" cy="32.3077" rx="1.53846" ry="1.53846" transform="rotate(-90 20.9603 32.3077)" fill="#FFE8DF"/>
<ellipse cx="27.1146" cy="38.4615" rx="1.53846" ry="1.53846" transform="rotate(-90 27.1146 38.4615)" fill="#FF7446"/>
<ellipse cx="33.2689" cy="32.3077" rx="1.53846" ry="1.53846" transform="rotate(-90 33.2689 32.3077)" fill="#FF7446"/>
<ellipse cx="39.4213" cy="32.3077" rx="1.53846" ry="1.53846" transform="rotate(-90 39.4213 32.3077)" fill="#FFE8DF"/>
<ellipse cx="33.2689" cy="38.4615" rx="1.53846" ry="1.53846" transform="rotate(-90 33.2689 38.4615)" fill="#FF7446"/>
<ellipse cx="39.4213" cy="38.4615" rx="1.53846" ry="1.53846" transform="rotate(-90 39.4213 38.4615)" fill="#FFE8DF"/>
<circle cx="8.6537" cy="26.1537" r="1.53846" fill="#FFE8DF"/>
<circle cx="8.6537" cy="32.308" r="1.53846" fill="#FFE8DF"/>
<circle cx="8.6537" cy="38.4613" r="1.53846" fill="#FFE8DF"/>
<circle cx="8.6537" cy="13.8461" r="1.53846" fill="#FFE8DF"/>
<circle cx="8.6537" cy="19.9999" r="1.53846" fill="#FFE8DF"/>
<ellipse cx="27.1146" cy="20.0001" rx="1.53846" ry="1.53846" transform="rotate(-90 27.1146 20.0001)" fill="#FFE8DF"/>
<ellipse cx="33.2689" cy="20.0001" rx="1.53846" ry="1.53846" transform="rotate(-90 33.2689 20.0001)" fill="#FF7446"/>
<ellipse cx="39.4213" cy="20.0001" rx="1.53846" ry="1.53846" transform="rotate(-90 39.4213 20.0001)" fill="#FFE8DF"/>
<circle cx="14.808" cy="7.69227" r="1.53846" fill="#FF7446"/>
<circle cx="14.808" cy="32.308" r="1.53846" fill="#FF7446"/>
<circle cx="14.808" cy="38.4613" r="1.53846" fill="#FF7446"/>
<circle cx="14.808" cy="13.8461" r="1.53846" fill="#FF7446"/>
<ellipse cx="27.1146" cy="13.8463" rx="1.53846" ry="1.53846" transform="rotate(-90 27.1146 13.8463)" fill="#FFE8DF"/>
<ellipse cx="33.2689" cy="13.8463" rx="1.53846" ry="1.53846" transform="rotate(-90 33.2689 13.8463)" fill="#FF7446"/>
<ellipse cx="39.4213" cy="13.8463" rx="1.53846" ry="1.53846" transform="rotate(-90 39.4213 13.8463)" fill="#FFE8DF"/>
<ellipse cx="33.2689" cy="7.69201" rx="1.53846" ry="1.53846" transform="rotate(-90 33.2689 7.69201)" fill="#FF7446"/>
<circle cx="20.9603" cy="38.4613" r="1.53846" fill="#FF7446"/>
<circle cx="20.9603" cy="13.8461" r="1.53846" fill="#FFE8DF"/>
</svg>
