<svg width="156" height="48" viewBox="0 0 156 48" fill="none" xmlns="http://www.w3.org/2000/svg">
<g id="Group 1000001448">
<rect id="Rectangle 2311" x="0.5" width="155" height="48" fill="#1E1E26"/>
<g id="Group">
<g id="Group_2">
<g id="Group_3">
<path id="Vector" d="M129.909 4H18.0973C17.6897 4 17.287 4 16.8805 4.002C16.5403 4.004 16.2027 4.00981 15.8592 4.0147C15.1129 4.0226 14.3683 4.08168 13.632 4.19141C12.8966 4.30353 12.1844 4.51492 11.5192 4.81841C10.8549 5.12447 10.2479 5.52217 9.72019 5.99707C9.18973 6.47064 8.74756 7.01802 8.41066 7.61816C8.07284 8.21711 7.83859 8.85894 7.71601 9.52148C7.59226 10.1832 7.52567 10.8525 7.51684 11.5235C7.50652 11.8301 7.50543 12.1377 7.5 12.4443V35.5586C7.50543 35.8691 7.50652 36.1699 7.51684 36.4805C7.52568 37.1514 7.59226 37.8207 7.71601 38.4824C7.83825 39.1453 8.07251 39.7875 8.41066 40.3867C8.7474 40.9849 9.18964 41.5301 9.72019 42.001C10.2459 42.478 10.8533 42.876 11.5192 43.1797C12.1844 43.484 12.8966 43.6966 13.632 43.8105C14.3684 43.9194 15.1129 43.9785 15.8592 43.9873C16.2027 43.9941 16.5403 43.998 16.8805 43.998C17.287 44 17.6897 44 18.0973 44H129.909C130.308 44 130.714 44 131.114 43.998C131.452 43.998 131.799 43.9941 132.138 43.9873C132.883 43.9789 133.626 43.9198 134.361 43.8105C135.099 43.6958 135.814 43.4833 136.482 43.1797C137.147 42.8758 137.754 42.4778 138.279 42.001C138.809 41.5282 139.252 40.9835 139.593 40.3867C139.928 39.7871 140.16 39.1449 140.281 38.4824C140.405 37.8206 140.474 37.1515 140.487 36.4805C140.491 36.1699 140.491 35.8691 140.491 35.5586C140.5 35.1953 140.5 34.834 140.5 34.4648V13.5361C140.5 13.1699 140.5 12.8066 140.491 12.4443C140.491 12.1377 140.491 11.8301 140.487 11.5234C140.474 10.8524 140.405 10.1832 140.281 9.52144C140.16 8.85928 139.928 8.2175 139.593 7.61812C138.907 6.4152 137.819 5.43603 136.482 4.81832C135.814 4.51557 135.099 4.30424 134.361 4.19132C133.626 4.0811 132.883 4.02201 132.138 4.01456C131.799 4.00968 131.452 4.00382 131.114 4.00187C130.714 3.99987 130.308 4 129.909 4Z" fill="#1E1E26"/>
</g>
<g id="&#60;Group&#62;">
<g id="&#60;Group&#62;_2">
<g id="&#60;Group&#62;_3">
<path id="&#60;Path&#62;" d="M35.0293 24.3011C35.0412 23.4665 35.2876 22.6481 35.7456 21.9221C36.2035 21.1962 36.8581 20.5862 37.6485 20.1491C37.1464 19.5039 36.484 18.973 35.714 18.5984C34.9439 18.2238 34.0874 18.016 33.2125 17.9914C31.3461 17.8151 29.5368 18.9962 28.5857 18.9962C27.6162 18.9962 26.1519 18.0089 24.575 18.0381C23.5551 18.0677 22.5611 18.3346 21.6898 18.8126C20.8186 19.2907 20.0999 19.9636 19.6036 20.7659C17.4541 24.1144 19.0575 29.0354 21.1165 31.742C22.1467 33.0674 23.3507 34.5478 24.9261 34.4953C26.4678 34.4378 27.0436 33.6108 28.9045 33.6108C30.7481 33.6108 31.2883 34.4953 32.8957 34.4619C34.5499 34.4378 35.5922 33.1307 36.5862 31.7928C37.3264 30.8484 37.896 29.8047 38.2739 28.7003C37.3128 28.3346 36.4926 27.7224 35.9156 26.9401C35.3387 26.1578 35.0304 25.24 35.0293 24.3011Z" fill="white"/>
<path id="&#60;Path&#62;_2" d="M31.9933 16.2113C32.8952 15.2371 33.3396 13.9849 33.232 12.7207C31.854 12.8509 30.5811 13.4435 29.6669 14.3803C29.22 14.838 28.8777 15.3704 28.6595 15.9472C28.4414 16.524 28.3518 17.1337 28.3958 17.7417C29.085 17.7481 29.7669 17.6137 30.39 17.3486C31.0132 17.0835 31.5614 16.6946 31.9933 16.2113Z" fill="white"/>
</g>
</g>
<g id="Group_4">
<path id="Vector_2" d="M54.5171 31.1397H49.2562L47.9928 34.4962H45.7645L50.7475 22.0782H53.0627L58.0457 34.4962H55.7794L54.5171 31.1397ZM49.801 29.5909H53.9712L51.9154 24.1436H51.8579L49.801 29.5909Z" fill="white"/>
<path id="Vector_3" d="M68.8074 29.9695C68.8074 32.7829 67.1337 34.5905 64.608 34.5905C63.9682 34.6207 63.3319 34.4881 62.772 34.2079C62.212 33.9278 61.7511 33.5114 61.4419 33.0065H61.3941V37.4909H59.3286V25.4421H61.3279V26.948H61.3659C61.6893 26.4455 62.158 26.0313 62.7222 25.7495C63.2864 25.4676 63.925 25.3287 64.57 25.3474C67.1239 25.3474 68.8074 27.1638 68.8074 29.9695ZM66.6844 29.9695C66.6844 28.1365 65.6315 26.9314 64.0251 26.9314C62.447 26.9314 61.3855 28.1618 61.3855 29.9695C61.3855 31.7937 62.447 33.0154 64.0251 33.0154C65.6315 33.0154 66.6844 31.8191 66.6844 29.9695Z" fill="white"/>
<path id="Vector_4" d="M79.8828 29.9694C79.8828 32.7829 78.2091 34.5905 75.6834 34.5905C75.0436 34.6206 74.4073 34.488 73.8473 34.2079C73.2874 33.9278 72.8265 33.5114 72.5173 33.0065H72.4695V37.4909H70.404V25.4421H72.4033V26.948H72.4413C72.7647 26.4455 73.2334 26.0313 73.7976 25.7495C74.3618 25.4676 75.0004 25.3287 75.6454 25.3474C78.1993 25.3474 79.8828 27.1638 79.8828 29.9694ZM77.7597 29.9694C77.7597 28.1364 76.7069 26.9314 75.1005 26.9314C73.5224 26.9314 72.4608 28.1618 72.4608 29.9694C72.4608 31.7937 73.5224 33.0153 75.1005 33.0153C76.7069 33.0153 77.7598 31.8191 77.7598 29.9694H77.7597Z" fill="white"/>
<path id="Vector_5" d="M87.2027 31.0362C87.3557 32.2676 88.6854 33.0762 90.5023 33.0762C92.2433 33.0762 93.4958 32.2676 93.4958 31.1572C93.4958 30.1934 92.7404 29.6162 90.9517 29.2207L89.1629 28.833C86.6285 28.2822 85.452 27.2158 85.452 25.4854C85.452 23.3428 87.5272 21.8711 90.4741 21.8711C93.3905 21.8711 95.3898 23.3428 95.4571 25.4854H93.3721C93.2472 24.2461 92.1087 23.4981 90.4448 23.4981C88.7808 23.4981 87.6423 24.2549 87.6423 25.3565C87.6423 26.2344 88.3695 26.751 90.1484 27.1465L91.6691 27.4824C94.5009 28.0849 95.6774 29.1084 95.6774 30.9248C95.6774 33.248 93.6206 34.7031 90.3492 34.7031C87.2884 34.7031 85.2218 33.2822 85.0883 31.0361L87.2027 31.0362Z" fill="white"/>
<path id="Vector_6" d="M100.135 23.2999V25.4424H102.049V26.9141H100.135V31.9053C100.135 32.6807 100.518 33.042 101.36 33.042C101.587 33.0385 101.813 33.0241 102.039 32.999V34.4619C101.661 34.5255 101.276 34.5543 100.892 34.5479C98.8544 34.5479 98.0599 33.8594 98.0599 32.1035V26.9141H96.5968V25.4424H98.0599V23.2999H100.135Z" fill="white"/>
<path id="Vector_7" d="M103.157 29.9698C103.157 27.1212 105.022 25.3311 107.929 25.3311C110.847 25.3311 112.703 27.1211 112.703 29.9698C112.703 32.8262 110.857 34.6085 107.929 34.6085C105.003 34.6085 103.157 32.8262 103.157 29.9698ZM110.598 29.9698C110.598 28.0157 109.603 26.8624 107.929 26.8624C106.256 26.8624 105.262 28.0245 105.262 29.9698C105.262 31.9317 106.256 33.0762 107.929 33.0762C109.603 33.0762 110.598 31.9317 110.598 29.9698H110.598Z" fill="white"/>
<path id="Vector_8" d="M114.406 25.442H116.376V26.983H116.424C116.557 26.5017 116.87 26.0764 117.311 25.7785C117.752 25.4806 118.293 25.3284 118.844 25.3473C119.082 25.3465 119.32 25.3698 119.552 25.4166V27.1549C119.251 27.0723 118.938 27.0343 118.624 27.0426C118.324 27.0316 118.025 27.0792 117.747 27.1821C117.469 27.285 117.22 27.4408 117.015 27.6386C116.811 27.8365 116.656 28.0719 116.562 28.3286C116.468 28.5852 116.437 28.8571 116.471 29.1256V34.4957H114.406L114.406 25.442Z" fill="white"/>
<path id="Vector_9" d="M129.075 31.837C128.797 33.4805 127.018 34.6084 124.742 34.6084C121.815 34.6084 119.998 32.8438 119.998 30.0127C119.998 27.1729 121.825 25.3311 124.655 25.3311C127.439 25.3311 129.19 27.0518 129.19 29.7969V30.4336H122.083V30.5459C122.05 30.8791 122.097 31.2148 122.219 31.5306C122.341 31.8465 122.537 32.1353 122.793 32.3778C123.049 32.6204 123.36 32.8111 123.704 32.9374C124.048 33.0637 124.418 33.1227 124.79 33.1104C125.278 33.1515 125.768 33.0498 126.187 32.8204C126.605 32.5909 126.93 32.246 127.114 31.837L129.075 31.837ZM122.093 29.1348H127.124C127.142 28.8352 127.092 28.5354 126.975 28.2542C126.859 27.973 126.679 27.7164 126.447 27.5007C126.216 27.2849 125.937 27.1146 125.628 27.0004C125.32 26.8861 124.989 26.8305 124.655 26.837C124.319 26.8352 123.986 26.8933 123.674 27.008C123.363 27.1228 123.08 27.2919 122.842 27.5055C122.604 27.7191 122.415 27.9731 122.286 28.2527C122.158 28.5324 122.092 28.8322 122.093 29.1348V29.1348Z" fill="white"/>
</g>
</g>
</g>
<g id="&#60;Group&#62;_4">
<g id="Group_5">
<path id="Vector_10" d="M49.5417 12.7305C49.9747 12.7026 50.4093 12.7614 50.814 12.9029C51.2187 13.0443 51.5834 13.2648 51.8819 13.5484C52.1804 13.832 52.4053 14.1717 52.5402 14.543C52.6751 14.9143 52.7168 15.3079 52.6622 15.6954C52.6622 17.6016 51.5171 18.6974 49.5417 18.6974H47.1462V12.7305H49.5417ZM48.1763 17.8535H49.4266C49.7361 17.8702 50.0457 17.8245 50.3331 17.7199C50.6204 17.6153 50.8783 17.4543 51.0878 17.2488C51.2973 17.0432 51.4532 16.7982 51.5442 16.5316C51.6351 16.265 51.6589 15.9834 51.6137 15.7075C51.6556 15.4327 51.6295 15.1529 51.5371 14.8883C51.4447 14.6236 51.2884 14.3806 51.0794 14.1767C50.8703 13.9727 50.6138 13.8129 50.328 13.7087C50.0423 13.6044 49.7345 13.5584 49.4266 13.5737H48.1763V17.8535Z" fill="white"/>
<path id="Vector_11" d="M53.826 16.4438C53.7946 16.1479 53.8322 15.8493 53.9365 15.5672C54.0408 15.2852 54.2095 15.0258 54.4317 14.8059C54.6539 14.5859 54.9248 14.4101 55.2269 14.2898C55.5291 14.1696 55.8558 14.1074 56.1862 14.1074C56.5166 14.1074 56.8434 14.1696 57.1455 14.2898C57.4477 14.4101 57.7186 14.5859 57.9408 14.8059C58.163 15.0258 58.3317 15.2852 58.436 15.5672C58.5403 15.8493 58.5779 16.1479 58.5464 16.4438C58.5785 16.74 58.5413 17.039 58.4373 17.3215C58.3333 17.6041 58.1647 17.8639 57.9424 18.0843C57.7201 18.3047 57.4491 18.4808 57.1466 18.6014C56.8442 18.7219 56.517 18.7842 56.1862 18.7842C55.8554 18.7842 55.5283 18.7219 55.2259 18.6014C54.9234 18.4808 54.6523 18.3047 54.4301 18.0843C54.2078 17.8639 54.0392 17.6041 53.9352 17.3215C53.8312 17.039 53.794 16.74 53.826 16.4438ZM57.5305 16.4438C57.5305 15.4677 57.0431 14.8969 56.1879 14.8969C55.3293 14.8969 54.8464 15.4677 54.8464 16.4438C54.8464 17.4277 55.3294 17.9941 56.1879 17.9941C57.0432 17.9941 57.5305 17.4238 57.5305 16.4438H57.5305Z" fill="white"/>
<path id="Vector_12" d="M64.8208 18.6973H63.7962L62.7619 15.3809H62.6837L61.6537 18.6973H60.6388L59.2593 14.1943H60.2611L61.1576 17.6303H61.2314L62.2604 14.1943H63.208L64.2369 17.6303H64.3151L65.2072 14.1943H66.1949L64.8208 18.6973Z" fill="white"/>
<path id="Vector_13" d="M67.3552 14.1939H68.306V14.9092H68.3798C68.5051 14.6523 68.7162 14.4369 68.9839 14.2931C69.2517 14.1493 69.5626 14.0842 69.8733 14.107C70.1169 14.0905 70.3614 14.1235 70.5888 14.2036C70.8162 14.2837 71.0206 14.4088 71.187 14.5697C71.3534 14.7305 71.4774 14.923 71.5498 15.1328C71.6223 15.3426 71.6414 15.5644 71.6056 15.7818V18.6968H70.6179V16.0049C70.6179 15.2813 70.2684 14.9214 69.538 14.9214C69.3726 14.9145 69.2076 14.9398 69.0541 14.9957C68.9007 15.0515 68.7625 15.1365 68.649 15.2449C68.5355 15.3533 68.4493 15.4825 68.3965 15.6236C68.3437 15.7647 68.3254 15.9145 68.3429 16.0625V18.6968H67.3552L67.3552 14.1939Z" fill="white"/>
<path id="Vector_14" d="M73.1794 12.4365H74.1672V18.6973H73.1794V12.4365Z" fill="white"/>
<path id="Vector_15" d="M75.5404 16.4439C75.509 16.1479 75.5466 15.8494 75.651 15.5673C75.7553 15.2852 75.924 15.0259 76.1462 14.8059C76.3685 14.5859 76.6394 14.4101 76.9415 14.2898C77.2437 14.1696 77.5705 14.1074 77.9009 14.1074C78.2313 14.1074 78.5581 14.1696 78.8603 14.2898C79.1624 14.4101 79.4333 14.5859 79.6556 14.8059C79.8778 15.0259 80.0465 15.2852 80.1508 15.5673C80.2552 15.8494 80.2928 16.1479 80.2614 16.4439C80.2934 16.7401 80.2562 17.0391 80.1521 17.3216C80.0481 17.6042 79.8795 17.864 79.6572 18.0844C79.4349 18.3048 79.1638 18.4809 78.8613 18.6014C78.5588 18.722 78.2317 18.7842 77.9009 18.7842C77.5701 18.7842 77.243 18.722 76.9405 18.6014C76.638 18.4809 76.3669 18.3048 76.1446 18.0844C75.9223 17.864 75.7537 17.6042 75.6497 17.3216C75.5456 17.0391 75.5084 16.7401 75.5404 16.4439ZM79.2449 16.4439C79.2449 15.4678 78.7575 14.897 77.9023 14.897C77.0437 14.897 76.5607 15.4678 76.5607 16.4439C76.5607 17.4278 77.0437 17.9942 77.9023 17.9942C78.7575 17.9942 79.2449 17.4239 79.2449 16.4439H79.2449Z" fill="white"/>
<path id="Vector_16" d="M81.3004 17.4238C81.3004 16.6133 81.9711 16.146 83.1618 16.0796L84.5175 16.0093V15.6206C84.5175 15.145 84.168 14.8765 83.4929 14.8765C82.9415 14.8765 82.5594 15.0586 82.4498 15.377H81.4936C81.5945 14.6035 82.4031 14.1074 83.5384 14.1074C84.7932 14.1074 85.5008 14.6694 85.5008 15.6206V18.6973H84.55V18.0645H84.4719C84.3133 18.2914 84.0905 18.4765 83.8264 18.6007C83.5623 18.7249 83.2663 18.7838 82.9686 18.7715C82.7585 18.7911 82.5462 18.7709 82.3453 18.7122C82.1443 18.6536 81.9593 18.5576 81.8022 18.4307C81.645 18.3037 81.5191 18.1485 81.4327 17.9751C81.3463 17.8017 81.3012 17.6139 81.3004 17.4238ZM84.5175 17.0391V16.6626L83.2953 16.7329C82.6061 16.7744 82.2935 16.9853 82.2935 17.3823C82.2935 17.7876 82.6842 18.0234 83.2215 18.0234C83.379 18.0378 83.538 18.0235 83.6892 17.9814C83.8403 17.9393 83.9805 17.8703 84.1014 17.7784C84.2223 17.6866 84.3215 17.5738 84.393 17.4468C84.4644 17.3198 84.5068 17.1811 84.5175 17.0391Z" fill="white"/>
<path id="Vector_17" d="M86.799 16.4439C86.799 15.021 87.612 14.1196 88.8765 14.1196C89.1892 14.1067 89.4997 14.1741 89.7714 14.314C90.0432 14.4539 90.2651 14.6605 90.4112 14.9096H90.485V12.4365H91.4727V18.6973H90.5263V17.9858H90.4481C90.2907 18.2333 90.0611 18.4374 89.7841 18.5758C89.507 18.7143 89.1932 18.782 88.8765 18.7715C87.6033 18.7715 86.799 17.8701 86.799 16.4439ZM87.8193 16.4439C87.8193 17.3989 88.3197 17.9737 89.1565 17.9737C89.989 17.9737 90.5035 17.3907 90.5035 16.4478C90.5035 15.5093 89.9836 14.918 89.1565 14.918C88.3251 14.918 87.8193 15.4966 87.8193 16.4439H87.8193Z" fill="white"/>
<path id="Vector_18" d="M95.5597 16.4439C95.5283 16.1479 95.5659 15.8494 95.6702 15.5673C95.7745 15.2852 95.9432 15.0259 96.1654 14.8059C96.3876 14.5859 96.6585 14.4102 96.9606 14.2899C97.2628 14.1696 97.5895 14.1075 97.9199 14.1075C98.2503 14.1075 98.5771 14.1696 98.8792 14.2899C99.1814 14.4102 99.4522 14.5859 99.6745 14.8059C99.8967 15.0259 100.065 15.2852 100.17 15.5673C100.274 15.8494 100.312 16.1479 100.28 16.4439C100.312 16.7401 100.275 17.0391 100.171 17.3216C100.067 17.6041 99.8984 17.8639 99.6761 18.0843C99.4538 18.3048 99.1828 18.4809 98.8803 18.6014C98.5779 18.722 98.2507 18.7842 97.9199 18.7842C97.5891 18.7842 97.262 18.722 96.9596 18.6014C96.6571 18.4809 96.386 18.3048 96.1638 18.0843C95.9415 17.8639 95.7729 17.6041 95.6689 17.3216C95.5649 17.0391 95.5277 16.7401 95.5597 16.4439ZM99.2642 16.4439C99.2642 15.4678 98.7768 14.897 97.9216 14.897C97.063 14.897 96.5801 15.4678 96.5801 16.4439C96.5801 17.4278 97.0631 17.9942 97.9216 17.9942C98.7769 17.9942 99.2642 17.4238 99.2642 16.4439Z" fill="white"/>
<path id="Vector_19" d="M101.606 14.1939H102.557V14.9092H102.631C102.756 14.6523 102.967 14.4369 103.235 14.2931C103.502 14.1493 103.813 14.0842 104.124 14.107C104.368 14.0905 104.612 14.1235 104.84 14.2036C105.067 14.2837 105.271 14.4088 105.438 14.5697C105.604 14.7305 105.728 14.923 105.801 15.1328C105.873 15.3426 105.892 15.5644 105.856 15.7818V18.6968H104.869V16.0049C104.869 15.2813 104.519 14.9214 103.789 14.9214C103.623 14.9145 103.458 14.9398 103.305 14.9957C103.151 15.0515 103.013 15.1365 102.9 15.2449C102.786 15.3533 102.7 15.4825 102.647 15.6236C102.594 15.7647 102.576 15.9145 102.594 16.0625V18.6968H101.606V14.1939Z" fill="white"/>
<path id="Vector_20" d="M111.436 13.0732V14.2148H112.521V14.9634H111.436V17.2788C111.436 17.7505 111.652 17.957 112.144 17.957C112.27 17.9567 112.396 17.9498 112.521 17.9365V18.6768C112.343 18.7053 112.164 18.7205 111.983 18.7222C110.885 18.7222 110.448 18.3745 110.448 17.5063V14.9633H109.653V14.2148H110.448V13.0732H111.436Z" fill="white"/>
<path id="Vector_21" d="M113.871 12.4365H114.85V14.918H114.928C115.059 14.6587 115.276 14.4421 115.549 14.2977C115.823 14.1534 116.138 14.0883 116.454 14.1113C116.696 14.0995 116.939 14.1359 117.163 14.2179C117.388 14.2999 117.59 14.4256 117.755 14.586C117.919 14.7463 118.043 14.9373 118.116 15.1455C118.189 15.3536 118.21 15.5737 118.178 15.79V18.6973H117.189V16.0093C117.189 15.29 116.817 14.9258 116.119 14.9258C115.949 14.9132 115.778 14.9342 115.618 14.9873C115.459 15.0404 115.314 15.1242 115.194 15.2329C115.074 15.3417 114.981 15.4727 114.924 15.6168C114.866 15.761 114.844 15.9147 114.859 16.0674V18.6973H113.871L113.871 12.4365Z" fill="white"/>
<path id="Vector_22" d="M123.936 17.4815C123.802 17.893 123.511 18.249 123.115 18.4871C122.718 18.7253 122.242 18.8304 121.768 18.7842C121.438 18.792 121.11 18.7352 120.807 18.6177C120.505 18.5001 120.234 18.3247 120.014 18.1036C119.794 17.8824 119.63 17.6209 119.534 17.3371C119.437 17.0532 119.411 16.754 119.456 16.46C119.412 16.1651 119.439 15.8652 119.535 15.5805C119.631 15.2958 119.794 15.033 120.013 14.81C120.232 14.5869 120.501 14.4087 120.803 14.2875C121.105 14.1663 121.433 14.1049 121.763 14.1074C123.156 14.1074 123.996 14.9634 123.996 16.3774V16.6875H120.462V16.7373C120.446 16.9026 120.47 17.0689 120.53 17.2257C120.59 17.3824 120.686 17.5261 120.811 17.6476C120.937 17.769 121.089 17.8655 121.258 17.9309C121.428 17.9963 121.611 18.0292 121.795 18.0273C122.031 18.0528 122.27 18.0146 122.482 17.9174C122.694 17.8202 122.87 17.6684 122.985 17.4814L123.936 17.4815ZM120.462 16.0303H122.99C123.002 15.8792 122.979 15.7274 122.923 15.5846C122.866 15.4419 122.777 15.3114 122.661 15.2016C122.545 15.0917 122.405 15.0049 122.249 14.9467C122.094 14.8886 121.926 14.8603 121.758 14.8638C121.587 14.8619 121.418 14.8907 121.259 14.9487C121.101 15.0066 120.957 15.0925 120.837 15.2012C120.716 15.3099 120.62 15.4393 120.556 15.5817C120.492 15.724 120.46 15.8766 120.462 16.0303H120.462Z" fill="white"/>
</g>
</g>
</g>
</g>
</svg>
