<svg width="47" height="47" viewBox="0 0 47 47" fill="none" xmlns="http://www.w3.org/2000/svg">
<g id="Group 1000001316">
<circle id="Ellipse 148" cx="1.9994" cy="32.3077" r="1.53846" fill="#FFE8DF"/>
<circle id="Ellipse 195" cx="1.9994" cy="1.53846" r="1.53846" fill="#FFE8DF"/>
<ellipse id="Ellipse 196" cx="26.6146" cy="1.53844" rx="1.53846" ry="1.53846" transform="rotate(-90 26.6146 1.53844)" fill="#FFE8DF"/>
<ellipse id="Ellipse 197" cx="20.4603" cy="1.53844" rx="1.53846" ry="1.53846" transform="rotate(-90 20.4603 1.53844)" fill="#FFE8DF"/>
<ellipse id="Ellipse 630" cx="26.6146" cy="44.5384" rx="1.53846" ry="1.53846" transform="rotate(-90 26.6146 44.5384)" fill="#FFE8DF"/>
<ellipse id="Ellipse 198" cx="32.7689" cy="1.53844" rx="1.53846" ry="1.53846" transform="rotate(-90 32.7689 1.53844)" fill="#FFE8DF"/>
<ellipse id="Ellipse 199" cx="38.9213" cy="1.53844" rx="1.53846" ry="1.53846" transform="rotate(-90 38.9213 1.53844)" fill="#FFE8DF"/>
<ellipse id="Ellipse 638" cx="44.9994" cy="1.53844" rx="1.53846" ry="1.53846" transform="rotate(-90 44.9994 1.53844)" fill="#FFE8DF"/>
<ellipse id="Ellipse 640" cx="44.9994" cy="44.5384" rx="1.53846" ry="1.53846" transform="rotate(-90 44.9994 44.5384)" fill="#FFE8DF"/>
<ellipse id="Ellipse 642" cx="44.9994" cy="13.8461" rx="1.53846" ry="1.53846" transform="rotate(-90 44.9994 13.8461)" fill="#FFE8DF"/>
<ellipse id="Ellipse 185" cx="38.9213" cy="7.69225" rx="1.53846" ry="1.53846" transform="rotate(-90 38.9213 7.69225)" fill="#FFE8DF"/>
<ellipse id="Ellipse 643" cx="44.9994" cy="7.69225" rx="1.53846" ry="1.53846" transform="rotate(-90 44.9994 7.69225)" fill="#FFE8DF"/>
<ellipse id="Ellipse 156" cx="26.6146" cy="38.4615" rx="1.53846" ry="1.53846" transform="rotate(-90 26.6146 38.4615)" fill="#FFE8DF"/>
<circle id="Ellipse 163" cx="8.1537" cy="26.1539" r="1.53846" fill="#FFE8DF"/>
<g id="Group 1000001317">
<circle id="Ellipse 633" cx="8.1537" cy="44.5385" r="1.53846" fill="#FFE8DF"/>
<circle id="Ellipse 634" cx="14.308" cy="44.5385" r="1.53846" fill="#FFE8DF"/>
<circle id="Ellipse 175" cx="14.308" cy="38.4616" r="1.53846" fill="#FFE8DF"/>
</g>
<g id="Group 1000001316_2">
<circle id="Ellipse 146" cx="1.9994" cy="7.69227" r="1.53846" fill="#FFE8DF"/>
<circle id="Ellipse 147" cx="1.9994" cy="26.1539" r="1.53846" fill="#FFE8DF"/>
<circle id="Ellipse 149" cx="1.9994" cy="38.4616" r="1.53846" fill="#FFE8DF"/>
<circle id="Ellipse 629" cx="1.9994" cy="44.5385" r="1.53846" fill="#FFE8DF"/>
<circle id="Ellipse 636" cx="44.9994" cy="26.1539" r="1.53846" transform="rotate(-90 44.9994 26.1539)" fill="#FFE8DF"/>
<ellipse id="Ellipse 641" cx="44.9994" cy="20.0001" rx="1.53846" ry="1.53846" transform="rotate(-90 44.9994 20.0001)" fill="#FFE8DF"/>
<ellipse id="Ellipse 183" cx="26.6146" cy="7.69225" rx="1.53846" ry="1.53846" transform="rotate(-90 26.6146 7.69225)" fill="#FFE8DF"/>
<circle id="Ellipse 189" cx="20.4603" cy="7.69227" r="1.53846" fill="#FFE8DF"/>
<g id="Group 1000001314">
<circle id="Ellipse 173" cx="14.308" cy="26.1539" r="1.53846" fill="#FFE8DF"/>
</g>
<circle id="Ellipse 153" cx="32.7689" cy="26.1539" r="1.53846" transform="rotate(-90 32.7689 26.1539)" fill="#FFE8DF"/>
<circle id="Ellipse 154" cx="38.9213" cy="26.1539" r="1.53846" transform="rotate(-90 38.9213 26.1539)" fill="#FFE8DF"/>
<ellipse id="Ellipse 194" cx="20.4603" cy="32.3077" rx="1.53846" ry="1.53846" transform="rotate(-90 20.4603 32.3077)" fill="#FFE8DF"/>
<circle id="Ellipse 165" cx="8.1537" cy="38.4616" r="1.53846" fill="#FFE8DF"/>
<ellipse id="Ellipse 168" cx="26.6146" cy="20.0001" rx="1.53846" ry="1.53846" transform="rotate(-90 26.6146 20.0001)" fill="#FFE8DF"/>
<ellipse id="Ellipse 169" cx="32.7689" cy="20.0001" rx="1.53846" ry="1.53846" transform="rotate(-90 32.7689 20.0001)" fill="#FFE8DF"/>
<ellipse id="Ellipse 170" cx="38.9213" cy="20.0001" rx="1.53846" ry="1.53846" transform="rotate(-90 38.9213 20.0001)" fill="#FFE8DF"/>
<g id="Group 1000001319">
<circle id="Ellipse 164" cx="8.1537" cy="32.3077" r="1.53846" fill="#FFE8DF"/>
<circle id="Ellipse 174" cx="14.308" cy="32.3077" r="1.53846" fill="#FFE8DF"/>
</g>
<ellipse id="Ellipse 178" cx="26.6146" cy="13.8461" rx="1.53846" ry="1.53846" transform="rotate(-90 26.6146 13.8461)" fill="#FFE8DF"/>
<ellipse id="Ellipse 179" cx="32.7689" cy="13.8461" rx="1.53846" ry="1.53846" transform="rotate(-90 32.7689 13.8461)" fill="#FFE8DF"/>
<ellipse id="Ellipse 180" cx="38.9213" cy="13.8461" rx="1.53846" ry="1.53846" transform="rotate(-90 38.9213 13.8461)" fill="#FFE8DF"/>
</g>
<ellipse id="Ellipse 184" cx="32.7689" cy="7.69225" rx="1.53846" ry="1.53846" transform="rotate(-90 32.7689 7.69225)" fill="#FFE8DF"/>
<g id="Group 1000001318">
<circle id="Ellipse 635" cx="20.4603" cy="44.5385" r="1.53846" fill="#FFE8DF"/>
<g id="Group 1000001320">
<ellipse id="Ellipse 631" cx="32.7689" cy="44.5384" rx="1.53846" ry="1.53846" transform="rotate(-90 32.7689 44.5384)" fill="#FF7446"/>
<ellipse id="Ellipse 639" cx="44.9994" cy="38.4615" rx="1.53846" ry="1.53846" transform="rotate(-90 44.9994 38.4615)" fill="#FF7446"/>
<ellipse id="Ellipse 632" cx="38.9213" cy="44.5384" rx="1.53846" ry="1.53846" transform="rotate(-90 38.9213 44.5384)" fill="#FF7446"/>
<circle id="Ellipse 177" cx="14.308" cy="19.9999" r="1.53846" fill="#FF7446"/>
<ellipse id="Ellipse 159" cx="32.7689" cy="38.4615" rx="1.53846" ry="1.53846" transform="rotate(-90 32.7689 38.4615)" fill="#FF7446"/>
<ellipse id="Ellipse 160" cx="38.9213" cy="38.4615" rx="1.53846" ry="1.53846" transform="rotate(-90 38.9213 38.4615)" fill="#FF7446"/>
<circle id="Ellipse 150" cx="1.9994" cy="13.8461" r="1.53846" fill="#FF7446"/>
<circle id="Ellipse 151" cx="1.9994" cy="19.9999" r="1.53846" fill="#FF7446"/>
<circle id="Ellipse 162" cx="8.1537" cy="7.69227" r="1.53846" fill="#FF7446"/>
<circle id="Ellipse 200" cx="8.1537" cy="1.53846" r="1.53846" fill="#FF7446"/>
<circle id="Ellipse 201" cx="14.308" cy="1.53846" r="1.53846" fill="#FF7446"/>
<circle id="Ellipse 152" cx="26.6146" cy="26.1539" r="1.53846" transform="rotate(-90 26.6146 26.1539)" fill="#FF7446"/>
<ellipse id="Ellipse 155" cx="26.6146" cy="32.3077" rx="1.53846" ry="1.53846" transform="rotate(-90 26.6146 32.3077)" fill="#FF7446"/>
<circle id="Ellipse 166" cx="8.1537" cy="13.8461" r="1.53846" fill="#FF7446"/>
<circle id="Ellipse 167" cx="8.1537" cy="19.9999" r="1.53846" fill="#FF7446"/>
<circle id="Ellipse 172" cx="14.308" cy="7.69227" r="1.53846" fill="#FF7446"/>
<circle id="Ellipse 182" cx="20.4603" cy="19.9999" r="1.53846" fill="#FF7446"/>
<circle id="Ellipse 190" cx="20.4603" cy="26.1539" r="1.53846" fill="#FF7446"/>
<circle id="Ellipse 176" cx="14.308" cy="13.8461" r="1.53846" fill="#FF7446"/>
<ellipse id="Ellipse 637" cx="44.9994" cy="32.3077" rx="1.53846" ry="1.53846" transform="rotate(-90 44.9994 32.3077)" fill="#FF7446"/>
<ellipse id="Ellipse 157" cx="32.7689" cy="32.3077" rx="1.53846" ry="1.53846" transform="rotate(-90 32.7689 32.3077)" fill="#FF7446"/>
<ellipse id="Ellipse 158" cx="38.9213" cy="32.3077" rx="1.53846" ry="1.53846" transform="rotate(-90 38.9213 32.3077)" fill="#FF7446"/>
</g>
<circle id="Ellipse 192" cx="20.4603" cy="38.4616" r="1.53846" fill="#FFE8DF"/>
</g>
<circle id="Ellipse 193" cx="20.4603" cy="13.8461" r="1.53846" fill="#FFE8DF"/>
</g>
</svg>
