<svg width="45" height="45" viewBox="0 0 45 45" fill="none" xmlns="http://www.w3.org/2000/svg">
<g id="coffee,soda&#38;refreshments">
<circle id="Ellipse 1097" cx="1.5" cy="1.5" r="1.5" fill="#FFE8DF"/>
<circle id="Ellipse 1371" cx="1.5" cy="19.5" r="1.5" fill="#FF7446"/>
<circle id="Ellipse 1355" cx="1.5" cy="7.5" r="1.5" fill="#FFE8DF"/>
<circle id="Ellipse 1372" cx="1.5" cy="25.5" r="1.5" fill="#FF7446"/>
<circle id="Ellipse 1395" cx="1.5" cy="37.5" r="1.5" fill="#FF7446"/>
<circle id="Ellipse 1363" cx="1.5" cy="13.5" r="1.5" fill="#FF7446"/>
<circle id="Ellipse 1373" cx="1.5" cy="31.5" r="1.5" fill="#FF7446"/>
<circle id="Ellipse 1396" cx="1.5" cy="43.5" r="1.5" fill="#FFE8DF"/>
<circle id="Ellipse 1348" cx="7.5" cy="1.5" r="1.5" fill="#FF7446"/>
<circle id="Ellipse 1374" cx="7.5" cy="19.5" r="1.5" fill="#FF7446"/>
<circle id="Ellipse 1356" cx="7.5" cy="7.5" r="1.5" fill="#FFE8DF"/>
<circle id="Ellipse 1375" cx="7.5" cy="25.5" r="1.5" fill="#FF7446"/>
<circle id="Ellipse 1397" cx="7.5" cy="37.5" r="1.5" fill="#FF7446"/>
<circle id="Ellipse 1364" cx="7.5" cy="13.5" r="1.5" fill="#FF7446"/>
<circle id="Ellipse 1376" cx="7.5" cy="31.5" r="1.5" fill="#FF7446"/>
<circle id="Ellipse 1398" cx="7.5" cy="43.5" r="1.5" fill="#FF7446"/>
<circle id="Ellipse 1349" cx="13.5" cy="1.5" r="1.5" fill="#FF7446"/>
<circle id="Ellipse 1377" cx="13.5" cy="19.5" r="1.5" fill="#FF7446"/>
<circle id="Ellipse 1357" cx="13.5" cy="7.5" r="1.5" fill="#FF7446"/>
<circle id="Ellipse 1378" cx="13.5" cy="25.5" r="1.5" fill="#FF7446"/>
<circle id="Ellipse 1399" cx="13.5" cy="37.5" r="1.5" fill="#FF7446"/>
<circle id="Ellipse 1365" cx="13.5" cy="13.5" r="1.5" fill="#FF7446"/>
<circle id="Ellipse 1379" cx="13.5" cy="31.5" r="1.5" fill="#FF7446"/>
<circle id="Ellipse 1400" cx="13.5" cy="43.5" r="1.5" fill="#FF7446"/>
<circle id="Ellipse 1350" cx="19.5" cy="1.5" r="1.5" fill="#FF7446"/>
<circle id="Ellipse 1380" cx="19.5" cy="19.5" r="1.5" fill="#FF7446"/>
<circle id="Ellipse 1358" cx="19.5" cy="7.5" r="1.5" fill="#FF7446"/>
<circle id="Ellipse 1381" cx="19.5" cy="25.5" r="1.5" fill="#FF7446"/>
<circle id="Ellipse 1401" cx="19.5" cy="37.5" r="1.5" fill="#FF7446"/>
<circle id="Ellipse 1366" cx="19.5" cy="13.5" r="1.5" fill="#FF7446"/>
<circle id="Ellipse 1382" cx="19.5" cy="31.5" r="1.5" fill="#FF7446"/>
<circle id="Ellipse 1402" cx="19.5" cy="43.5" r="1.5" fill="#FF7446"/>
<circle id="Ellipse 1351" cx="25.5" cy="1.5" r="1.5" fill="#FF7446"/>
<circle id="Ellipse 1383" cx="25.5" cy="19.5" r="1.5" fill="#FF7446"/>
<circle id="Ellipse 1359" cx="25.5" cy="7.5" r="1.5" fill="#FFE8DF"/>
<circle id="Ellipse 1384" cx="25.5" cy="25.5" r="1.5" fill="#FF7446"/>
<circle id="Ellipse 1403" cx="25.5" cy="37.5" r="1.5" fill="#FF7446"/>
<circle id="Ellipse 1367" cx="25.5" cy="13.5" r="1.5" fill="#FF7446"/>
<circle id="Ellipse 1385" cx="25.5" cy="31.5" r="1.5" fill="#FF7446"/>
<circle id="Ellipse 1404" cx="25.5" cy="43.5" r="1.5" fill="#FF7446"/>
<circle id="Ellipse 1352" cx="31.5" cy="1.5" r="1.5" fill="#FFE8DF"/>
<circle id="Ellipse 1386" cx="31.5" cy="19.5" r="1.5" fill="#FF7446"/>
<circle id="Ellipse 1360" cx="31.5" cy="7.5" r="1.5" fill="#FFE8DF"/>
<circle id="Ellipse 1387" cx="31.5" cy="25.5" r="1.5" fill="#FF7446"/>
<circle id="Ellipse 1405" cx="31.5" cy="37.5" r="1.5" fill="#FF7446"/>
<circle id="Ellipse 1368" cx="31.5" cy="13.5" r="1.5" fill="#FF7446"/>
<circle id="Ellipse 1388" cx="31.5" cy="31.5" r="1.5" fill="#FF7446"/>
<circle id="Ellipse 1406" cx="31.5" cy="43.5" r="1.5" fill="#FFE8DF"/>
<circle id="Ellipse 1353" cx="37.5" cy="1.5" r="1.5" fill="#FFE8DF"/>
<circle id="Ellipse 1389" cx="37.5" cy="19.5" r="1.5" fill="#FF7446"/>
<circle id="Ellipse 1361" cx="37.5" cy="7.5" r="1.5" fill="#FFE8DF"/>
<circle id="Ellipse 1390" cx="37.5" cy="25.5" r="1.5" fill="#FFE8DF"/>
<circle id="Ellipse 1407" cx="37.5" cy="37.5" r="1.5" fill="#FFE8DF"/>
<circle id="Ellipse 1369" cx="37.5" cy="13.5" r="1.5" fill="#FFE8DF"/>
<circle id="Ellipse 1391" cx="37.5" cy="31.5" r="1.5" fill="#FF7446"/>
<circle id="Ellipse 1408" cx="37.5" cy="43.5" r="1.5" fill="#FFE8DF"/>
<circle id="Ellipse 1354" cx="43.5" cy="1.5" r="1.5" fill="#FFE8DF"/>
<circle id="Ellipse 1392" cx="43.5" cy="19.5" r="1.5" fill="#FF7446"/>
<circle id="Ellipse 1362" cx="43.5" cy="7.5" r="1.5" fill="#FFE8DF"/>
<circle id="Ellipse 1393" cx="43.5" cy="25.5" r="1.5" fill="#FF7446"/>
<circle id="Ellipse 1409" cx="43.5" cy="37.5" r="1.5" fill="#FFE8DF"/>
<circle id="Ellipse 1370" cx="43.5" cy="13.5" r="1.5" fill="#FFE8DF"/>
<circle id="Ellipse 1394" cx="43.5" cy="31.5" r="1.5" fill="#FF7446"/>
<circle id="Ellipse 1410" cx="43.5" cy="43.5" r="1.5" fill="#FFE8DF"/>
</g>
</svg>
