<svg width="46" height="45" viewBox="0 0 46 45" fill="none" xmlns="http://www.w3.org/2000/svg">
<g id="customize-ur-space">
<circle id="Ellipse 1603" cx="2" cy="1.5" r="1.5" fill="#FF7446"/>
<circle id="Ellipse 1604" cx="2" cy="19.5" r="1.5" fill="#FFE8DF"/>
<circle id="Ellipse 1605" cx="2" cy="7.5" r="1.5" fill="#FF7446"/>
<circle id="Ellipse 1606" cx="2" cy="25.5" r="1.5" fill="#FF7446"/>
<circle id="Ellipse 1607" cx="2" cy="37.5" r="1.5" fill="#FF7446"/>
<circle id="Ellipse 1608" cx="2" cy="13.5" r="1.5" fill="#FFE8DF"/>
<circle id="Ellipse 1609" cx="2" cy="31.5" r="1.5" fill="#FF7446"/>
<circle id="Ellipse 1610" cx="2" cy="43.5" r="1.5" fill="#FF7446"/>
<circle id="Ellipse 1611" cx="8" cy="1.5" r="1.5" fill="#FF7446"/>
<circle id="Ellipse 1612" cx="8" cy="19.5" r="1.5" fill="#FFE8DF"/>
<circle id="Ellipse 1613" cx="8" cy="7.5" r="1.5" fill="#FFE8DF"/>
<circle id="Ellipse 1614" cx="8" cy="25.5" r="1.5" fill="#FFE8DF"/>
<circle id="Ellipse 1615" cx="8" cy="37.5" r="1.5" fill="#FFE8DF"/>
<circle id="Ellipse 1616" cx="8" cy="13.5" r="1.5" fill="#FFE8DF"/>
<circle id="Ellipse 1617" cx="8" cy="31.5" r="1.5" fill="#FF7446"/>
<circle id="Ellipse 1618" cx="8" cy="43.5" r="1.5" fill="#FF7446"/>
<circle id="Ellipse 1619" cx="14" cy="1.5" r="1.5" fill="#FF7446"/>
<circle id="Ellipse 1620" cx="14" cy="19.5" r="1.5" fill="#FFE8DF"/>
<circle id="Ellipse 1621" cx="14" cy="7.5" r="1.5" fill="#FFE8DF"/>
<circle id="Ellipse 1622" cx="14" cy="25.5" r="1.5" fill="#FFE8DF"/>
<circle id="Ellipse 1623" cx="14" cy="37.5" r="1.5" fill="#FFE8DF"/>
<circle id="Ellipse 1624" cx="14" cy="13.5" r="1.5" fill="#FFE8DF"/>
<circle id="Ellipse 1625" cx="14" cy="31.5" r="1.5" fill="#FFE8DF"/>
<circle id="Ellipse 1626" cx="14" cy="43.5" r="1.5" fill="#FF7446"/>
<circle id="Ellipse 1627" cx="20" cy="1.5" r="1.5" fill="#FF7446"/>
<circle id="Ellipse 1628" cx="20" cy="19.5" r="1.5" fill="#FFE8DF"/>
<circle id="Ellipse 1629" cx="20" cy="7.5" r="1.5" fill="#FFE8DF"/>
<circle id="Ellipse 1630" cx="20" cy="25.5" r="1.5" fill="#FFE8DF"/>
<circle id="Ellipse 1631" cx="20" cy="37.5" r="1.5" fill="#FFE8DF"/>
<circle id="Ellipse 1632" cx="20" cy="13.5" r="1.5" fill="#FFE8DF"/>
<circle id="Ellipse 1633" cx="20" cy="31.5" r="1.5" fill="#FFE8DF"/>
<circle id="Ellipse 1634" cx="20" cy="43.5" r="1.5" fill="#FF7446"/>
<circle id="Ellipse 1635" cx="26" cy="1.5" r="1.5" fill="#FF7446"/>
<circle id="Ellipse 1636" cx="26" cy="19.5" r="1.5" fill="#FFE8DF"/>
<circle id="Ellipse 1637" cx="26" cy="7.5" r="1.5" fill="#FFE8DF"/>
<circle id="Ellipse 1638" cx="26" cy="25.5" r="1.5" fill="#FFE8DF"/>
<circle id="Ellipse 1639" cx="26" cy="37.5" r="1.5" fill="#FFE8DF"/>
<circle id="Ellipse 1640" cx="26" cy="13.5" r="1.5" fill="#FFE8DF"/>
<circle id="Ellipse 1641" cx="26" cy="31.5" r="1.5" fill="#FF7446"/>
<circle id="Ellipse 1642" cx="26" cy="43.5" r="1.5" fill="#FF7446"/>
<circle id="Ellipse 1643" cx="32" cy="1.5" r="1.5" fill="#FF7446"/>
<circle id="Ellipse 1644" cx="32" cy="19.5" r="1.5" fill="#FFE8DF"/>
<circle id="Ellipse 1645" cx="32" cy="7.5" r="1.5" fill="#FF7446"/>
<circle id="Ellipse 1646" cx="32" cy="25.5" r="1.5" fill="#FF7446"/>
<circle id="Ellipse 1647" cx="32" cy="37.5" r="1.5" fill="#FF7446"/>
<circle id="Ellipse 1648" cx="32" cy="13.5" r="1.5" fill="#FF7446"/>
<circle id="Ellipse 1649" cx="32" cy="31.5" r="1.5" fill="#FF7446"/>
<circle id="Ellipse 1650" cx="32" cy="43.5" r="1.5" fill="#FF7446"/>
<circle id="Ellipse 1651" cx="38" cy="1.5" r="1.5" fill="#FF7446"/>
<circle id="Ellipse 1652" cx="38" cy="19.5" r="1.5" fill="#FFE8DF"/>
<circle id="Ellipse 1653" cx="38" cy="7.5" r="1.5" fill="#FFE8DF"/>
<circle id="Ellipse 1654" cx="38" cy="25.5" r="1.5" fill="#FFE8DF"/>
<circle id="Ellipse 1655" cx="38" cy="37.5" r="1.5" fill="#FFE8DF"/>
<circle id="Ellipse 1656" cx="38" cy="13.5" r="1.5" fill="#FFE8DF"/>
<circle id="Ellipse 1657" cx="38" cy="31.5" r="1.5" fill="#FF7446"/>
<circle id="Ellipse 1658" cx="38" cy="43.5" r="1.5" fill="#FFE8DF"/>
<circle id="Ellipse 1659" cx="44" cy="1.5" r="1.5" fill="#FF7446"/>
<circle id="Ellipse 1660" cx="44" cy="19.5" r="1.5" fill="#FF7446"/>
<circle id="Ellipse 1661" cx="44" cy="7.5" r="1.5" fill="#FF7446"/>
<circle id="Ellipse 1662" cx="44" cy="25.5" r="1.5" fill="#FF7446"/>
<circle id="Ellipse 1663" cx="44" cy="37.5" r="1.5" fill="#FFE8DF"/>
<circle id="Ellipse 1664" cx="44" cy="13.5" r="1.5" fill="#FF7446"/>
<circle id="Ellipse 1665" cx="44" cy="31.5" r="1.5" fill="#FF7446"/>
<circle id="Ellipse 1666" cx="44" cy="43.5" r="1.5" fill="#FFE8DF"/>
</g>
</svg>
