<svg width="48" height="47" viewBox="0 0 48 47" fill="none" xmlns="http://www.w3.org/2000/svg">
<g id="date">
<circle id="Ellipse 146" cx="2.4994" cy="7.69227" r="1.53846" fill="#FFE8DF"/>
<circle id="Ellipse 147" cx="2.4994" cy="26.1542" r="1.53846" fill="#FFE8DF"/>
<circle id="Ellipse 148" cx="2.4994" cy="32.308" r="1.53846" fill="#FFE8DF"/>
<circle id="Ellipse 195" cx="2.4994" cy="1.53846" r="1.53846" fill="#FFE8DF"/>
<circle id="Ellipse 149" cx="2.4994" cy="38.4618" r="1.53846" fill="#FFE8DF"/>
<circle id="Ellipse 629" cx="2.4994" cy="44.5385" r="1.53846" fill="#FFE8DF"/>
<circle id="Ellipse 150" cx="2.4994" cy="13.8461" r="1.53846" fill="#FFE8DF"/>
<circle id="Ellipse 151" cx="2.4994" cy="19.9999" r="1.53846" fill="#FFE8DF"/>
<circle id="Ellipse 636" cx="45.4994" cy="26.1539" r="1.53846" transform="rotate(-90 45.4994 26.1539)" fill="#FFE8DF"/>
<ellipse id="Ellipse 196" cx="27.1146" cy="1.53869" rx="1.53846" ry="1.53846" transform="rotate(-90 27.1146 1.53869)" fill="#FFE8DF"/>
<ellipse id="Ellipse 197" cx="20.9603" cy="1.53869" rx="1.53846" ry="1.53846" transform="rotate(-90 20.9603 1.53869)" fill="#FFE8DF"/>
<ellipse id="Ellipse 630" cx="27.1146" cy="44.5387" rx="1.53846" ry="1.53846" transform="rotate(-90 27.1146 44.5387)" fill="#FFE8DF"/>
<ellipse id="Ellipse 198" cx="33.2689" cy="1.53869" rx="1.53846" ry="1.53846" transform="rotate(-90 33.2689 1.53869)" fill="#FFE8DF"/>
<ellipse id="Ellipse 637" cx="45.4994" cy="32.3077" rx="1.53846" ry="1.53846" transform="rotate(-90 45.4994 32.3077)" fill="#FFE8DF"/>
<ellipse id="Ellipse 199" cx="39.4213" cy="1.53869" rx="1.53846" ry="1.53846" transform="rotate(-90 39.4213 1.53869)" fill="#FFE8DF"/>
<ellipse id="Ellipse 638" cx="45.4994" cy="1.53869" rx="1.53846" ry="1.53846" transform="rotate(-90 45.4994 1.53869)" fill="#FFE8DF"/>
<ellipse id="Ellipse 631" cx="33.2689" cy="44.5387" rx="1.53846" ry="1.53846" transform="rotate(-90 33.2689 44.5387)" fill="#FFE8DF"/>
<ellipse id="Ellipse 639" cx="45.4994" cy="38.4615" rx="1.53846" ry="1.53846" transform="rotate(-90 45.4994 38.4615)" fill="#FFE8DF"/>
<ellipse id="Ellipse 632" cx="39.4213" cy="44.5387" rx="1.53846" ry="1.53846" transform="rotate(-90 39.4213 44.5387)" fill="#FFE8DF"/>
<ellipse id="Ellipse 640" cx="45.4994" cy="44.5387" rx="1.53846" ry="1.53846" transform="rotate(-90 45.4994 44.5387)" fill="#FFE8DF"/>
<circle id="Ellipse 162" cx="8.6537" cy="7.69227" r="1.53846" fill="#FFE8DF"/>
<circle id="Ellipse 200" cx="8.6537" cy="1.53846" r="1.53846" fill="#FFE8DF"/>
<circle id="Ellipse 633" cx="8.6537" cy="44.5385" r="1.53846" fill="#FFE8DF"/>
<ellipse id="Ellipse 641" cx="45.4994" cy="20.0001" rx="1.53846" ry="1.53846" transform="rotate(-90 45.4994 20.0001)" fill="#FFE8DF"/>
<circle id="Ellipse 201" cx="14.808" cy="1.53846" r="1.53846" fill="#FFE8DF"/>
<circle id="Ellipse 634" cx="14.808" cy="44.5385" r="1.53846" fill="#FFE8DF"/>
<circle id="Ellipse 177" cx="14.808" cy="19.9999" r="1.53846" fill="#FFE8DF"/>
<ellipse id="Ellipse 642" cx="45.4994" cy="13.8463" rx="1.53846" ry="1.53846" transform="rotate(-90 45.4994 13.8463)" fill="#FFE8DF"/>
<ellipse id="Ellipse 183" cx="27.1146" cy="7.6925" rx="1.53846" ry="1.53846" transform="rotate(-90 27.1146 7.6925)" fill="#FFE8DF"/>
<ellipse id="Ellipse 185" cx="39.4213" cy="7.6925" rx="1.53846" ry="1.53846" transform="rotate(-90 39.4213 7.6925)" fill="#FFE8DF"/>
<ellipse id="Ellipse 643" cx="45.4994" cy="7.69201" rx="1.53846" ry="1.53846" transform="rotate(-90 45.4994 7.69201)" fill="#FFE8DF"/>
<circle id="Ellipse 189" cx="20.9603" cy="7.69227" r="1.53846" fill="#FFE8DF"/>
<g id="Group 1000001314">
<circle id="Ellipse 173" cx="14.808" cy="26.1537" r="1.53846" fill="#FF7446"/>
<circle id="Ellipse 182" cx="20.9623" cy="19.9999" r="1.53846" fill="#FF7446"/>
<circle id="Ellipse 190" cx="20.9623" cy="26.1537" r="1.53846" fill="#FF7446"/>
</g>
<circle id="Ellipse 635" cx="20.9603" cy="44.5385" r="1.53846" fill="#FFE8DF"/>
<g id="Group 1000001313">
<circle id="Ellipse 152" cx="27.1146" cy="26.1539" r="1.53846" transform="rotate(-90 27.1146 26.1539)" fill="#FF7446"/>
<circle id="Ellipse 153" cx="33.2689" cy="26.1539" r="1.53846" transform="rotate(-90 33.2689 26.1539)" fill="#FF7446"/>
<circle id="Ellipse 154" cx="39.4213" cy="26.1539" r="1.53846" transform="rotate(-90 39.4213 26.1539)" fill="#FF7446"/>
<ellipse id="Ellipse 155" cx="27.1146" cy="32.3077" rx="1.53846" ry="1.53846" transform="rotate(-90 27.1146 32.3077)" fill="#FF7446"/>
<ellipse id="Ellipse 194" cx="20.9603" cy="32.3077" rx="1.53846" ry="1.53846" transform="rotate(-90 20.9603 32.3077)" fill="#FF7446"/>
<ellipse id="Ellipse 156" cx="27.1146" cy="38.4615" rx="1.53846" ry="1.53846" transform="rotate(-90 27.1146 38.4615)" fill="#FF7446"/>
<ellipse id="Ellipse 157" cx="33.2689" cy="32.3077" rx="1.53846" ry="1.53846" transform="rotate(-90 33.2689 32.3077)" fill="#FF7446"/>
<ellipse id="Ellipse 158" cx="39.4213" cy="32.3077" rx="1.53846" ry="1.53846" transform="rotate(-90 39.4213 32.3077)" fill="#FF7446"/>
<ellipse id="Ellipse 159" cx="33.2689" cy="38.4615" rx="1.53846" ry="1.53846" transform="rotate(-90 33.2689 38.4615)" fill="#FF7446"/>
<ellipse id="Ellipse 160" cx="39.4213" cy="38.4615" rx="1.53846" ry="1.53846" transform="rotate(-90 39.4213 38.4615)" fill="#FF7446"/>
<circle id="Ellipse 163" cx="8.6537" cy="26.1542" r="1.53846" fill="#FF7446"/>
<circle id="Ellipse 164" cx="8.6537" cy="32.308" r="1.53846" fill="#FF7446"/>
<circle id="Ellipse 165" cx="8.6537" cy="38.4618" r="1.53846" fill="#FF7446"/>
<circle id="Ellipse 166" cx="8.6537" cy="13.8461" r="1.53846" fill="#FF7446"/>
<circle id="Ellipse 167" cx="8.6537" cy="19.9999" r="1.53846" fill="#FF7446"/>
<ellipse id="Ellipse 168" cx="27.1146" cy="20.0001" rx="1.53846" ry="1.53846" transform="rotate(-90 27.1146 20.0001)" fill="#FF7446"/>
<ellipse id="Ellipse 169" cx="33.2689" cy="20.0001" rx="1.53846" ry="1.53846" transform="rotate(-90 33.2689 20.0001)" fill="#FF7446"/>
<ellipse id="Ellipse 170" cx="39.4213" cy="20.0001" rx="1.53846" ry="1.53846" transform="rotate(-90 39.4213 20.0001)" fill="#FF7446"/>
<circle id="Ellipse 172" cx="14.808" cy="7.69227" r="1.53846" fill="#FF7446"/>
<circle id="Ellipse 174" cx="14.808" cy="32.308" r="1.53846" fill="#FF7446"/>
<circle id="Ellipse 175" cx="14.808" cy="38.4618" r="1.53846" fill="#FF7446"/>
<circle id="Ellipse 176" cx="14.808" cy="13.8461" r="1.53846" fill="#FF7446"/>
<ellipse id="Ellipse 178" cx="27.1146" cy="13.8463" rx="1.53846" ry="1.53846" transform="rotate(-90 27.1146 13.8463)" fill="#FF7446"/>
<ellipse id="Ellipse 179" cx="33.2689" cy="13.8463" rx="1.53846" ry="1.53846" transform="rotate(-90 33.2689 13.8463)" fill="#FF7446"/>
<ellipse id="Ellipse 180" cx="39.4213" cy="13.8463" rx="1.53846" ry="1.53846" transform="rotate(-90 39.4213 13.8463)" fill="#FF7446"/>
<ellipse id="Ellipse 184" cx="33.2689" cy="7.6925" rx="1.53846" ry="1.53846" transform="rotate(-90 33.2689 7.6925)" fill="#FF7446"/>
<circle id="Ellipse 192" cx="20.9603" cy="38.4618" r="1.53846" fill="#FF7446"/>
<circle id="Ellipse 193" cx="20.9603" cy="13.8461" r="1.53846" fill="#FF7446"/>
</g>
</g>
</svg>
