<svg width="47" height="47" viewBox="0 0 47 47" fill="none" xmlns="http://www.w3.org/2000/svg">
<g id="flexible-monthly-subscription">
<circle id="Ellipse 1539" cx="1.9994" cy="7.69227" r="1.53846" fill="#FF7446"/>
<circle id="Ellipse 1542" cx="1.9994" cy="26.1542" r="1.53846" fill="#FF7446"/>
<circle id="Ellipse 1545" cx="1.9994" cy="32.308" r="1.53846" fill="#FF7446"/>
<circle id="Ellipse 1548" cx="1.9994" cy="1.53846" r="1.53846" fill="#FFE8DF"/>
<circle id="Ellipse 1551" cx="1.9994" cy="38.4618" r="1.53846" fill="#FFE8DF"/>
<circle id="Ellipse 1554" cx="1.9994" cy="44.5385" r="1.53846" fill="#FFE8DF"/>
<circle id="Ellipse 1557" cx="1.9994" cy="13.8461" r="1.53846" fill="#FF7446"/>
<circle id="Ellipse 1560" cx="1.9994" cy="19.9999" r="1.53846" fill="#FF7446"/>
<circle id="Ellipse 1563" cx="44.9994" cy="26.1539" r="1.53846" transform="rotate(-90 44.9994 26.1539)" fill="#FF7446"/>
<ellipse id="Ellipse 1566" cx="26.6146" cy="1.53869" rx="1.53846" ry="1.53846" transform="rotate(-90 26.6146 1.53869)" fill="#FFE8DF"/>
<ellipse id="Ellipse 1569" cx="20.4603" cy="1.53869" rx="1.53846" ry="1.53846" transform="rotate(-90 20.4603 1.53869)" fill="#FFE8DF"/>
<ellipse id="Ellipse 1572" cx="26.6146" cy="44.5387" rx="1.53846" ry="1.53846" transform="rotate(-90 26.6146 44.5387)" fill="#FFE8DF"/>
<ellipse id="Ellipse 1575" cx="32.7689" cy="1.53869" rx="1.53846" ry="1.53846" transform="rotate(-90 32.7689 1.53869)" fill="#FFE8DF"/>
<ellipse id="Ellipse 1578" cx="44.9994" cy="32.3077" rx="1.53846" ry="1.53846" transform="rotate(-90 44.9994 32.3077)" fill="#FF7446"/>
<ellipse id="Ellipse 1581" cx="38.9213" cy="1.53869" rx="1.53846" ry="1.53846" transform="rotate(-90 38.9213 1.53869)" fill="#FFE8DF"/>
<ellipse id="Ellipse 1584" cx="44.9994" cy="1.53869" rx="1.53846" ry="1.53846" transform="rotate(-90 44.9994 1.53869)" fill="#FFE8DF"/>
<ellipse id="Ellipse 1587" cx="32.7689" cy="44.5387" rx="1.53846" ry="1.53846" transform="rotate(-90 32.7689 44.5387)" fill="#FFE8DF"/>
<ellipse id="Ellipse 1590" cx="44.9994" cy="38.4615" rx="1.53846" ry="1.53846" transform="rotate(-90 44.9994 38.4615)" fill="#FFE8DF"/>
<ellipse id="Ellipse 1593" cx="38.9213" cy="44.5387" rx="1.53846" ry="1.53846" transform="rotate(-90 38.9213 44.5387)" fill="#FFE8DF"/>
<ellipse id="Ellipse 1596" cx="44.9994" cy="44.5387" rx="1.53846" ry="1.53846" transform="rotate(-90 44.9994 44.5387)" fill="#FFE8DF"/>
<circle id="Ellipse 1599" cx="8.1537" cy="7.69227" r="1.53846" fill="#FF7446"/>
<circle id="Ellipse 1602" cx="8.1537" cy="1.53846" r="1.53846" fill="#FFE8DF"/>
<circle id="Ellipse 1605" cx="8.1537" cy="44.5385" r="1.53846" fill="#FFE8DF"/>
<ellipse id="Ellipse 1608" cx="44.9994" cy="20.0001" rx="1.53846" ry="1.53846" transform="rotate(-90 44.9994 20.0001)" fill="#FF7446"/>
<circle id="Ellipse 1611" cx="14.308" cy="1.53846" r="1.53846" fill="#FFE8DF"/>
<circle id="Ellipse 1614" cx="14.308" cy="44.5385" r="1.53846" fill="#FFE8DF"/>
<circle id="Ellipse 1617" cx="14.308" cy="19.9999" r="1.53846" fill="#FFE8DF"/>
<ellipse id="Ellipse 1620" cx="44.9994" cy="13.8463" rx="1.53846" ry="1.53846" transform="rotate(-90 44.9994 13.8463)" fill="#FF7446"/>
<ellipse id="Ellipse 1623" cx="26.6146" cy="7.6925" rx="1.53846" ry="1.53846" transform="rotate(-90 26.6146 7.6925)" fill="#FF7446"/>
<ellipse id="Ellipse 1626" cx="38.9213" cy="7.6925" rx="1.53846" ry="1.53846" transform="rotate(-90 38.9213 7.6925)" fill="#FF7446"/>
<ellipse id="Ellipse 1629" cx="44.9994" cy="7.69201" rx="1.53846" ry="1.53846" transform="rotate(-90 44.9994 7.69201)" fill="#FF7446"/>
<circle id="Ellipse 1632" cx="20.4603" cy="7.69227" r="1.53846" fill="#FF7446"/>
<circle id="Ellipse 1635" cx="14.308" cy="26.1537" r="1.53846" fill="#FF7446"/>
<circle id="Ellipse 1638" cx="20.4603" cy="19.9999" r="1.53846" fill="#FFE8DF"/>
<circle id="Ellipse 1641" cx="20.4603" cy="26.1537" r="1.53846" fill="#FFE8DF"/>
<circle id="Ellipse 1644" cx="20.4603" cy="44.5385" r="1.53846" fill="#FFE8DF"/>
<circle id="Ellipse 1647" cx="26.6146" cy="26.1539" r="1.53846" transform="rotate(-90 26.6146 26.1539)" fill="#FFE8DF"/>
<circle id="Ellipse 1650" cx="32.7689" cy="26.1539" r="1.53846" transform="rotate(-90 32.7689 26.1539)" fill="#FF7446"/>
<circle id="Ellipse 1653" cx="38.9213" cy="26.1539" r="1.53846" transform="rotate(-90 38.9213 26.1539)" fill="#FF7446"/>
<ellipse id="Ellipse 1656" cx="26.6146" cy="32.3077" rx="1.53846" ry="1.53846" transform="rotate(-90 26.6146 32.3077)" fill="#FF7446"/>
<ellipse id="Ellipse 1659" cx="20.4603" cy="32.3077" rx="1.53846" ry="1.53846" transform="rotate(-90 20.4603 32.3077)" fill="#FF7446"/>
<ellipse id="Ellipse 1662" cx="26.6146" cy="38.4615" rx="1.53846" ry="1.53846" transform="rotate(-90 26.6146 38.4615)" fill="#FFE8DF"/>
<ellipse id="Ellipse 1665" cx="32.7689" cy="32.3077" rx="1.53846" ry="1.53846" transform="rotate(-90 32.7689 32.3077)" fill="#FF7446"/>
<ellipse id="Ellipse 1668" cx="38.9213" cy="32.3077" rx="1.53846" ry="1.53846" transform="rotate(-90 38.9213 32.3077)" fill="#FF7446"/>
<ellipse id="Ellipse 1671" cx="32.7689" cy="38.4615" rx="1.53846" ry="1.53846" transform="rotate(-90 32.7689 38.4615)" fill="#FFE8DF"/>
<ellipse id="Ellipse 1674" cx="38.9213" cy="38.4615" rx="1.53846" ry="1.53846" transform="rotate(-90 38.9213 38.4615)" fill="#FFE8DF"/>
<circle id="Ellipse 1677" cx="8.1537" cy="26.1537" r="1.53846" fill="#FF7446"/>
<circle id="Ellipse 1680" cx="8.1537" cy="32.308" r="1.53846" fill="#FF7446"/>
<circle id="Ellipse 1683" cx="8.1537" cy="38.4613" r="1.53846" fill="#FFE8DF"/>
<circle id="Ellipse 1686" cx="8.1537" cy="13.8461" r="1.53846" fill="#FF7446"/>
<circle id="Ellipse 1689" cx="8.1537" cy="19.9999" r="1.53846" fill="#FF7446"/>
<ellipse id="Ellipse 1692" cx="26.6146" cy="20.0001" rx="1.53846" ry="1.53846" transform="rotate(-90 26.6146 20.0001)" fill="#FFE8DF"/>
<ellipse id="Ellipse 1695" cx="32.7689" cy="20.0001" rx="1.53846" ry="1.53846" transform="rotate(-90 32.7689 20.0001)" fill="#FFE8DF"/>
<ellipse id="Ellipse 1698" cx="38.9213" cy="20.0001" rx="1.53846" ry="1.53846" transform="rotate(-90 38.9213 20.0001)" fill="#FF7446"/>
<circle id="Ellipse 1701" cx="14.308" cy="7.69227" r="1.53846" fill="#FF7446"/>
<circle id="Ellipse 1704" cx="14.308" cy="32.308" r="1.53846" fill="#FF7446"/>
<circle id="Ellipse 1707" cx="14.308" cy="38.4613" r="1.53846" fill="#FFE8DF"/>
<circle id="Ellipse 1710" cx="14.308" cy="13.8461" r="1.53846" fill="#FF7446"/>
<ellipse id="Ellipse 1713" cx="26.6146" cy="13.8463" rx="1.53846" ry="1.53846" transform="rotate(-90 26.6146 13.8463)" fill="#FFE8DF"/>
<ellipse id="Ellipse 1716" cx="32.7689" cy="13.8463" rx="1.53846" ry="1.53846" transform="rotate(-90 32.7689 13.8463)" fill="#FF7446"/>
<ellipse id="Ellipse 1719" cx="38.9213" cy="13.8463" rx="1.53846" ry="1.53846" transform="rotate(-90 38.9213 13.8463)" fill="#FF7446"/>
<ellipse id="Ellipse 1722" cx="32.7689" cy="7.69201" rx="1.53846" ry="1.53846" transform="rotate(-90 32.7689 7.69201)" fill="#FF7446"/>
<circle id="Ellipse 1725" cx="20.4603" cy="38.4613" r="1.53846" fill="#FFE8DF"/>
<circle id="Ellipse 1728" cx="20.4603" cy="13.8461" r="1.53846" fill="#FFE8DF"/>
<circle id="Ellipse 1156" cx="1.9994" cy="7.69227" r="1.53846" fill="#FF7446"/>
<circle id="Ellipse 1157" cx="1.9994" cy="26.1542" r="1.53846" fill="#FF7446"/>
<circle id="Ellipse 1158" cx="1.9994" cy="32.308" r="1.53846" fill="#FF7446"/>
<circle id="Ellipse 1159" cx="1.9994" cy="1.53846" r="1.53846" fill="#FFE8DF"/>
<circle id="Ellipse 1160" cx="1.9994" cy="38.4618" r="1.53846" fill="#FFE8DF"/>
<circle id="Ellipse 1161" cx="1.9994" cy="44.5385" r="1.53846" fill="#FFE8DF"/>
<circle id="Ellipse 1162" cx="1.9994" cy="13.8461" r="1.53846" fill="#FF7446"/>
<circle id="Ellipse 1163" cx="1.9994" cy="19.9999" r="1.53846" fill="#FF7446"/>
<circle id="Ellipse 1164" cx="44.9994" cy="26.1539" r="1.53846" transform="rotate(-90 44.9994 26.1539)" fill="#FF7446"/>
<ellipse id="Ellipse 1165" cx="26.6146" cy="1.53869" rx="1.53846" ry="1.53846" transform="rotate(-90 26.6146 1.53869)" fill="#FFE8DF"/>
<ellipse id="Ellipse 1166" cx="20.4603" cy="1.53869" rx="1.53846" ry="1.53846" transform="rotate(-90 20.4603 1.53869)" fill="#FFE8DF"/>
<ellipse id="Ellipse 1167" cx="26.6146" cy="44.5387" rx="1.53846" ry="1.53846" transform="rotate(-90 26.6146 44.5387)" fill="#FFE8DF"/>
<ellipse id="Ellipse 1168" cx="32.7689" cy="1.53869" rx="1.53846" ry="1.53846" transform="rotate(-90 32.7689 1.53869)" fill="#FFE8DF"/>
<ellipse id="Ellipse 1169" cx="44.9994" cy="32.3077" rx="1.53846" ry="1.53846" transform="rotate(-90 44.9994 32.3077)" fill="#FF7446"/>
<ellipse id="Ellipse 1170" cx="38.9213" cy="1.53869" rx="1.53846" ry="1.53846" transform="rotate(-90 38.9213 1.53869)" fill="#FFE8DF"/>
<ellipse id="Ellipse 1171" cx="44.9994" cy="1.53869" rx="1.53846" ry="1.53846" transform="rotate(-90 44.9994 1.53869)" fill="#FFE8DF"/>
<ellipse id="Ellipse 1172" cx="32.7689" cy="44.5387" rx="1.53846" ry="1.53846" transform="rotate(-90 32.7689 44.5387)" fill="#FFE8DF"/>
<ellipse id="Ellipse 1173" cx="44.9994" cy="38.4615" rx="1.53846" ry="1.53846" transform="rotate(-90 44.9994 38.4615)" fill="#FFE8DF"/>
<ellipse id="Ellipse 1174" cx="38.9213" cy="44.5387" rx="1.53846" ry="1.53846" transform="rotate(-90 38.9213 44.5387)" fill="#FFE8DF"/>
<ellipse id="Ellipse 1175" cx="44.9994" cy="44.5387" rx="1.53846" ry="1.53846" transform="rotate(-90 44.9994 44.5387)" fill="#FFE8DF"/>
<circle id="Ellipse 1176" cx="8.1537" cy="7.69227" r="1.53846" fill="#FF7446"/>
<circle id="Ellipse 1177" cx="8.1537" cy="1.53846" r="1.53846" fill="#FFE8DF"/>
<circle id="Ellipse 1178" cx="8.1537" cy="44.5385" r="1.53846" fill="#FFE8DF"/>
<ellipse id="Ellipse 1179" cx="44.9994" cy="20.0001" rx="1.53846" ry="1.53846" transform="rotate(-90 44.9994 20.0001)" fill="#FF7446"/>
<circle id="Ellipse 1180" cx="14.308" cy="1.53846" r="1.53846" fill="#FFE8DF"/>
<circle id="Ellipse 1181" cx="14.308" cy="44.5385" r="1.53846" fill="#FFE8DF"/>
<circle id="Ellipse 1182" cx="14.308" cy="19.9999" r="1.53846" fill="#FFE8DF"/>
<ellipse id="Ellipse 1183" cx="44.9994" cy="13.8463" rx="1.53846" ry="1.53846" transform="rotate(-90 44.9994 13.8463)" fill="#FF7446"/>
<ellipse id="Ellipse 1184" cx="26.6146" cy="7.6925" rx="1.53846" ry="1.53846" transform="rotate(-90 26.6146 7.6925)" fill="#FF7446"/>
<ellipse id="Ellipse 1185" cx="38.9213" cy="7.6925" rx="1.53846" ry="1.53846" transform="rotate(-90 38.9213 7.6925)" fill="#FF7446"/>
<ellipse id="Ellipse 1186" cx="44.9994" cy="7.69201" rx="1.53846" ry="1.53846" transform="rotate(-90 44.9994 7.69201)" fill="#FF7446"/>
<circle id="Ellipse 1187" cx="20.4603" cy="7.69227" r="1.53846" fill="#FF7446"/>
<circle id="Ellipse 1188" cx="14.308" cy="26.1537" r="1.53846" fill="#FF7446"/>
<circle id="Ellipse 1189" cx="20.4603" cy="19.9999" r="1.53846" fill="#FFE8DF"/>
<circle id="Ellipse 1190" cx="20.4603" cy="26.1537" r="1.53846" fill="#FFE8DF"/>
<circle id="Ellipse 1191" cx="20.4603" cy="44.5385" r="1.53846" fill="#FFE8DF"/>
<circle id="Ellipse 1192" cx="26.6146" cy="26.1539" r="1.53846" transform="rotate(-90 26.6146 26.1539)" fill="#FFE8DF"/>
<circle id="Ellipse 1193" cx="32.7689" cy="26.1539" r="1.53846" transform="rotate(-90 32.7689 26.1539)" fill="#FF7446"/>
<circle id="Ellipse 1194" cx="38.9213" cy="26.1539" r="1.53846" transform="rotate(-90 38.9213 26.1539)" fill="#FF7446"/>
<ellipse id="Ellipse 1195" cx="26.6146" cy="32.3077" rx="1.53846" ry="1.53846" transform="rotate(-90 26.6146 32.3077)" fill="#FF7446"/>
<ellipse id="Ellipse 1196" cx="20.4603" cy="32.3077" rx="1.53846" ry="1.53846" transform="rotate(-90 20.4603 32.3077)" fill="#FF7446"/>
<ellipse id="Ellipse 1197" cx="26.6146" cy="38.4615" rx="1.53846" ry="1.53846" transform="rotate(-90 26.6146 38.4615)" fill="#FFE8DF"/>
<ellipse id="Ellipse 1198" cx="32.7689" cy="32.3077" rx="1.53846" ry="1.53846" transform="rotate(-90 32.7689 32.3077)" fill="#FF7446"/>
<ellipse id="Ellipse 1199" cx="38.9213" cy="32.3077" rx="1.53846" ry="1.53846" transform="rotate(-90 38.9213 32.3077)" fill="#FF7446"/>
<ellipse id="Ellipse 1200" cx="32.7689" cy="38.4615" rx="1.53846" ry="1.53846" transform="rotate(-90 32.7689 38.4615)" fill="#FFE8DF"/>
<ellipse id="Ellipse 1201" cx="38.9213" cy="38.4615" rx="1.53846" ry="1.53846" transform="rotate(-90 38.9213 38.4615)" fill="#FFE8DF"/>
<circle id="Ellipse 1202" cx="8.1537" cy="26.1537" r="1.53846" fill="#FF7446"/>
<circle id="Ellipse 1203" cx="8.1537" cy="32.308" r="1.53846" fill="#FF7446"/>
<circle id="Ellipse 1204" cx="8.1537" cy="38.4613" r="1.53846" fill="#FFE8DF"/>
<circle id="Ellipse 1205" cx="8.1537" cy="13.8461" r="1.53846" fill="#FF7446"/>
<circle id="Ellipse 1206" cx="8.1537" cy="19.9999" r="1.53846" fill="#FF7446"/>
<ellipse id="Ellipse 1207" cx="26.6146" cy="20.0001" rx="1.53846" ry="1.53846" transform="rotate(-90 26.6146 20.0001)" fill="#FFE8DF"/>
<ellipse id="Ellipse 1208" cx="32.7689" cy="20.0001" rx="1.53846" ry="1.53846" transform="rotate(-90 32.7689 20.0001)" fill="#FFE8DF"/>
<ellipse id="Ellipse 1209" cx="38.9213" cy="20.0001" rx="1.53846" ry="1.53846" transform="rotate(-90 38.9213 20.0001)" fill="#FF7446"/>
<circle id="Ellipse 1210" cx="14.308" cy="7.69227" r="1.53846" fill="#FF7446"/>
<circle id="Ellipse 1211" cx="14.308" cy="32.308" r="1.53846" fill="#FF7446"/>
<circle id="Ellipse 1212" cx="14.308" cy="38.4613" r="1.53846" fill="#FFE8DF"/>
<circle id="Ellipse 1213" cx="14.308" cy="13.8461" r="1.53846" fill="#FF7446"/>
<ellipse id="Ellipse 1214" cx="26.6146" cy="13.8463" rx="1.53846" ry="1.53846" transform="rotate(-90 26.6146 13.8463)" fill="#FFE8DF"/>
<ellipse id="Ellipse 1215" cx="32.7689" cy="13.8463" rx="1.53846" ry="1.53846" transform="rotate(-90 32.7689 13.8463)" fill="#FF7446"/>
<ellipse id="Ellipse 1216" cx="38.9213" cy="13.8463" rx="1.53846" ry="1.53846" transform="rotate(-90 38.9213 13.8463)" fill="#FF7446"/>
<ellipse id="Ellipse 1217" cx="32.7689" cy="7.69201" rx="1.53846" ry="1.53846" transform="rotate(-90 32.7689 7.69201)" fill="#FF7446"/>
<circle id="Ellipse 1218" cx="20.4603" cy="38.4613" r="1.53846" fill="#FFE8DF"/>
<circle id="Ellipse 1219" cx="20.4603" cy="13.8461" r="1.53846" fill="#FFE8DF"/>
</g>
</svg>
