<svg width="149" height="48" viewBox="0 0 149 48" fill="none" xmlns="http://www.w3.org/2000/svg">
<rect x="0.5" width="148" height="48" fill="#1E1E26"/>
<path d="M50.9545 14.8657H52.9881V17.775C52.6717 17.8759 52.3498 17.9523 52.0225 18.0041C51.6951 18.0559 51.316 18.0818 50.885 18.0818C49.9793 18.0818 49.2741 17.8131 48.7695 17.2758C48.2648 16.7356 48.0125 15.98 48.0125 15.0089C48.0125 14.3869 48.1366 13.8427 48.3849 13.3763C48.6358 12.9071 48.9959 12.5497 49.4651 12.3042C49.9343 12.056 50.484 11.9319 51.1141 11.9319C51.7524 11.9319 52.3471 12.0492 52.8981 12.2838L52.6281 12.8975C52.0879 12.6684 51.5683 12.5538 51.0691 12.5538C50.3407 12.5538 49.772 12.7707 49.3628 13.2044C48.9536 13.6381 48.749 14.2396 48.749 15.0089C48.749 15.8163 48.9454 16.4287 49.3383 16.8461C49.7338 17.2635 50.3135 17.4722 51.0773 17.4722C51.4919 17.4722 51.897 17.4244 52.2925 17.3289V15.4876H50.9545V14.8657ZM57.7633 18H54.4284V12.0178H57.7633V12.6357H55.1241V14.5629H57.6037V15.1767H55.1241V17.378H57.7633V18ZM60.9344 18H60.2388V12.6357H58.3443V12.0178H62.8289V12.6357H60.9344V18ZM65.91 18V12.0178H66.6056V18H65.91ZM70.0918 18H69.3962V12.6357H67.5017V12.0178H71.9864V12.6357H70.0918V18ZM80.26 15.0007C80.26 15.9582 80.0172 16.7111 79.5316 17.2594C79.0488 17.8077 78.3764 18.0818 77.5144 18.0818C76.6333 18.0818 75.9527 17.8131 75.4726 17.2758C74.9952 16.7356 74.7565 15.9746 74.7565 14.9925C74.7565 14.0187 74.9965 13.2644 75.4767 12.7298C75.9568 12.1924 76.6387 11.9237 77.5226 11.9237C78.3818 11.9237 79.0529 12.1965 79.5357 12.742C80.0185 13.2876 80.26 14.0405 80.26 15.0007ZM75.493 15.0007C75.493 15.8109 75.6649 16.426 76.0086 16.8461C76.355 17.2635 76.857 17.4722 77.5144 17.4722C78.1772 17.4722 78.6778 17.2635 79.0161 16.8461C79.3543 16.4287 79.5234 15.8136 79.5234 15.0007C79.5234 14.196 79.3543 13.5863 79.0161 13.1717C78.6805 12.7543 78.1827 12.5456 77.5226 12.5456C76.8597 12.5456 76.355 12.7557 76.0086 13.1758C75.6649 13.5931 75.493 14.2014 75.493 15.0007ZM86.2708 18H85.477L82.2077 12.9794H82.1749C82.2186 13.5686 82.2404 14.1087 82.2404 14.5997V18H81.598V12.0178H82.3836L85.6448 17.018H85.6775C85.672 16.9443 85.6598 16.7084 85.6407 16.3101C85.6216 15.9091 85.6148 15.6227 85.6202 15.4508V12.0178H86.2708V18Z" fill="white"/>
<path d="M50.9545 14.8657V14.7657H50.8545V14.8657H50.9545ZM52.9881 14.8657H53.0881V14.7657H52.9881V14.8657ZM52.9881 17.775L53.0185 17.8702L53.0881 17.848V17.775H52.9881ZM48.7695 17.2758L48.6964 17.344L48.6966 17.3442L48.7695 17.2758ZM48.3849 13.3763L48.2967 13.3291L48.2966 13.3293L48.3849 13.3763ZM49.4651 12.3042L49.5115 12.3928L49.5119 12.3926L49.4651 12.3042ZM52.8981 12.2838L52.9896 12.324L53.0304 12.2314L52.9373 12.1918L52.8981 12.2838ZM52.6281 12.8975L52.589 12.9896L52.6798 13.0281L52.7196 12.9378L52.6281 12.8975ZM49.3383 16.8461L49.2654 16.9146L49.2657 16.9149L49.3383 16.8461ZM52.2925 17.3289L52.316 17.4262L52.3925 17.4077V17.3289H52.2925ZM52.2925 15.4876H52.3925V15.3876H52.2925V15.4876ZM50.9545 15.4876H50.8545V15.5876H50.9545V15.4876ZM50.9545 14.9657H52.9881V14.7657H50.9545V14.9657ZM52.8881 14.8657V17.775H53.0881V14.8657H52.8881ZM52.9577 17.6797C52.6461 17.7791 52.3292 17.8543 52.0068 17.9053L52.0381 18.1029C52.3705 18.0502 52.6973 17.9727 53.0185 17.8702L52.9577 17.6797ZM52.0068 17.9053C51.6859 17.9561 51.3122 17.9818 50.885 17.9818V18.1818C51.3197 18.1818 51.7043 18.1557 52.0381 18.1029L52.0068 17.9053ZM50.885 17.9818C50.0001 17.9818 49.324 17.7201 48.8424 17.2073L48.6966 17.3442C49.2243 17.9062 49.9585 18.1818 50.885 18.1818V17.9818ZM48.8426 17.2075C48.3601 16.6911 48.1125 15.9628 48.1125 15.0089H47.9125C47.9125 15.9972 48.1696 16.7802 48.6964 17.344L48.8426 17.2075ZM48.1125 15.0089C48.1125 14.4004 48.2339 13.8729 48.4731 13.4232L48.2966 13.3293C48.0394 13.8126 47.9125 14.3735 47.9125 15.0089H48.1125ZM48.473 13.4234C48.7146 12.9718 49.0601 12.629 49.5115 12.3928L49.4187 12.2156C48.9317 12.4705 48.5571 12.8423 48.2967 13.3291L48.473 13.4234ZM49.5119 12.3926C49.9642 12.1533 50.4972 12.0319 51.1141 12.0319V11.8319C50.4707 11.8319 49.9044 11.9587 49.4183 12.2158L49.5119 12.3926ZM51.1141 12.0319C51.7399 12.0319 52.3211 12.1468 52.8589 12.3758L52.9373 12.1918C52.3731 11.9515 51.765 11.8319 51.1141 11.8319V12.0319ZM52.8066 12.2435L52.5365 12.8573L52.7196 12.9378L52.9896 12.324L52.8066 12.2435ZM52.6671 12.8055C52.1168 12.572 51.5838 12.4538 51.0691 12.4538V12.6538C51.5527 12.6538 52.0591 12.7648 52.589 12.9896L52.6671 12.8055ZM51.0691 12.4538C50.3198 12.4538 49.7222 12.6777 49.2901 13.1358L49.4355 13.273C49.8218 12.8636 50.3617 12.6538 51.0691 12.6538V12.4538ZM49.2901 13.1358C48.8587 13.593 48.649 14.2218 48.649 15.0089H48.849C48.849 14.2575 49.0485 13.6833 49.4355 13.273L49.2901 13.1358ZM48.649 15.0089C48.649 15.8314 48.8491 16.4723 49.2654 16.9146L49.4111 16.7776C49.0418 16.3852 48.849 15.8013 48.849 15.0089H48.649ZM49.2657 16.9149C49.6857 17.3581 50.2954 17.5722 51.0773 17.5722V17.3722C50.3315 17.3722 49.7819 17.1688 49.4108 16.7773L49.2657 16.9149ZM51.0773 17.5722C51.4997 17.5722 51.9126 17.5235 52.316 17.4262L52.2691 17.2317C51.8814 17.3253 51.4842 17.3722 51.0773 17.3722V17.5722ZM52.3925 17.3289V15.4876H52.1925V17.3289H52.3925ZM52.2925 15.3876H50.9545V15.5876H52.2925V15.3876ZM51.0545 15.4876V14.8657H50.8545V15.4876H51.0545ZM57.7633 18V18.1H57.8633V18H57.7633ZM54.4284 18H54.3284V18.1H54.4284V18ZM54.4284 12.0178V11.9178H54.3284V12.0178H54.4284ZM57.7633 12.0178H57.8633V11.9178H57.7633V12.0178ZM57.7633 12.6357V12.7357H57.8633V12.6357H57.7633ZM55.1241 12.6357V12.5357H55.0241V12.6357H55.1241ZM55.1241 14.5629H55.0241V14.6629H55.1241V14.5629ZM57.6037 14.5629H57.7037V14.4629H57.6037V14.5629ZM57.6037 15.1767V15.2767H57.7037V15.1767H57.6037ZM55.1241 15.1767V15.0767H55.0241V15.1767H55.1241ZM55.1241 17.378H55.0241V17.478H55.1241V17.378ZM57.7633 17.378H57.8633V17.278H57.7633V17.378ZM57.7633 17.9H54.4284V18.1H57.7633V17.9ZM54.5284 18V12.0178H54.3284V18H54.5284ZM54.4284 12.1178H57.7633V11.9178H54.4284V12.1178ZM57.6633 12.0178V12.6357H57.8633V12.0178H57.6633ZM57.7633 12.5357H55.1241V12.7357H57.7633V12.5357ZM55.0241 12.6357V14.5629H55.2241V12.6357H55.0241ZM55.1241 14.6629H57.6037V14.4629H55.1241V14.6629ZM57.5037 14.5629V15.1767H57.7037V14.5629H57.5037ZM57.6037 15.0767H55.1241V15.2767H57.6037V15.0767ZM55.0241 15.1767V17.378H55.2241V15.1767H55.0241ZM55.1241 17.478H57.7633V17.278H55.1241V17.478ZM57.6633 17.378V18H57.8633V17.378H57.6633ZM60.9344 18V18.1H61.0344V18H60.9344ZM60.2388 18H60.1388V18.1H60.2388V18ZM60.2388 12.6357H60.3388V12.5357H60.2388V12.6357ZM58.3443 12.6357H58.2443V12.7357H58.3443V12.6357ZM58.3443 12.0178V11.9178H58.2443V12.0178H58.3443ZM62.8289 12.0178H62.9289V11.9178H62.8289V12.0178ZM62.8289 12.6357V12.7357H62.9289V12.6357H62.8289ZM60.9344 12.6357V12.5357H60.8344V12.6357H60.9344ZM60.9344 17.9H60.2388V18.1H60.9344V17.9ZM60.3388 18V12.6357H60.1388V18H60.3388ZM60.2388 12.5357H58.3443V12.7357H60.2388V12.5357ZM58.4443 12.6357V12.0178H58.2443V12.6357H58.4443ZM58.3443 12.1178H62.8289V11.9178H58.3443V12.1178ZM62.7289 12.0178V12.6357H62.9289V12.0178H62.7289ZM62.8289 12.5357H60.9344V12.7357H62.8289V12.5357ZM60.8344 12.6357V18H61.0344V12.6357H60.8344ZM65.91 18H65.81V18.1H65.91V18ZM65.91 12.0178V11.9178H65.81V12.0178H65.91ZM66.6056 12.0178H66.7056V11.9178H66.6056V12.0178ZM66.6056 18V18.1H66.7056V18H66.6056ZM66.01 18V12.0178H65.81V18H66.01ZM65.91 12.1178H66.6056V11.9178H65.91V12.1178ZM66.5056 12.0178V18H66.7056V12.0178H66.5056ZM66.6056 17.9H65.91V18.1H66.6056V17.9ZM70.0918 18V18.1H70.1918V18H70.0918ZM69.3962 18H69.2962V18.1H69.3962V18ZM69.3962 12.6357H69.4962V12.5357H69.3962V12.6357ZM67.5017 12.6357H67.4017V12.7357H67.5017V12.6357ZM67.5017 12.0178V11.9178H67.4017V12.0178H67.5017ZM71.9864 12.0178H72.0864V11.9178H71.9864V12.0178ZM71.9864 12.6357V12.7357H72.0864V12.6357H71.9864ZM70.0918 12.6357V12.5357H69.9918V12.6357H70.0918ZM70.0918 17.9H69.3962V18.1H70.0918V17.9ZM69.4962 18V12.6357H69.2962V18H69.4962ZM69.3962 12.5357H67.5017V12.7357H69.3962V12.5357ZM67.6017 12.6357V12.0178H67.4017V12.6357H67.6017ZM67.5017 12.1178H71.9864V11.9178H67.5017V12.1178ZM71.8864 12.0178V12.6357H72.0864V12.0178H71.8864ZM71.9864 12.5357H70.0918V12.7357H71.9864V12.5357ZM69.9918 12.6357V18H70.1918V12.6357H69.9918ZM79.5316 17.2594L79.4568 17.1931L79.4566 17.1933L79.5316 17.2594ZM75.4726 17.2758L75.3976 17.342L75.398 17.3424L75.4726 17.2758ZM75.4767 12.7298L75.5511 12.7966L75.5512 12.7964L75.4767 12.7298ZM76.0086 16.8461L75.9312 16.9094L75.9316 16.91L76.0086 16.8461ZM79.0161 13.1717L78.9381 13.2343L78.9386 13.2349L79.0161 13.1717ZM76.0086 13.1758L75.9314 13.1121L75.9314 13.1122L76.0086 13.1758ZM80.16 15.0007C80.16 15.9414 79.9217 16.6681 79.4568 17.1931L79.6065 17.3257C80.1127 16.7541 80.36 15.975 80.36 15.0007H80.16ZM79.4566 17.1933C78.9962 17.7161 78.3533 17.9818 77.5144 17.9818V18.1818C78.3994 18.1818 79.1014 17.8993 79.6067 17.3255L79.4566 17.1933ZM77.5144 17.9818C76.6549 17.9818 76.0041 17.7206 75.5471 17.2091L75.398 17.3424C75.9012 17.9056 76.6117 18.1818 77.5144 18.1818V17.9818ZM75.5475 17.2095C75.0913 16.6934 74.8565 15.9591 74.8565 14.9925H74.6565C74.6565 15.9901 74.899 16.7779 75.3976 17.342L75.5475 17.2095ZM74.8565 14.9925C74.8565 14.0345 75.0925 13.3072 75.5511 12.7966L75.4022 12.663C74.9006 13.2216 74.6565 14.0029 74.6565 14.9925H74.8565ZM75.5512 12.7964C76.0082 12.2849 76.6602 12.0237 77.5226 12.0237V11.8237C76.6172 11.8237 75.9054 12.0998 75.4021 12.6631L75.5512 12.7964ZM77.5226 12.0237C78.3588 12.0237 79.0004 12.2881 79.4608 12.8083L79.6106 12.6758C79.1053 12.1049 78.4048 11.8237 77.5226 11.8237V12.0237ZM79.4608 12.8083C79.9229 13.3304 80.16 14.057 80.16 15.0007H80.36C80.36 14.024 80.1142 13.2448 79.6106 12.6758L79.4608 12.8083ZM75.393 15.0007C75.393 15.823 75.5672 16.4645 75.9312 16.9094L76.086 16.7828C75.7626 16.3875 75.593 15.7988 75.593 15.0007H75.393ZM75.9316 16.91C76.3011 17.3551 76.8341 17.5722 77.5144 17.5722V17.3722C76.8798 17.3722 76.4089 17.1719 76.0855 16.7822L75.9316 16.91ZM77.5144 17.5722C78.1996 17.5722 78.7321 17.3553 79.0937 16.9091L78.9384 16.7831C78.6235 17.1717 78.1548 17.3722 77.5144 17.3722V17.5722ZM79.0937 16.9091C79.4522 16.4668 79.6234 15.8253 79.6234 15.0007H79.4234C79.4234 15.8019 79.2564 16.3907 78.9384 16.7831L79.0937 16.9091ZM79.6234 15.0007C79.6234 14.1841 79.4521 13.548 79.0935 13.1085L78.9386 13.2349C79.2565 13.6246 79.4234 14.2079 79.4234 15.0007H79.6234ZM79.094 13.109C78.7351 12.6626 78.2052 12.4456 77.5226 12.4456V12.6456C78.1602 12.6456 78.626 12.846 78.9381 13.2343L79.094 13.109ZM77.5226 12.4456C76.837 12.4456 76.301 12.664 75.9314 13.1121L76.0857 13.2394C76.4091 12.8473 76.8824 12.6456 77.5226 12.6456V12.4456ZM75.9314 13.1122C75.5673 13.5543 75.393 14.189 75.393 15.0007H75.593C75.593 14.2139 75.7624 13.632 76.0858 13.2393L75.9314 13.1122ZM86.2708 18V18.1H86.3708V18H86.2708ZM85.477 18L85.3932 18.0546L85.4228 18.1H85.477V18ZM82.2077 12.9794L82.2915 12.9248L82.2619 12.8794H82.2077V12.9794ZM82.1749 12.9794V12.8794H82.0672L82.0752 12.9868L82.1749 12.9794ZM82.2404 18V18.1H82.3404V18H82.2404ZM81.598 18H81.498V18.1H81.598V18ZM81.598 12.0178V11.9178H81.498V12.0178H81.598ZM82.3836 12.0178L82.4674 11.9632L82.4378 11.9178H82.3836V12.0178ZM85.6448 17.018L85.561 17.0726L85.5906 17.118H85.6448V17.018ZM85.6775 17.018V17.118H85.7852L85.7772 17.0106L85.6775 17.018ZM85.6407 16.3101L85.5408 16.3148L85.5408 16.3149L85.6407 16.3101ZM85.6202 15.4508L85.7202 15.454V15.4508H85.6202ZM85.6202 12.0178V11.9178H85.5202V12.0178H85.6202ZM86.2708 12.0178H86.3708V11.9178H86.2708V12.0178ZM86.2708 17.9H85.477V18.1H86.2708V17.9ZM85.5608 17.9454L82.2915 12.9248L82.1239 13.0339L85.3932 18.0546L85.5608 17.9454ZM82.2077 12.8794H82.1749V13.0794H82.2077V12.8794ZM82.0752 12.9868C82.1187 13.574 82.1404 14.1116 82.1404 14.5997H82.3404C82.3404 14.1058 82.3184 13.5632 82.2747 12.972L82.0752 12.9868ZM82.1404 14.5997V18H82.3404V14.5997H82.1404ZM82.2404 17.9H81.598V18.1H82.2404V17.9ZM81.698 18V12.0178H81.498V18H81.698ZM81.598 12.1178H82.3836V11.9178H81.598V12.1178ZM82.2998 12.0724L85.561 17.0726L85.7285 16.9633L82.4674 11.9632L82.2998 12.0724ZM85.6448 17.118H85.6775V16.918H85.6448V17.118ZM85.7772 17.0106C85.7719 16.9386 85.7597 16.7043 85.7406 16.3053L85.5408 16.3149C85.5599 16.7124 85.5722 16.9501 85.5778 17.0254L85.7772 17.0106ZM85.7406 16.3053C85.7215 15.9044 85.7149 15.6215 85.7202 15.454L85.5203 15.4476C85.5147 15.6238 85.5217 15.9137 85.5408 16.3148L85.7406 16.3053ZM85.7202 15.4508V12.0178H85.5202V15.4508H85.7202ZM85.6202 12.1178H86.2708V11.9178H85.6202V12.1178ZM86.1708 12.0178V18H86.3708V12.0178H86.1708Z" fill="white"/>
<path d="M74.6411 26.1299C73.7985 26.1319 72.9755 26.3836 72.276 26.8534C71.5766 27.3231 71.0321 27.9897 70.7115 28.7689C70.3909 29.5481 70.3086 30.4048 70.4749 31.2308C70.6412 32.0567 71.0487 32.8148 71.6459 33.4092C72.2431 34.0036 73.0031 34.4075 73.8298 34.57C74.6566 34.7324 75.5129 34.646 76.2906 34.3218C77.0682 33.9975 77.7322 33.4499 78.1987 32.7483C78.6651 32.0466 78.9131 31.2224 78.9111 30.3799C78.9192 29.8178 78.8142 29.2599 78.6022 28.7392C78.3903 28.2186 78.0757 27.7459 77.6773 27.3494C77.2789 26.9528 76.8048 26.6405 76.2832 26.431C75.7615 26.2215 75.2031 26.1191 74.6411 26.1299ZM74.6411 32.9599C74.1247 32.996 73.6093 32.8759 73.162 32.6153C72.7148 32.3546 72.3562 31.9654 72.1331 31.4983C71.9099 31.0312 71.8325 30.5078 71.9108 29.996C71.989 29.4843 72.2194 29.008 72.572 28.6289C72.9246 28.2499 73.3831 27.9857 73.8878 27.8707C74.3926 27.7556 74.9203 27.7951 75.4023 27.984C75.8843 28.1728 76.2983 28.5023 76.5906 28.9296C76.8828 29.3569 77.0398 29.8622 77.0411 30.3799C77.0572 30.7079 77.0074 31.0358 76.8948 31.3443C76.7822 31.6528 76.6089 31.9356 76.3852 32.1761C76.1615 32.4165 75.892 32.6098 75.5924 32.7444C75.2929 32.879 74.9694 32.9523 74.6411 32.9599ZM65.3211 26.1299C64.4785 26.1319 63.6555 26.3836 62.956 26.8534C62.2566 27.3231 61.7121 27.9897 61.3915 28.7689C61.0709 29.5481 60.9886 30.4048 61.1549 31.2308C61.3212 32.0567 61.7287 32.8148 62.3259 33.4092C62.9231 34.0036 63.6831 34.4075 64.5098 34.57C65.3366 34.7324 66.1929 34.646 66.9706 34.3218C67.7482 33.9975 68.4122 33.4499 68.8787 32.7483C69.3451 32.0466 69.593 31.2224 69.5911 30.3799C69.5992 29.8178 69.4942 29.2599 69.2822 28.7392C69.0703 28.2186 68.7557 27.7459 68.3573 27.3494C67.9589 26.9528 67.4848 26.6405 66.9632 26.431C66.4415 26.2215 65.8831 26.1191 65.3211 26.1299ZM65.3211 32.9599C64.8047 32.996 64.2893 32.8759 63.842 32.6153C63.3948 32.3546 63.0363 31.9654 62.8131 31.4983C62.5899 31.0312 62.5125 30.5078 62.5908 29.996C62.669 29.4843 62.8995 29.008 63.252 28.6289C63.6046 28.2499 64.0631 27.9857 64.5678 27.8707C65.0726 27.7556 65.6003 27.7951 66.0823 27.984C66.5643 28.1728 66.9783 28.5023 67.2706 28.9296C67.5628 29.3569 67.7198 29.8622 67.7211 30.3799C67.7372 30.7079 67.6874 31.0358 67.5748 31.3443C67.4622 31.6528 67.2889 31.9356 67.0652 32.1761C66.8415 32.4165 66.572 32.6098 66.2724 32.7444C65.9729 32.879 65.6494 32.9523 65.3211 32.9599ZM54.2411 27.4399V29.2399H58.5611C58.4933 30.0877 58.1409 30.8877 57.5611 31.5099C57.1277 31.9514 56.6065 32.297 56.0312 32.5244C55.4558 32.7518 54.8392 32.8559 54.2211 32.8299C52.948 32.8299 51.7271 32.3242 50.827 31.424C49.9268 30.5238 49.4211 29.3029 49.4211 28.0299C49.4211 26.7568 49.9268 25.5359 50.827 24.6358C51.7271 23.7356 52.948 23.2299 54.2211 23.2299C55.4415 23.2117 56.62 23.6752 57.5011 24.5199L58.7711 23.2499C58.1751 22.6604 57.4674 22.1958 56.6895 21.8833C55.9117 21.5707 55.0793 21.4166 54.2411 21.4299C53.3521 21.3953 52.4652 21.5405 51.6337 21.8569C50.8022 22.1732 50.043 22.6541 49.4018 23.2709C48.7606 23.8876 48.2505 24.6275 47.9021 25.4461C47.5536 26.2647 47.374 27.1452 47.374 28.0349C47.374 28.9246 47.5536 29.8051 47.9021 30.6237C48.2505 31.4423 48.7606 32.1821 49.4018 32.7989C50.043 33.4156 50.8022 33.8966 51.6337 34.2129C52.4652 34.5293 53.3521 34.6745 54.2411 34.6399C55.0965 34.674 55.9495 34.5269 56.744 34.208C57.5385 33.8892 58.2566 33.4059 58.8511 32.7899C59.9012 31.6363 60.4607 30.1191 60.4111 28.5599C60.4147 28.1846 60.3845 27.8098 60.3211 27.4399H54.2411ZM99.5511 28.8399C99.2903 28.0726 98.8026 27.4027 98.1526 26.9187C97.5026 26.4348 96.7209 26.1597 95.9111 26.1299C95.3641 26.1288 94.8227 26.2399 94.3203 26.4564C93.818 26.6729 93.3654 26.9901 92.9905 27.3884C92.6156 27.7867 92.3263 28.2577 92.1407 28.7723C91.955 29.2868 91.8769 29.8339 91.9111 30.3799C91.9025 31.2927 92.1895 32.1839 92.7292 32.9201C93.2689 33.6564 94.0323 34.1984 94.9053 34.465C95.7784 34.7317 96.7143 34.7087 97.5733 34.3996C98.4322 34.0905 99.1681 33.5117 99.6711 32.7499L98.2211 31.7499C98.0049 32.1102 97.6983 32.4077 97.3317 32.6129C96.9651 32.8181 96.5512 32.924 96.1311 32.9199C95.6976 32.9378 95.2689 32.8241 94.9013 32.5939C94.5336 32.3637 94.2442 32.0276 94.0711 31.6299L99.7611 29.2799L99.5511 28.8399ZM93.7511 30.2599C93.7308 29.9493 93.7727 29.6377 93.8744 29.3435C93.976 29.0493 94.1353 28.7783 94.343 28.5464C94.5506 28.3145 94.8025 28.1264 95.0838 27.9931C95.365 27.8597 95.6701 27.7839 95.9811 27.7699C96.3033 27.7502 96.6241 27.8261 96.9034 27.9879C97.1827 28.1498 97.408 28.3905 97.5511 28.6799L93.7511 30.2599ZM89.1311 34.3799H91.0011V21.8799H89.1311V34.3799ZM86.0711 27.0799H86.0011C85.7217 26.7617 85.377 26.5077 84.9904 26.3351C84.6038 26.1625 84.1844 26.0754 83.7611 26.0799C82.6683 26.1329 81.6377 26.6043 80.883 27.3965C80.1284 28.1886 79.7074 29.2408 79.7074 30.3349C79.7074 31.429 80.1284 32.4811 80.883 33.2733C81.6377 34.0655 82.6683 34.5369 83.7611 34.5899C84.185 34.5984 84.6057 34.5132 84.9929 34.3403C85.3801 34.1674 85.7243 33.9112 86.0011 33.5899H86.0711V34.1999C86.0711 35.8299 85.2011 36.6999 83.8011 36.6999C83.3334 36.6896 82.8793 36.5406 82.4965 36.2717C82.1137 36.0029 81.8194 35.6263 81.6511 35.1899L80.0311 35.8599C80.3306 36.6121 80.8513 37.2558 81.5245 37.7057C82.1976 38.1557 82.9915 38.3908 83.8011 38.3799C85.9911 38.3799 87.8011 37.0899 87.8011 33.9499V26.3799H86.0711V27.0799ZM83.9211 32.9599C83.2659 32.919 82.6509 32.63 82.2014 32.1515C81.7519 31.6731 81.5016 31.0413 81.5016 30.3849C81.5016 29.7284 81.7519 29.0966 82.2014 28.6182C82.6509 28.1398 83.2659 27.8507 83.9211 27.8099C84.2413 27.8237 84.5555 27.9018 84.8449 28.0395C85.1344 28.1772 85.3932 28.3718 85.6059 28.6116C85.8186 28.8513 85.9809 29.1315 86.0832 29.4352C86.1854 29.739 86.2255 30.0603 86.2011 30.3799C86.2284 30.7006 86.1903 31.0235 86.0892 31.329C85.9882 31.6346 85.8262 31.9165 85.613 32.1577C85.3999 32.3988 85.1401 32.5943 84.8493 32.7322C84.5584 32.8701 84.2427 32.9475 83.9211 32.9599ZM108.311 21.8799H103.831V34.3799H105.701V29.6399H108.311C108.844 29.6782 109.379 29.6063 109.883 29.4286C110.387 29.251 110.849 28.9714 111.24 28.6074C111.631 28.2433 111.943 27.8026 112.156 27.3127C112.37 26.8228 112.48 26.2942 112.48 25.7599C112.48 25.2256 112.37 24.697 112.156 24.207C111.943 23.7171 111.631 23.2764 111.24 22.9124C110.849 22.5484 110.387 22.2688 109.883 22.0912C109.379 21.9135 108.844 21.8416 108.311 21.8799ZM108.311 27.8799H105.701V23.6199H108.351C108.632 23.6199 108.91 23.6752 109.17 23.7828C109.43 23.8903 109.666 24.048 109.864 24.2467C110.063 24.4454 110.221 24.6813 110.328 24.9409C110.436 25.2006 110.491 25.4789 110.491 25.7599C110.491 26.0409 110.436 26.3192 110.328 26.5788C110.221 26.8385 110.063 27.0744 109.864 27.2731C109.666 27.4718 109.43 27.6294 109.17 27.737C108.91 27.8445 108.632 27.8999 108.351 27.8999L108.311 27.8799ZM119.851 26.0899C119.17 26.0479 118.492 26.2064 117.9 26.5459C117.308 26.8854 116.829 27.3909 116.521 27.9999L118.171 28.6899C118.338 28.3893 118.588 28.1434 118.891 27.9819C119.195 27.8204 119.539 27.7503 119.881 27.7799C120.118 27.7522 120.359 27.772 120.589 27.8382C120.818 27.9044 121.032 28.0157 121.219 28.1656C121.405 28.3155 121.559 28.5009 121.673 28.7111C121.787 28.9213 121.857 29.1521 121.881 29.3899V29.5099C121.28 29.1938 120.61 29.029 119.931 29.0299C118.151 29.0299 116.331 30.0299 116.331 31.8499C116.349 32.2367 116.444 32.6161 116.611 32.9654C116.778 33.3148 117.014 33.627 117.304 33.8835C117.594 34.14 117.932 34.3356 118.3 34.4587C118.667 34.5817 119.055 34.6298 119.441 34.5999C119.91 34.6258 120.378 34.5265 120.796 34.3121C121.215 34.0978 121.568 33.776 121.821 33.3799H121.881V34.3799H123.681V29.5699C123.681 27.3799 122.021 26.1099 119.891 26.1099L119.851 26.0899ZM119.621 32.9399C119.011 32.9399 118.161 32.6299 118.161 31.8799C118.161 30.8799 119.221 30.5399 120.161 30.5399C120.755 30.5252 121.342 30.6703 121.861 30.9599C121.798 31.503 121.541 32.0049 121.136 32.3726C120.732 32.7403 120.208 32.949 119.661 32.9599L119.621 32.9399ZM130.241 26.3799L128.101 31.7999H128.041L125.821 26.3799H123.821L127.151 33.9599L125.251 38.1699H127.201L132.321 26.3799H130.241ZM113.441 34.3799H115.301V21.8799H113.441V34.3799Z" fill="white"/>
<path d="M27.2213 23.7998L16.5714 35.0998C16.6877 35.5272 16.9007 35.9221 17.194 36.2541C17.4873 36.5861 17.8529 36.8462 18.2627 37.0144C18.6725 37.1825 19.1154 37.2542 19.5574 37.224C19.9993 37.1937 20.4283 37.0623 20.8113 36.8398L32.8114 29.9198L27.2213 23.7998Z" fill="#EA4335"/>
<path d="M37.991 21.8799L32.811 18.8799L26.991 24.0699L32.831 29.9199L37.981 26.9199C38.4388 26.6747 38.8215 26.3099 39.0883 25.8643C39.3551 25.4188 39.496 24.9092 39.496 24.3899C39.496 23.8706 39.3551 23.361 39.0883 22.9154C38.8215 22.4699 38.4388 22.1051 37.981 21.8599L37.991 21.8799Z" fill="#FBBC04"/>
<path d="M16.571 13.6602C16.5181 13.8964 16.4946 14.1382 16.501 14.3802V34.3802C16.5028 34.6301 16.5364 34.8787 16.601 35.1202L27.601 24.1202L16.571 13.6602Z" fill="#4285F4"/>
<path d="M27.301 24.3795L32.811 18.8695L20.811 11.9295C20.3602 11.6615 19.8455 11.5199 19.321 11.5195C18.6884 11.5213 18.0738 11.7307 17.5716 12.1155C17.0694 12.5002 16.7074 13.0392 16.541 13.6495L27.301 24.3795Z" fill="#34A853"/>
</svg>
