<svg width="242" height="7" viewBox="0 0 242 7" fill="none" xmlns="http://www.w3.org/2000/svg">
<g id="Group 5053">
<g id="Group 5003">
<circle id="Ellipse 80" cx="1" cy="1" r="1" fill="#FF7446"/>
<circle id="Ellipse 81" cx="1" cy="6" r="1" fill="#FF7446"/>
</g>
<g id="Group 5004">
<circle id="Ellipse 80_2" cx="6" cy="1" r="1" fill="#FF7446"/>
<circle id="Ellipse 81_2" cx="6" cy="6" r="1" fill="#FF7446"/>
</g>
<g id="Group 5005">
<circle id="Ellipse 80_3" cx="11" cy="1" r="1" fill="#FF7446"/>
<circle id="Ellipse 81_3" cx="11" cy="6" r="1" fill="#FF7446"/>
</g>
<g id="Group 5006">
<circle id="Ellipse 80_4" cx="16" cy="1" r="1" fill="#FF7446"/>
<circle id="Ellipse 81_4" cx="16" cy="6" r="1" fill="#FF7446"/>
</g>
<g id="Group 5007">
<circle id="Ellipse 80_5" cx="21" cy="1" r="1" fill="#FF7446"/>
<circle id="Ellipse 81_5" cx="21" cy="6" r="1" fill="#FF7446"/>
</g>
<g id="Group 5008">
<circle id="Ellipse 80_6" cx="26" cy="1" r="1" fill="#FF7446"/>
<circle id="Ellipse 81_6" cx="26" cy="6" r="1" fill="#FF7446"/>
</g>
<g id="Group 5009">
<circle id="Ellipse 80_7" cx="31" cy="1" r="1" fill="#FF7446"/>
<circle id="Ellipse 81_7" cx="31" cy="6" r="1" fill="#FF7446"/>
</g>
<g id="Group 5010">
<circle id="Ellipse 80_8" cx="36" cy="1" r="1" fill="#FF7446"/>
<circle id="Ellipse 81_8" cx="36" cy="6" r="1" fill="#FF7446"/>
</g>
<g id="Group 5011">
<circle id="Ellipse 80_9" cx="41" cy="1" r="1" fill="#FF7446"/>
<circle id="Ellipse 81_9" cx="41" cy="6" r="1" fill="#FF7446"/>
</g>
<g id="Group 5012">
<circle id="Ellipse 80_10" cx="46" cy="1" r="1" fill="#FF7446"/>
<circle id="Ellipse 81_10" cx="46" cy="6" r="1" fill="#FF7446"/>
</g>
<g id="Group 5013">
<circle id="Ellipse 80_11" cx="51" cy="1" r="1" fill="#FF7446"/>
<circle id="Ellipse 81_11" cx="51" cy="6" r="1" fill="#FF7446"/>
</g>
<g id="Group 5014">
<circle id="Ellipse 80_12" cx="56" cy="1" r="1" fill="#FF7446"/>
<circle id="Ellipse 81_12" cx="56" cy="6" r="1" fill="#FF7446"/>
</g>
<g id="Group 5015">
<circle id="Ellipse 80_13" cx="61" cy="1" r="1" fill="#FF7446"/>
<circle id="Ellipse 81_13" cx="61" cy="6" r="1" fill="#FF7446"/>
</g>
<g id="Group 5016">
<circle id="Ellipse 80_14" cx="66" cy="1" r="1" fill="#FF7446"/>
<circle id="Ellipse 81_14" cx="66" cy="6" r="1" fill="#FF7446"/>
</g>
<g id="Group 5017">
<circle id="Ellipse 80_15" cx="71" cy="1" r="1" fill="#FF7446"/>
<circle id="Ellipse 81_15" cx="71" cy="6" r="1" fill="#FF7446"/>
</g>
<g id="Group 5018">
<circle id="Ellipse 80_16" cx="76" cy="1" r="1" fill="#FF7446"/>
<circle id="Ellipse 81_16" cx="76" cy="6" r="1" fill="#FF7446"/>
</g>
<g id="Group 5019">
<circle id="Ellipse 80_17" cx="81" cy="1" r="1" fill="#FF7446"/>
<circle id="Ellipse 81_17" cx="81" cy="6" r="1" fill="#FF7446"/>
</g>
<g id="Group 5020">
<circle id="Ellipse 80_18" cx="86" cy="1" r="1" fill="#FF7446"/>
<circle id="Ellipse 81_18" cx="86" cy="6" r="1" fill="#FF7446"/>
</g>
<g id="Group 5021">
<circle id="Ellipse 80_19" cx="91" cy="1" r="1" fill="#FF7446"/>
<circle id="Ellipse 81_19" cx="91" cy="6" r="1" fill="#FF7446"/>
</g>
<g id="Group 5022">
<circle id="Ellipse 80_20" cx="96" cy="1" r="1" fill="#FF7446"/>
<circle id="Ellipse 81_20" cx="96" cy="6" r="1" fill="#FF7446"/>
</g>
<g id="Group 5023">
<circle id="Ellipse 80_21" cx="101" cy="1" r="1" fill="#FF7446"/>
<circle id="Ellipse 81_21" cx="101" cy="6" r="1" fill="#FF7446"/>
</g>
<g id="Group 5024">
<circle id="Ellipse 80_22" cx="106" cy="1" r="1" fill="#FF7446"/>
<circle id="Ellipse 81_22" cx="106" cy="6" r="1" fill="#FF7446"/>
</g>
<g id="Group 5025">
<circle id="Ellipse 80_23" cx="111" cy="1" r="1" fill="#FF7446"/>
<circle id="Ellipse 81_23" cx="111" cy="6" r="1" fill="#FF7446"/>
</g>
<g id="Group 5026">
<circle id="Ellipse 80_24" cx="116" cy="1" r="1" fill="#FF7446"/>
<circle id="Ellipse 81_24" cx="116" cy="6" r="1" fill="#FF7446"/>
</g>
<g id="Group 5027">
<circle id="Ellipse 80_25" cx="121" cy="1" r="1" fill="#FF7446"/>
<circle id="Ellipse 81_25" cx="121" cy="6" r="1" fill="#FF7446"/>
</g>
<g id="Group 5028">
<circle id="Ellipse 80_26" cx="126" cy="1" r="1" fill="#FF7446"/>
<circle id="Ellipse 81_26" cx="126" cy="6" r="1" fill="#FF7446"/>
</g>
<g id="Group 5029">
<circle id="Ellipse 80_27" cx="131" cy="1" r="1" fill="#FF7446"/>
<circle id="Ellipse 81_27" cx="131" cy="6" r="1" fill="#FF7446"/>
</g>
<g id="Group 5030">
<circle id="Ellipse 80_28" cx="136" cy="1" r="1" fill="#FF7446"/>
<circle id="Ellipse 81_28" cx="136" cy="6" r="1" fill="#FF7446"/>
</g>
<g id="Group 5031">
<circle id="Ellipse 80_29" cx="141" cy="1" r="1" fill="#FF7446"/>
<circle id="Ellipse 81_29" cx="141" cy="6" r="1" fill="#FF7446"/>
</g>
<g id="Group 5032">
<circle id="Ellipse 80_30" cx="146" cy="1" r="1" fill="#FF7446"/>
<circle id="Ellipse 81_30" cx="146" cy="6" r="1" fill="#FF7446"/>
</g>
<g id="Group 5033">
<circle id="Ellipse 80_31" cx="151" cy="1" r="1" fill="#FF7446"/>
<circle id="Ellipse 81_31" cx="151" cy="6" r="1" fill="#FF7446"/>
</g>
<g id="Group 5034">
<circle id="Ellipse 80_32" cx="156" cy="1" r="1" fill="#FF7446"/>
<circle id="Ellipse 81_32" cx="156" cy="6" r="1" fill="#FF7446"/>
</g>
<g id="Group 5035">
<circle id="Ellipse 80_33" cx="161" cy="1" r="1" fill="#FF7446"/>
<circle id="Ellipse 81_33" cx="161" cy="6" r="1" fill="#FF7446"/>
</g>
<g id="Group 5036">
<circle id="Ellipse 80_34" cx="166" cy="1" r="1" fill="#FF7446"/>
<circle id="Ellipse 81_34" cx="166" cy="6" r="1" fill="#FF7446"/>
</g>
<g id="Group 5037">
<circle id="Ellipse 80_35" cx="171" cy="1" r="1" fill="#FF7446"/>
<circle id="Ellipse 81_35" cx="171" cy="6" r="1" fill="#FF7446"/>
</g>
<g id="Group 5038">
<circle id="Ellipse 80_36" cx="176" cy="1" r="1" fill="#FF7446"/>
<circle id="Ellipse 81_36" cx="176" cy="6" r="1" fill="#FF7446"/>
</g>
<g id="Group 5039">
<circle id="Ellipse 80_37" cx="181" cy="1" r="1" fill="#FF7446"/>
<circle id="Ellipse 81_37" cx="181" cy="6" r="1" fill="#FF7446"/>
</g>
<g id="Group 5040">
<circle id="Ellipse 80_38" cx="186" cy="1" r="1" fill="#FF7446"/>
<circle id="Ellipse 81_38" cx="186" cy="6" r="1" fill="#FF7446"/>
</g>
<g id="Group 5041">
<circle id="Ellipse 80_39" cx="191" cy="1" r="1" fill="#FF7446"/>
<circle id="Ellipse 81_39" cx="191" cy="6" r="1" fill="#FF7446"/>
</g>
<g id="Group 5042">
<circle id="Ellipse 80_40" cx="196" cy="1" r="1" fill="#FF7446"/>
<circle id="Ellipse 81_40" cx="196" cy="6" r="1" fill="#FF7446"/>
</g>
<g id="Group 5043">
<circle id="Ellipse 80_41" cx="201" cy="1" r="1" fill="#FF7446"/>
<circle id="Ellipse 81_41" cx="201" cy="6" r="1" fill="#FF7446"/>
</g>
<g id="Group 5044">
<circle id="Ellipse 80_42" cx="206" cy="1" r="1" fill="#FF7446"/>
<circle id="Ellipse 81_42" cx="206" cy="6" r="1" fill="#FF7446"/>
</g>
<g id="Group 5045">
<circle id="Ellipse 80_43" cx="211" cy="1" r="1" fill="#FF7446"/>
<circle id="Ellipse 81_43" cx="211" cy="6" r="1" fill="#FF7446"/>
</g>
<g id="Group 5046">
<circle id="Ellipse 80_44" cx="216" cy="1" r="1" fill="#FF7446"/>
<circle id="Ellipse 81_44" cx="216" cy="6" r="1" fill="#FF7446"/>
</g>
<g id="Group 5047">
<circle id="Ellipse 80_45" cx="221" cy="1" r="1" fill="#FF7446"/>
<circle id="Ellipse 81_45" cx="221" cy="6" r="1" fill="#FF7446"/>
</g>
<g id="Group 5048">
<circle id="Ellipse 80_46" cx="226" cy="1" r="1" fill="#FF7446"/>
<circle id="Ellipse 81_46" cx="226" cy="6" r="1" fill="#FF7446"/>
</g>
<g id="Group 5049">
<circle id="Ellipse 80_47" cx="231" cy="1" r="1" fill="#FF7446"/>
<circle id="Ellipse 81_47" cx="231" cy="6" r="1" fill="#FF7446"/>
</g>
<g id="Group 5050">
<circle id="Ellipse 80_48" cx="236" cy="1" r="1" fill="#FF7446"/>
<circle id="Ellipse 81_48" cx="236" cy="6" r="1" fill="#FF7446"/>
</g>
<g id="Group 5051">
<circle id="Ellipse 80_49" cx="241" cy="1" r="1" fill="#FF7446"/>
<circle id="Ellipse 81_49" cx="241" cy="6" r="1" fill="#FF7446"/>
</g>
</g>
</svg>
