<svg width="40" height="39" viewBox="0 0 40 39" fill="none" xmlns="http://www.w3.org/2000/svg">
<g id="Group 5091">
<circle id="Ellipse 90" cx="2" cy="1.5" r="1.5" fill="white" fill-opacity="0.1"/>
<circle id="Ellipse 96" cx="2" cy="7.5" r="1.5" fill="white" fill-opacity="0.1"/>
<circle id="Ellipse 112" cx="2" cy="25.5" r="1.5" fill="white" fill-opacity="0.1"/>
<circle id="Ellipse 121" cx="2" cy="31.5" r="1.5" fill="white" fill-opacity="0.1"/>
<circle id="Ellipse 132" cx="2" cy="37.5" r="1.5" fill="white" fill-opacity="0.1"/>
<circle id="Ellipse 102" cx="2" cy="13.5" r="1.5" fill="white"/>
<circle id="Ellipse 108" cx="2" cy="19.5" r="1.5" fill="white" fill-opacity="0.1"/>
<circle id="Ellipse 116" cx="26" cy="25.5" r="1.5" transform="rotate(-90 26 25.5)" fill="white"/>
<circle id="Ellipse 126" cx="32" cy="25.5" r="1.5" transform="rotate(-90 32 25.5)" fill="white" fill-opacity="0.1"/>
<circle id="Ellipse 138" cx="38" cy="25.5" r="1.5" transform="rotate(-90 38 25.5)" fill="white" fill-opacity="0.1"/>
<ellipse id="Ellipse 122" cx="26" cy="31.5" rx="1.5" ry="1.5" transform="rotate(-90 26 31.5)" fill="white" fill-opacity="0.1"/>
<ellipse id="Ellipse 133" cx="26" cy="37.5" rx="1.5" ry="1.5" transform="rotate(-90 26 37.5)" fill="white" fill-opacity="0.1"/>
<ellipse id="Ellipse 127" cx="32" cy="31.5" rx="1.5" ry="1.5" transform="rotate(-90 32 31.5)" fill="white" fill-opacity="0.1"/>
<ellipse id="Ellipse 139" cx="38" cy="31.5" rx="1.5" ry="1.5" transform="rotate(-90 38 31.5)" fill="white" fill-opacity="0.1"/>
<ellipse id="Ellipse 134" cx="32" cy="37.5" rx="1.5" ry="1.5" transform="rotate(-90 32 37.5)" fill="white" fill-opacity="0.1"/>
<ellipse id="Ellipse 140" cx="38" cy="37.5" rx="1.5" ry="1.5" transform="rotate(-90 38 37.5)" fill="white" fill-opacity="0.1"/>
<circle id="Ellipse 91" cx="8" cy="1.5" r="1.5" fill="white" fill-opacity="0.1"/>
<circle id="Ellipse 97" cx="8" cy="7.5" r="1.5" fill="white"/>
<circle id="Ellipse 113" cx="8" cy="25.5" r="1.5" fill="white" fill-opacity="0.1"/>
<circle id="Ellipse 123" cx="8" cy="31.5" r="1.5" fill="white" fill-opacity="0.1"/>
<circle id="Ellipse 135" cx="8" cy="37.5" r="1.5" fill="white" fill-opacity="0.1"/>
<circle id="Ellipse 103" cx="8" cy="13.5" r="1.5" fill="white"/>
<circle id="Ellipse 109" cx="8" cy="19.5" r="1.5" fill="white"/>
<ellipse id="Ellipse 117" cx="26" cy="19.5" rx="1.5" ry="1.5" transform="rotate(-90 26 19.5)" fill="white"/>
<ellipse id="Ellipse 128" cx="32" cy="19.5" rx="1.5" ry="1.5" transform="rotate(-90 32 19.5)" fill="white"/>
<ellipse id="Ellipse 141" cx="38" cy="19.5" rx="1.5" ry="1.5" transform="rotate(-90 38 19.5)" fill="white" fill-opacity="0.1"/>
<circle id="Ellipse 92" cx="14" cy="1.5" r="1.5" fill="white" fill-opacity="0.1"/>
<circle id="Ellipse 98" cx="14" cy="7.5" r="1.5" fill="white"/>
<circle id="Ellipse 114" cx="14" cy="25.5" r="1.5" fill="white"/>
<circle id="Ellipse 124" cx="14" cy="31.5" r="1.5" fill="white" fill-opacity="0.1"/>
<circle id="Ellipse 136" cx="14" cy="37.5" r="1.5" fill="white" fill-opacity="0.1"/>
<circle id="Ellipse 104" cx="14" cy="13.5" r="1.5" fill="white"/>
<circle id="Ellipse 110" cx="14" cy="19.5" r="1.5" fill="white"/>
<ellipse id="Ellipse 118" cx="26" cy="13.5" rx="1.5" ry="1.5" transform="rotate(-90 26 13.5)" fill="white"/>
<ellipse id="Ellipse 129" cx="32" cy="13.5" rx="1.5" ry="1.5" transform="rotate(-90 32 13.5)" fill="white"/>
<ellipse id="Ellipse 142" cx="38" cy="13.5" rx="1.5" ry="1.5" transform="rotate(-90 38 13.5)" fill="white"/>
<circle id="Ellipse 93" cx="20" cy="1.5" r="1.5" fill="white" fill-opacity="0.1"/>
<circle id="Ellipse 111" cx="20" cy="19.5" r="1.5" fill="white"/>
<ellipse id="Ellipse 119" cx="26" cy="7.5" rx="1.5" ry="1.5" transform="rotate(-90 26 7.5)" fill="white"/>
<ellipse id="Ellipse 130" cx="32" cy="7.5" rx="1.5" ry="1.5" transform="rotate(-90 32 7.5)" fill="white"/>
<ellipse id="Ellipse 143" cx="38" cy="7.5" rx="1.5" ry="1.5" transform="rotate(-90 38 7.5)" fill="white" fill-opacity="0.1"/>
<circle id="Ellipse 120" cx="26" cy="1.5" r="1.5" transform="rotate(-90 26 1.5)" fill="white" fill-opacity="0.1"/>
<circle id="Ellipse 131" cx="32" cy="1.5" r="1.5" transform="rotate(-90 32 1.5)" fill="white" fill-opacity="0.1"/>
<circle id="Ellipse 144" cx="38" cy="1.5" r="1.5" transform="rotate(-90 38 1.5)" fill="white" fill-opacity="0.1"/>
<circle id="Ellipse 99" cx="20" cy="7.5" r="1.5" fill="white"/>
<circle id="Ellipse 115" cx="20" cy="25.5" r="1.5" fill="white"/>
<circle id="Ellipse 125" cx="20" cy="31.5" r="1.5" fill="white"/>
<circle id="Ellipse 137" cx="20" cy="37.5" r="1.5" fill="white" fill-opacity="0.1"/>
<circle id="Ellipse 105" cx="20" cy="13.5" r="1.5" fill="white"/>
</g>
</svg>
