<svg width="40" height="39" viewBox="0 0 40 39" fill="none" xmlns="http://www.w3.org/2000/svg">
<g id="Group 5092">
<circle id="Ellipse 145" opacity="0.1" cx="2" cy="1.5" r="1.5" fill="white"/>
<circle id="Ellipse 146" opacity="0.1" cx="2" cy="7.5" r="1.5" fill="white"/>
<circle id="Ellipse 147" opacity="0.1" cx="2" cy="25.5" r="1.5" fill="white"/>
<circle id="Ellipse 148" cx="2" cy="31.5" r="1.5" fill="white" fill-opacity="0.1"/>
<circle id="Ellipse 149" cx="2" cy="37.5" r="1.5" fill="white" fill-opacity="0.1"/>
<circle id="Ellipse 150" opacity="0.1" cx="2" cy="13.5" r="1.5" fill="white"/>
<circle id="Ellipse 151" opacity="0.1" cx="2" cy="19.5" r="1.5" fill="white"/>
<circle id="Ellipse 152" cx="26" cy="25.5" r="1.5" transform="rotate(-90 26 25.5)" fill="white"/>
<circle id="Ellipse 153" cx="32" cy="25.5" r="1.5" transform="rotate(-90 32 25.5)" fill="white"/>
<circle id="Ellipse 154" opacity="0.1" cx="38" cy="25.5" r="1.5" transform="rotate(-90 38 25.5)" fill="white"/>
<ellipse id="Ellipse 155" cx="26" cy="31.5" rx="1.5" ry="1.5" transform="rotate(-90 26 31.5)" fill="white"/>
<ellipse id="Ellipse 156" opacity="0.1" cx="26" cy="37.5" rx="1.5" ry="1.5" transform="rotate(-90 26 37.5)" fill="white"/>
<ellipse id="Ellipse 157" cx="32" cy="31.5" rx="1.5" ry="1.5" transform="rotate(-90 32 31.5)" fill="white"/>
<ellipse id="Ellipse 158" cx="38" cy="31.5" rx="1.5" ry="1.5" transform="rotate(-90 38 31.5)" fill="white" fill-opacity="0.1"/>
<ellipse id="Ellipse 159" cx="32" cy="37.5" rx="1.5" ry="1.5" transform="rotate(-90 32 37.5)" fill="white" fill-opacity="0.1"/>
<ellipse id="Ellipse 160" cx="38" cy="37.5" rx="1.5" ry="1.5" transform="rotate(-90 38 37.5)" fill="white" fill-opacity="0.1"/>
<circle id="Ellipse 161" opacity="0.1" cx="8" cy="1.5" r="1.5" fill="white"/>
<circle id="Ellipse 162" opacity="0.1" cx="8" cy="7.5" r="1.5" fill="white"/>
<circle id="Ellipse 163" cx="8" cy="25.5" r="1.5" fill="white"/>
<circle id="Ellipse 164" cx="8" cy="31.5" r="1.5" fill="white"/>
<circle id="Ellipse 165" cx="8" cy="37.5" r="1.5" fill="white" fill-opacity="0.1"/>
<circle id="Ellipse 166" cx="8" cy="13.5" r="1.5" fill="white"/>
<circle id="Ellipse 167" cx="8" cy="19.5" r="1.5" fill="white"/>
<ellipse id="Ellipse 168" cx="26" cy="19.5" rx="1.5" ry="1.5" transform="rotate(-90 26 19.5)" fill="white"/>
<ellipse id="Ellipse 169" cx="32" cy="19.5" rx="1.5" ry="1.5" transform="rotate(-90 32 19.5)" fill="white"/>
<ellipse id="Ellipse 170" opacity="0.1" cx="38" cy="19.5" rx="1.5" ry="1.5" transform="rotate(-90 38 19.5)" fill="white"/>
<circle id="Ellipse 171" opacity="0.1" cx="14" cy="1.5" r="1.5" fill="white"/>
<circle id="Ellipse 172" cx="14" cy="7.5" r="1.5" fill="white"/>
<circle id="Ellipse 173" cx="14" cy="25.5" r="1.5" fill="white"/>
<circle id="Ellipse 174" cx="14" cy="31.5" r="1.5" fill="white"/>
<circle id="Ellipse 175" opacity="0.1" cx="14" cy="37.5" r="1.5" fill="white"/>
<circle id="Ellipse 176" cx="14" cy="13.5" r="1.5" fill="white"/>
<circle id="Ellipse 177" opacity="0.1" cx="14" cy="19.5" r="1.5" fill="white"/>
<ellipse id="Ellipse 178" cx="26" cy="13.5" rx="1.5" ry="1.5" transform="rotate(-90 26 13.5)" fill="white"/>
<ellipse id="Ellipse 179" cx="32" cy="13.5" rx="1.5" ry="1.5" transform="rotate(-90 32 13.5)" fill="white"/>
<ellipse id="Ellipse 180" opacity="0.1" cx="38" cy="13.5" rx="1.5" ry="1.5" transform="rotate(-90 38 13.5)" fill="white"/>
<circle id="Ellipse 181" opacity="0.1" cx="20" cy="1.5" r="1.5" fill="white"/>
<circle id="Ellipse 182" cx="20" cy="19.5" r="1.5" fill="white"/>
<ellipse id="Ellipse 183" cx="26" cy="7.5" rx="1.5" ry="1.5" transform="rotate(-90 26 7.5)" fill="white"/>
<ellipse id="Ellipse 184" opacity="0.1" cx="32" cy="7.5" rx="1.5" ry="1.5" transform="rotate(-90 32 7.5)" fill="white"/>
<ellipse id="Ellipse 185" opacity="0.1" cx="38" cy="7.5" rx="1.5" ry="1.5" transform="rotate(-90 38 7.5)" fill="white"/>
<circle id="Ellipse 186" opacity="0.1" cx="26" cy="1.5" r="1.5" transform="rotate(-90 26 1.5)" fill="white"/>
<circle id="Ellipse 187" opacity="0.1" cx="32" cy="1.5" r="1.5" transform="rotate(-90 32 1.5)" fill="white"/>
<circle id="Ellipse 188" opacity="0.1" cx="38" cy="1.5" r="1.5" transform="rotate(-90 38 1.5)" fill="white"/>
<circle id="Ellipse 189" opacity="0.1" cx="20" cy="7.5" r="1.5" fill="white"/>
<circle id="Ellipse 190" cx="20" cy="25.5" r="1.5" fill="white"/>
<circle id="Ellipse 191" cx="20" cy="31.5" r="1.5" fill="white"/>
<circle id="Ellipse 192" opacity="0.1" cx="20" cy="37.5" r="1.5" fill="white"/>
<circle id="Ellipse 193" cx="20" cy="13.5" r="1.5" fill="white"/>
</g>
</svg>
