<svg width="39" height="39" viewBox="0 0 39 39" fill="none" xmlns="http://www.w3.org/2000/svg">
<g id="Group 5090">
<circle id="Ellipse 145" opacity="0.1" cx="1.5" cy="1.5" r="1.5" fill="white"/>
<circle id="Ellipse 146" cx="1.5" cy="7.5" r="1.5" fill="white"/>
<circle id="Ellipse 147" cx="1.5" cy="25.5" r="1.5" fill="white"/>
<circle id="Ellipse 148" cx="1.5" cy="31.5" r="1.5" fill="white" fill-opacity="0.1"/>
<circle id="Ellipse 149" cx="1.5" cy="37.5" r="1.5" fill="white" fill-opacity="0.1"/>
<circle id="Ellipse 150" cx="1.5" cy="13.5" r="1.5" fill="white"/>
<circle id="Ellipse 151" cx="1.5" cy="19.5" r="1.5" fill="white"/>
<circle id="Ellipse 152" cx="25.5" cy="25.5" r="1.5" transform="rotate(-90 25.5 25.5)" fill="white"/>
<circle id="Ellipse 153" cx="31.5" cy="25.5" r="1.5" transform="rotate(-90 31.5 25.5)" fill="white"/>
<circle id="Ellipse 154" cx="37.5" cy="25.5" r="1.5" transform="rotate(-90 37.5 25.5)" fill="white"/>
<ellipse id="Ellipse 155" cx="25.5" cy="31.5" rx="1.5" ry="1.5" transform="rotate(-90 25.5 31.5)" fill="white" fill-opacity="0.1"/>
<ellipse id="Ellipse 156" cx="25.5" cy="37.5" rx="1.5" ry="1.5" transform="rotate(-90 25.5 37.5)" fill="white"/>
<ellipse id="Ellipse 157" cx="31.5" cy="31.5" rx="1.5" ry="1.5" transform="rotate(-90 31.5 31.5)" fill="white" fill-opacity="0.1"/>
<ellipse id="Ellipse 158" cx="37.5" cy="31.5" rx="1.5" ry="1.5" transform="rotate(-90 37.5 31.5)" fill="white" fill-opacity="0.1"/>
<ellipse id="Ellipse 159" cx="31.5" cy="37.5" rx="1.5" ry="1.5" transform="rotate(-90 31.5 37.5)" fill="white" fill-opacity="0.1"/>
<ellipse id="Ellipse 160" cx="37.5" cy="37.5" rx="1.5" ry="1.5" transform="rotate(-90 37.5 37.5)" fill="white" fill-opacity="0.1"/>
<circle id="Ellipse 161" opacity="0.1" cx="7.5" cy="1.5" r="1.5" fill="white"/>
<circle id="Ellipse 162" cx="7.5" cy="7.5" r="1.5" fill="white"/>
<circle id="Ellipse 163" cx="7.5" cy="25.5" r="1.5" fill="white"/>
<circle id="Ellipse 164" cx="7.5" cy="31.5" r="1.5" fill="white" fill-opacity="0.1"/>
<circle id="Ellipse 165" cx="7.5" cy="37.5" r="1.5" fill="white" fill-opacity="0.1"/>
<circle id="Ellipse 166" cx="7.5" cy="13.5" r="1.5" fill="white"/>
<circle id="Ellipse 167" cx="7.5" cy="19.5" r="1.5" fill="white"/>
<ellipse id="Ellipse 168" cx="25.5" cy="19.5" rx="1.5" ry="1.5" transform="rotate(-90 25.5 19.5)" fill="white"/>
<ellipse id="Ellipse 169" cx="31.5" cy="19.5" rx="1.5" ry="1.5" transform="rotate(-90 31.5 19.5)" fill="white"/>
<ellipse id="Ellipse 170" cx="37.5" cy="19.5" rx="1.5" ry="1.5" transform="rotate(-90 37.5 19.5)" fill="white"/>
<circle id="Ellipse 171" opacity="0.1" cx="13.5" cy="1.5" r="1.5" fill="white"/>
<circle id="Ellipse 172" cx="13.5" cy="7.5" r="1.5" fill="white"/>
<circle id="Ellipse 173" cx="13.5" cy="25.5" r="1.5" fill="white"/>
<circle id="Ellipse 174" cx="13.5" cy="31.5" r="1.5" fill="white" fill-opacity="0.1"/>
<circle id="Ellipse 175" cx="13.5" cy="37.5" r="1.5" fill="white"/>
<circle id="Ellipse 176" cx="13.5" cy="13.5" r="1.5" fill="white"/>
<circle id="Ellipse 177" cx="13.5" cy="19.5" r="1.5" fill="white"/>
<ellipse id="Ellipse 178" cx="25.5" cy="13.5" rx="1.5" ry="1.5" transform="rotate(-90 25.5 13.5)" fill="white"/>
<ellipse id="Ellipse 179" cx="31.5" cy="13.5" rx="1.5" ry="1.5" transform="rotate(-90 31.5 13.5)" fill="white"/>
<ellipse id="Ellipse 180" cx="37.5" cy="13.5" rx="1.5" ry="1.5" transform="rotate(-90 37.5 13.5)" fill="white"/>
<circle id="Ellipse 181" opacity="0.1" cx="19.5" cy="1.5" r="1.5" fill="white"/>
<circle id="Ellipse 182" cx="19.5" cy="19.5" r="1.5" fill="white"/>
<ellipse id="Ellipse 183" cx="25.5" cy="7.5" rx="1.5" ry="1.5" transform="rotate(-90 25.5 7.5)" fill="white"/>
<ellipse id="Ellipse 184" cx="31.5" cy="7.5" rx="1.5" ry="1.5" transform="rotate(-90 31.5 7.5)" fill="white"/>
<ellipse id="Ellipse 185" cx="37.5" cy="7.5" rx="1.5" ry="1.5" transform="rotate(-90 37.5 7.5)" fill="white"/>
<circle id="Ellipse 186" opacity="0.1" cx="25.5" cy="1.5" r="1.5" transform="rotate(-90 25.5 1.5)" fill="white"/>
<circle id="Ellipse 187" opacity="0.1" cx="31.5" cy="1.5" r="1.5" transform="rotate(-90 31.5 1.5)" fill="white"/>
<circle id="Ellipse 188" opacity="0.1" cx="37.5" cy="1.5" r="1.5" transform="rotate(-90 37.5 1.5)" fill="white"/>
<circle id="Ellipse 189" cx="19.5" cy="7.5" r="1.5" fill="white"/>
<circle id="Ellipse 190" cx="19.5" cy="25.5" r="1.5" fill="white"/>
<circle id="Ellipse 191" opacity="0.1" cx="19.5" cy="31.5" r="1.5" fill="white"/>
<circle id="Ellipse 192" cx="19.5" cy="37.5" r="1.5" fill="white"/>
<circle id="Ellipse 193" cx="19.5" cy="13.5" r="1.5" fill="white"/>
</g>
</svg>
