<svg width="46" height="45" viewBox="0 0 46 45" fill="none" xmlns="http://www.w3.org/2000/svg">
<circle cx="2" cy="1.5" r="1.5" fill="#FFE8DF"/>
<circle cx="2" cy="19.5" r="1.5" fill="#FFE8DF"/>
<circle cx="2" cy="7.5" r="1.5" fill="#FFE8DF"/>
<circle cx="2" cy="25.5" r="1.5" fill="#FFE8DF"/>
<circle cx="2" cy="37.5" r="1.5" fill="#FFE8DF"/>
<circle cx="2" cy="13.5" r="1.5" fill="#FFE8DF"/>
<circle cx="2" cy="31.5" r="1.5" fill="#FFE8DF"/>
<circle cx="2" cy="43.5" r="1.5" fill="#FF7446"/>
<circle cx="8" cy="1.5" r="1.5" fill="#FFE8DF"/>
<circle cx="8" cy="19.5" r="1.5" fill="#FFE8DF"/>
<circle cx="8" cy="7.5" r="1.5" fill="#FFE8DF"/>
<circle cx="8" cy="25.5" r="1.5" fill="#FFE8DF"/>
<circle cx="8" cy="37.5" r="1.5" fill="#FFE8DF"/>
<circle cx="8" cy="13.5" r="1.5" fill="#FFE8DF"/>
<circle cx="8" cy="31.5" r="1.5" fill="#FF7446"/>
<circle cx="8" cy="43.5" r="1.5" fill="#FF7446"/>
<circle cx="14" cy="1.5" r="1.5" fill="#FFE8DF"/>
<circle cx="14" cy="19.5" r="1.5" fill="#FFE8DF"/>
<circle cx="14" cy="7.5" r="1.5" fill="#FF7446"/>
<circle cx="14" cy="25.5" r="1.5" fill="#FF7446"/>
<circle cx="14" cy="37.5" r="1.5" fill="#FFE8DF"/>
<circle cx="14" cy="13.5" r="1.5" fill="#FF7446"/>
<circle cx="14" cy="31.5" r="1.5" fill="#FF7446"/>
<circle cx="14" cy="43.5" r="1.5" fill="#FF7446"/>
<circle cx="20" cy="1.5" r="1.5" fill="#FF7446"/>
<circle cx="20" cy="19.5" r="1.5" fill="#FF7446"/>
<circle cx="20" cy="7.5" r="1.5" fill="#FF7446"/>
<circle cx="20" cy="25.5" r="1.5" fill="#FF7446"/>
<circle cx="20" cy="37.5" r="1.5" fill="#FFE8DF"/>
<circle cx="20" cy="13.5" r="1.5" fill="#FF7446"/>
<circle cx="20" cy="31.5" r="1.5" fill="#FF7446"/>
<circle cx="20" cy="43.5" r="1.5" fill="#FF7446"/>
<circle cx="26" cy="1.5" r="1.5" fill="#FF7446"/>
<circle cx="26" cy="19.5" r="1.5" fill="#FF7446"/>
<circle cx="26" cy="7.5" r="1.5" fill="#FF7446"/>
<circle cx="26" cy="25.5" r="1.5" fill="#FF7446"/>
<circle cx="26" cy="37.5" r="1.5" fill="#FFE8DF"/>
<circle cx="26" cy="13.5" r="1.5" fill="#FF7446"/>
<circle cx="26" cy="31.5" r="1.5" fill="#FF7446"/>
<circle cx="26" cy="43.5" r="1.5" fill="#FF7446"/>
<circle cx="32" cy="1.5" r="1.5" fill="#FFE8DF"/>
<circle cx="32" cy="19.5" r="1.5" fill="#FFE8DF"/>
<circle cx="32" cy="7.5" r="1.5" fill="#FF7446"/>
<circle cx="32" cy="25.5" r="1.5" fill="#FF7446"/>
<circle cx="32" cy="37.5" r="1.5" fill="#FFE8DF"/>
<circle cx="32" cy="13.5" r="1.5" fill="#FF7446"/>
<circle cx="32" cy="31.5" r="1.5" fill="#FF7446"/>
<circle cx="32" cy="43.5" r="1.5" fill="#FF7446"/>
<circle cx="38" cy="1.5" r="1.5" fill="#FFE8DF"/>
<circle cx="38" cy="19.5" r="1.5" fill="#FFE8DF"/>
<circle cx="38" cy="7.5" r="1.5" fill="#FFE8DF"/>
<circle cx="38" cy="25.5" r="1.5" fill="#FFE8DF"/>
<circle cx="38" cy="37.5" r="1.5" fill="#FFE8DF"/>
<circle cx="38" cy="13.5" r="1.5" fill="#FFE8DF"/>
<circle cx="38" cy="31.5" r="1.5" fill="#FF7446"/>
<circle cx="38" cy="43.5" r="1.5" fill="#FF7446"/>
<circle cx="44" cy="1.5" r="1.5" fill="#FFE8DF"/>
<circle cx="44" cy="19.5" r="1.5" fill="#FFE8DF"/>
<circle cx="44" cy="7.5" r="1.5" fill="#FFE8DF"/>
<circle cx="44" cy="25.5" r="1.5" fill="#FFE8DF"/>
<circle cx="44" cy="37.5" r="1.5" fill="#FFE8DF"/>
<circle cx="44" cy="13.5" r="1.5" fill="#FFE8DF"/>
<circle cx="44" cy="31.5" r="1.5" fill="#FFE8DF"/>
<circle cx="44" cy="43.5" r="1.5" fill="#FF7446"/>
</svg>
