<svg width="46" height="45" viewBox="0 0 46 45" fill="none" xmlns="http://www.w3.org/2000/svg">
<g id="guest-recept">
<circle id="Ellipse 1667" cx="2" cy="1.5" r="1.5" fill="#FFE8DF"/>
<circle id="Ellipse 1668" cx="2" cy="19.5" r="1.5" fill="#FFE8DF"/>
<circle id="Ellipse 1669" cx="2" cy="7.5" r="1.5" fill="#FFE8DF"/>
<circle id="Ellipse 1670" cx="2" cy="25.5" r="1.5" fill="#FFE8DF"/>
<circle id="Ellipse 1671" cx="2" cy="37.5" r="1.5" fill="#FFE8DF"/>
<circle id="Ellipse 1672" cx="2" cy="13.5" r="1.5" fill="#FFE8DF"/>
<circle id="Ellipse 1673" cx="2" cy="31.5" r="1.5" fill="#FFE8DF"/>
<circle id="Ellipse 1674" cx="2" cy="43.5" r="1.5" fill="#FF7446"/>
<circle id="Ellipse 1675" cx="8" cy="1.5" r="1.5" fill="#FFE8DF"/>
<circle id="Ellipse 1676" cx="8" cy="19.5" r="1.5" fill="#FFE8DF"/>
<circle id="Ellipse 1677" cx="8" cy="7.5" r="1.5" fill="#FFE8DF"/>
<circle id="Ellipse 1678" cx="8" cy="25.5" r="1.5" fill="#FFE8DF"/>
<circle id="Ellipse 1679" cx="8" cy="37.5" r="1.5" fill="#FFE8DF"/>
<circle id="Ellipse 1680" cx="8" cy="13.5" r="1.5" fill="#FFE8DF"/>
<circle id="Ellipse 1681" cx="8" cy="31.5" r="1.5" fill="#FF7446"/>
<circle id="Ellipse 1682" cx="8" cy="43.5" r="1.5" fill="#FF7446"/>
<circle id="Ellipse 1683" cx="14" cy="1.5" r="1.5" fill="#FFE8DF"/>
<circle id="Ellipse 1684" cx="14" cy="19.5" r="1.5" fill="#FFE8DF"/>
<circle id="Ellipse 1685" cx="14" cy="7.5" r="1.5" fill="#FF7446"/>
<circle id="Ellipse 1686" cx="14" cy="25.5" r="1.5" fill="#FF7446"/>
<circle id="Ellipse 1687" cx="14" cy="37.5" r="1.5" fill="#FFE8DF"/>
<circle id="Ellipse 1688" cx="14" cy="13.5" r="1.5" fill="#FF7446"/>
<circle id="Ellipse 1689" cx="14" cy="31.5" r="1.5" fill="#FF7446"/>
<circle id="Ellipse 1690" cx="14" cy="43.5" r="1.5" fill="#FF7446"/>
<circle id="Ellipse 1691" cx="20" cy="1.5" r="1.5" fill="#FF7446"/>
<circle id="Ellipse 1692" cx="20" cy="19.5" r="1.5" fill="#FF7446"/>
<circle id="Ellipse 1693" cx="20" cy="7.5" r="1.5" fill="#FF7446"/>
<circle id="Ellipse 1694" cx="20" cy="25.5" r="1.5" fill="#FF7446"/>
<circle id="Ellipse 1695" cx="20" cy="37.5" r="1.5" fill="#FFE8DF"/>
<circle id="Ellipse 1696" cx="20" cy="13.5" r="1.5" fill="#FF7446"/>
<circle id="Ellipse 1697" cx="20" cy="31.5" r="1.5" fill="#FF7446"/>
<circle id="Ellipse 1698" cx="20" cy="43.5" r="1.5" fill="#FF7446"/>
<circle id="Ellipse 1699" cx="26" cy="1.5" r="1.5" fill="#FF7446"/>
<circle id="Ellipse 1700" cx="26" cy="19.5" r="1.5" fill="#FF7446"/>
<circle id="Ellipse 1701" cx="26" cy="7.5" r="1.5" fill="#FF7446"/>
<circle id="Ellipse 1702" cx="26" cy="25.5" r="1.5" fill="#FF7446"/>
<circle id="Ellipse 1703" cx="26" cy="37.5" r="1.5" fill="#FFE8DF"/>
<circle id="Ellipse 1704" cx="26" cy="13.5" r="1.5" fill="#FF7446"/>
<circle id="Ellipse 1705" cx="26" cy="31.5" r="1.5" fill="#FF7446"/>
<circle id="Ellipse 1706" cx="26" cy="43.5" r="1.5" fill="#FF7446"/>
<circle id="Ellipse 1707" cx="32" cy="1.5" r="1.5" fill="#FFE8DF"/>
<circle id="Ellipse 1708" cx="32" cy="19.5" r="1.5" fill="#FFE8DF"/>
<circle id="Ellipse 1709" cx="32" cy="7.5" r="1.5" fill="#FF7446"/>
<circle id="Ellipse 1710" cx="32" cy="25.5" r="1.5" fill="#FF7446"/>
<circle id="Ellipse 1711" cx="32" cy="37.5" r="1.5" fill="#FFE8DF"/>
<circle id="Ellipse 1712" cx="32" cy="13.5" r="1.5" fill="#FF7446"/>
<circle id="Ellipse 1713" cx="32" cy="31.5" r="1.5" fill="#FF7446"/>
<circle id="Ellipse 1714" cx="32" cy="43.5" r="1.5" fill="#FF7446"/>
<circle id="Ellipse 1715" cx="38" cy="1.5" r="1.5" fill="#FFE8DF"/>
<circle id="Ellipse 1716" cx="38" cy="19.5" r="1.5" fill="#FFE8DF"/>
<circle id="Ellipse 1717" cx="38" cy="7.5" r="1.5" fill="#FFE8DF"/>
<circle id="Ellipse 1718" cx="38" cy="25.5" r="1.5" fill="#FFE8DF"/>
<circle id="Ellipse 1719" cx="38" cy="37.5" r="1.5" fill="#FFE8DF"/>
<circle id="Ellipse 1720" cx="38" cy="13.5" r="1.5" fill="#FFE8DF"/>
<circle id="Ellipse 1721" cx="38" cy="31.5" r="1.5" fill="#FF7446"/>
<circle id="Ellipse 1722" cx="38" cy="43.5" r="1.5" fill="#FF7446"/>
<circle id="Ellipse 1723" cx="44" cy="1.5" r="1.5" fill="#FFE8DF"/>
<circle id="Ellipse 1724" cx="44" cy="19.5" r="1.5" fill="#FFE8DF"/>
<circle id="Ellipse 1725" cx="44" cy="7.5" r="1.5" fill="#FFE8DF"/>
<circle id="Ellipse 1726" cx="44" cy="25.5" r="1.5" fill="#FFE8DF"/>
<circle id="Ellipse 1727" cx="44" cy="37.5" r="1.5" fill="#FFE8DF"/>
<circle id="Ellipse 1728" cx="44" cy="13.5" r="1.5" fill="#FFE8DF"/>
<circle id="Ellipse 1729" cx="44" cy="31.5" r="1.5" fill="#FFE8DF"/>
<circle id="Ellipse 1730" cx="44" cy="43.5" r="1.5" fill="#FF7446"/>
</g>
</svg>
