<svg width="45" height="45" viewBox="0 0 45 45" fill="none" xmlns="http://www.w3.org/2000/svg">
<g id="guest-registration-system">
<circle id="Ellipse 1475" cx="1.5" cy="1.5" r="1.5" fill="#FFE8DF"/>
<circle id="Ellipse 1476" cx="1.5" cy="19.5" r="1.5" fill="#FFE8DF"/>
<circle id="Ellipse 1477" cx="1.5" cy="7.5" r="1.5" fill="#FFE8DF"/>
<circle id="Ellipse 1478" cx="1.5" cy="25.5" r="1.5" fill="#FFE8DF"/>
<circle id="Ellipse 1479" cx="1.5" cy="37.5" r="1.5" fill="#FFE8DF"/>
<circle id="Ellipse 1480" cx="1.5" cy="13.5" r="1.5" fill="#FFE8DF"/>
<circle id="Ellipse 1481" cx="1.5" cy="31.5" r="1.5" fill="#FFE8DF"/>
<circle id="Ellipse 1482" cx="1.5" cy="43.5" r="1.5" fill="#FFE8DF"/>
<circle id="Ellipse 1483" cx="7.5" cy="1.5" r="1.5" fill="#FFE8DF"/>
<circle id="Ellipse 1484" cx="7.5" cy="19.5" r="1.5" fill="#FF7446"/>
<circle id="Ellipse 1485" cx="7.5" cy="7.5" r="1.5" fill="#FF7446"/>
<circle id="Ellipse 1486" cx="7.5" cy="25.5" r="1.5" fill="#FF7446"/>
<circle id="Ellipse 1487" cx="7.5" cy="37.5" r="1.5" fill="#FF7446"/>
<circle id="Ellipse 1488" cx="7.5" cy="13.5" r="1.5" fill="#FF7446"/>
<circle id="Ellipse 1489" cx="7.5" cy="31.5" r="1.5" fill="#FF7446"/>
<circle id="Ellipse 1490" cx="7.5" cy="43.5" r="1.5" fill="#FF7446"/>
<circle id="Ellipse 1491" cx="13.5" cy="1.5" r="1.5" fill="#FF7446"/>
<circle id="Ellipse 1492" cx="13.5" cy="19.5" r="1.5" fill="#FF7446"/>
<circle id="Ellipse 1493" cx="13.5" cy="7.5" r="1.5" fill="#FF7446"/>
<circle id="Ellipse 1494" cx="13.5" cy="25.5" r="1.5" fill="#FFE8DF"/>
<circle id="Ellipse 1495" cx="13.5" cy="37.5" r="1.5" fill="#FFE8DF"/>
<circle id="Ellipse 1496" cx="13.5" cy="13.5" r="1.5" fill="#FFE8DF"/>
<circle id="Ellipse 1497" cx="13.5" cy="31.5" r="1.5" fill="#FFE8DF"/>
<circle id="Ellipse 1498" cx="13.5" cy="43.5" r="1.5" fill="#FF7446"/>
<circle id="Ellipse 1499" cx="19.5" cy="1.5" r="1.5" fill="#FF7446"/>
<circle id="Ellipse 1500" cx="19.5" cy="19.5" r="1.5" fill="#FF7446"/>
<circle id="Ellipse 1501" cx="19.5" cy="7.5" r="1.5" fill="#FF7446"/>
<circle id="Ellipse 1502" cx="19.5" cy="25.5" r="1.5" fill="#FFE8DF"/>
<circle id="Ellipse 1503" cx="19.5" cy="37.5" r="1.5" fill="#FFE8DF"/>
<circle id="Ellipse 1504" cx="19.5" cy="13.5" r="1.5" fill="#FFE8DF"/>
<circle id="Ellipse 1505" cx="19.5" cy="31.5" r="1.5" fill="#FF7446"/>
<circle id="Ellipse 1506" cx="19.5" cy="43.5" r="1.5" fill="#FF7446"/>
<circle id="Ellipse 1507" cx="25.5" cy="1.5" r="1.5" fill="#FF7446"/>
<circle id="Ellipse 1508" cx="25.5" cy="19.5" r="1.5" fill="#FF7446"/>
<circle id="Ellipse 1509" cx="25.5" cy="7.5" r="1.5" fill="#FF7446"/>
<circle id="Ellipse 1510" cx="25.5" cy="25.5" r="1.5" fill="#FFE8DF"/>
<circle id="Ellipse 1511" cx="25.5" cy="37.5" r="1.5" fill="#FFE8DF"/>
<circle id="Ellipse 1512" cx="25.5" cy="13.5" r="1.5" fill="#FFE8DF"/>
<circle id="Ellipse 1513" cx="25.5" cy="31.5" r="1.5" fill="#FF7446"/>
<circle id="Ellipse 1514" cx="25.5" cy="43.5" r="1.5" fill="#FF7446"/>
<circle id="Ellipse 1515" cx="31.5" cy="1.5" r="1.5" fill="#FF7446"/>
<circle id="Ellipse 1516" cx="31.5" cy="19.5" r="1.5" fill="#FFE8DF"/>
<circle id="Ellipse 1517" cx="31.5" cy="7.5" r="1.5" fill="#FF7446"/>
<circle id="Ellipse 1518" cx="31.5" cy="25.5" r="1.5" fill="#FFE8DF"/>
<circle id="Ellipse 1519" cx="31.5" cy="37.5" r="1.5" fill="#FFE8DF"/>
<circle id="Ellipse 1520" cx="31.5" cy="13.5" r="1.5" fill="#FFE8DF"/>
<circle id="Ellipse 1521" cx="31.5" cy="31.5" r="1.5" fill="#FF7446"/>
<circle id="Ellipse 1522" cx="31.5" cy="43.5" r="1.5" fill="#FF7446"/>
<circle id="Ellipse 1523" cx="37.5" cy="1.5" r="1.5" fill="#FFE8DF"/>
<circle id="Ellipse 1524" cx="37.5" cy="19.5" r="1.5" fill="#FF7446"/>
<circle id="Ellipse 1525" cx="37.5" cy="7.5" r="1.5" fill="#FF7446"/>
<circle id="Ellipse 1526" cx="37.5" cy="25.5" r="1.5" fill="#FF7446"/>
<circle id="Ellipse 1527" cx="37.5" cy="37.5" r="1.5" fill="#FF7446"/>
<circle id="Ellipse 1528" cx="37.5" cy="13.5" r="1.5" fill="#FF7446"/>
<circle id="Ellipse 1529" cx="37.5" cy="31.5" r="1.5" fill="#FF7446"/>
<circle id="Ellipse 1530" cx="37.5" cy="43.5" r="1.5" fill="#FF7446"/>
<circle id="Ellipse 1531" cx="43.5" cy="1.5" r="1.5" fill="#FFE8DF"/>
<circle id="Ellipse 1532" cx="43.5" cy="19.5" r="1.5" fill="#FFE8DF"/>
<circle id="Ellipse 1533" cx="43.5" cy="7.5" r="1.5" fill="#FFE8DF"/>
<circle id="Ellipse 1534" cx="43.5" cy="25.5" r="1.5" fill="#FFE8DF"/>
<circle id="Ellipse 1535" cx="43.5" cy="37.5" r="1.5" fill="#FFE8DF"/>
<circle id="Ellipse 1536" cx="43.5" cy="13.5" r="1.5" fill="#FFE8DF"/>
<circle id="Ellipse 1537" cx="43.5" cy="31.5" r="1.5" fill="#FFE8DF"/>
<circle id="Ellipse 1538" cx="43.5" cy="43.5" r="1.5" fill="#FFE8DF"/>
</g>
</svg>
