<svg width="47" height="47" viewBox="0 0 47 47" fill="none" xmlns="http://www.w3.org/2000/svg">
<circle cx="1.9994" cy="7.69227" r="1.53846" fill="#FFE8DF"/>
<circle cx="1.9994" cy="26.1542" r="1.53846" fill="#FFE8DF"/>
<circle cx="1.9994" cy="32.308" r="1.53846" fill="#FFE8DF"/>
<circle cx="1.9994" cy="1.53846" r="1.53846" fill="#FFE8DF"/>
<circle cx="1.9994" cy="38.4618" r="1.53846" fill="#FFE8DF"/>
<circle cx="1.9994" cy="44.5385" r="1.53846" fill="#FFE8DF"/>
<circle cx="1.9994" cy="13.8461" r="1.53846" fill="#FF7446"/>
<circle cx="1.9994" cy="19.9999" r="1.53846" fill="#FF7446"/>
<circle cx="44.9994" cy="26.1539" r="1.53846" transform="rotate(-90 44.9994 26.1539)" fill="#FFE8DF"/>
<ellipse cx="26.6146" cy="1.53869" rx="1.53846" ry="1.53846" transform="rotate(-90 26.6146 1.53869)" fill="#FFE8DF"/>
<ellipse cx="20.4603" cy="1.53869" rx="1.53846" ry="1.53846" transform="rotate(-90 20.4603 1.53869)" fill="#FFE8DF"/>
<ellipse cx="26.6146" cy="44.5387" rx="1.53846" ry="1.53846" transform="rotate(-90 26.6146 44.5387)" fill="#FFE8DF"/>
<ellipse cx="32.7689" cy="1.53869" rx="1.53846" ry="1.53846" transform="rotate(-90 32.7689 1.53869)" fill="#FF7446"/>
<ellipse cx="44.9994" cy="32.3077" rx="1.53846" ry="1.53846" transform="rotate(-90 44.9994 32.3077)" fill="#FFE8DF"/>
<ellipse cx="38.9213" cy="1.53869" rx="1.53846" ry="1.53846" transform="rotate(-90 38.9213 1.53869)" fill="#FF7446"/>
<ellipse cx="44.9994" cy="1.53869" rx="1.53846" ry="1.53846" transform="rotate(-90 44.9994 1.53869)" fill="#FFE8DF"/>
<ellipse cx="32.7689" cy="44.5387" rx="1.53846" ry="1.53846" transform="rotate(-90 32.7689 44.5387)" fill="#FF7446"/>
<ellipse cx="44.9994" cy="38.4615" rx="1.53846" ry="1.53846" transform="rotate(-90 44.9994 38.4615)" fill="#FFE8DF"/>
<ellipse cx="38.9213" cy="44.5387" rx="1.53846" ry="1.53846" transform="rotate(-90 38.9213 44.5387)" fill="#FF7446"/>
<ellipse cx="44.9994" cy="44.5387" rx="1.53846" ry="1.53846" transform="rotate(-90 44.9994 44.5387)" fill="#FFE8DF"/>
<circle cx="8.1537" cy="7.69227" r="1.53846" fill="#FFE8DF"/>
<circle cx="8.1537" cy="1.53846" r="1.53846" fill="#FF7446"/>
<circle cx="8.1537" cy="44.5385" r="1.53846" fill="#FF7446"/>
<ellipse cx="44.9994" cy="20.0001" rx="1.53846" ry="1.53846" transform="rotate(-90 44.9994 20.0001)" fill="#FF7446"/>
<circle cx="14.308" cy="1.53846" r="1.53846" fill="#FF7446"/>
<circle cx="14.308" cy="44.5385" r="1.53846" fill="#FF7446"/>
<circle cx="14.308" cy="19.9999" r="1.53846" fill="#FF7446"/>
<ellipse cx="44.9994" cy="13.8463" rx="1.53846" ry="1.53846" transform="rotate(-90 44.9994 13.8463)" fill="#FF7446"/>
<ellipse cx="26.6146" cy="7.6925" rx="1.53846" ry="1.53846" transform="rotate(-90 26.6146 7.6925)" fill="#FF7446"/>
<ellipse cx="38.9213" cy="7.6925" rx="1.53846" ry="1.53846" transform="rotate(-90 38.9213 7.6925)" fill="#FFE8DF"/>
<ellipse cx="44.9994" cy="7.69201" rx="1.53846" ry="1.53846" transform="rotate(-90 44.9994 7.69201)" fill="#FFE8DF"/>
<circle cx="20.4603" cy="7.69227" r="1.53846" fill="#FF7446"/>
<circle cx="14.308" cy="26.1537" r="1.53846" fill="#FF7446"/>
<circle cx="20.4603" cy="19.9999" r="1.53846" fill="#FF7446"/>
<circle cx="20.4603" cy="26.1537" r="1.53846" fill="#FF7446"/>
<circle cx="20.4603" cy="44.5385" r="1.53846" fill="#FF7446"/>
<circle cx="26.6146" cy="26.1539" r="1.53846" transform="rotate(-90 26.6146 26.1539)" fill="#FFE8DF"/>
<circle cx="32.7689" cy="26.1539" r="1.53846" transform="rotate(-90 32.7689 26.1539)" fill="#FF7446"/>
<circle cx="38.9213" cy="26.1539" r="1.53846" transform="rotate(-90 38.9213 26.1539)" fill="#FF7446"/>
<ellipse cx="26.6146" cy="32.3077" rx="1.53846" ry="1.53846" transform="rotate(-90 26.6146 32.3077)" fill="#FFE8DF"/>
<ellipse cx="20.4603" cy="32.3077" rx="1.53846" ry="1.53846" transform="rotate(-90 20.4603 32.3077)" fill="#FF7446"/>
<ellipse cx="26.6146" cy="38.4615" rx="1.53846" ry="1.53846" transform="rotate(-90 26.6146 38.4615)" fill="#FFE8DF"/>
<ellipse cx="32.7689" cy="32.3077" rx="1.53846" ry="1.53846" transform="rotate(-90 32.7689 32.3077)" fill="#FF7446"/>
<ellipse cx="38.9213" cy="32.3077" rx="1.53846" ry="1.53846" transform="rotate(-90 38.9213 32.3077)" fill="#FF7446"/>
<ellipse cx="32.7689" cy="38.4615" rx="1.53846" ry="1.53846" transform="rotate(-90 32.7689 38.4615)" fill="#FF7446"/>
<ellipse cx="38.9213" cy="38.4615" rx="1.53846" ry="1.53846" transform="rotate(-90 38.9213 38.4615)" fill="#FF7446"/>
<circle cx="8.1537" cy="26.1537" r="1.53846" fill="#FF7446"/>
<circle cx="8.1537" cy="32.308" r="1.53846" fill="#FF7446"/>
<circle cx="8.1537" cy="38.4613" r="1.53846" fill="#FF7446"/>
<circle cx="8.1537" cy="13.8461" r="1.53846" fill="#FF7446"/>
<circle cx="8.1537" cy="19.9999" r="1.53846" fill="#FF7446"/>
<ellipse cx="26.6146" cy="20.0001" rx="1.53846" ry="1.53846" transform="rotate(-90 26.6146 20.0001)" fill="#FFE8DF"/>
<ellipse cx="32.7689" cy="20.0001" rx="1.53846" ry="1.53846" transform="rotate(-90 32.7689 20.0001)" fill="#FF7446"/>
<ellipse cx="38.9213" cy="20.0001" rx="1.53846" ry="1.53846" transform="rotate(-90 38.9213 20.0001)" fill="#FF7446"/>
<circle cx="14.308" cy="7.69227" r="1.53846" fill="#FF7446"/>
<circle cx="14.308" cy="32.308" r="1.53846" fill="#FF7446"/>
<circle cx="14.308" cy="38.4613" r="1.53846" fill="#FF7446"/>
<circle cx="14.308" cy="13.8461" r="1.53846" fill="#FF7446"/>
<ellipse cx="26.6146" cy="13.8463" rx="1.53846" ry="1.53846" transform="rotate(-90 26.6146 13.8463)" fill="#FF7446"/>
<ellipse cx="32.7689" cy="13.8463" rx="1.53846" ry="1.53846" transform="rotate(-90 32.7689 13.8463)" fill="#FF7446"/>
<ellipse cx="38.9213" cy="13.8463" rx="1.53846" ry="1.53846" transform="rotate(-90 38.9213 13.8463)" fill="#FF7446"/>
<ellipse cx="32.7689" cy="7.69201" rx="1.53846" ry="1.53846" transform="rotate(-90 32.7689 7.69201)" fill="#FF7446"/>
<circle cx="20.4603" cy="38.4613" r="1.53846" fill="#FF7446"/>
<circle cx="20.4603" cy="13.8461" r="1.53846" fill="#FF7446"/>
<circle cx="1.9994" cy="7.69227" r="1.53846" fill="#FFE8DF"/>
<circle cx="1.9994" cy="26.1542" r="1.53846" fill="#FFE8DF"/>
<circle cx="1.9994" cy="32.308" r="1.53846" fill="#FFE8DF"/>
<circle cx="1.9994" cy="1.53846" r="1.53846" fill="#FFE8DF"/>
<circle cx="1.9994" cy="38.4618" r="1.53846" fill="#FFE8DF"/>
<circle cx="1.9994" cy="44.5385" r="1.53846" fill="#FFE8DF"/>
<circle cx="1.9994" cy="13.8461" r="1.53846" fill="#FF7446"/>
<circle cx="1.9994" cy="19.9999" r="1.53846" fill="#FF7446"/>
<circle cx="44.9994" cy="26.1539" r="1.53846" transform="rotate(-90 44.9994 26.1539)" fill="#FFE8DF"/>
<ellipse cx="26.6146" cy="1.53869" rx="1.53846" ry="1.53846" transform="rotate(-90 26.6146 1.53869)" fill="#FFE8DF"/>
<ellipse cx="20.4603" cy="1.53869" rx="1.53846" ry="1.53846" transform="rotate(-90 20.4603 1.53869)" fill="#FFE8DF"/>
<ellipse cx="26.6146" cy="44.5387" rx="1.53846" ry="1.53846" transform="rotate(-90 26.6146 44.5387)" fill="#FFE8DF"/>
<ellipse cx="32.7689" cy="1.53869" rx="1.53846" ry="1.53846" transform="rotate(-90 32.7689 1.53869)" fill="#FF7446"/>
<ellipse cx="44.9994" cy="32.3077" rx="1.53846" ry="1.53846" transform="rotate(-90 44.9994 32.3077)" fill="#FFE8DF"/>
<ellipse cx="38.9213" cy="1.53869" rx="1.53846" ry="1.53846" transform="rotate(-90 38.9213 1.53869)" fill="#FF7446"/>
<ellipse cx="44.9994" cy="1.53869" rx="1.53846" ry="1.53846" transform="rotate(-90 44.9994 1.53869)" fill="#FFE8DF"/>
<ellipse cx="32.7689" cy="44.5387" rx="1.53846" ry="1.53846" transform="rotate(-90 32.7689 44.5387)" fill="#FF7446"/>
<ellipse cx="44.9994" cy="38.4615" rx="1.53846" ry="1.53846" transform="rotate(-90 44.9994 38.4615)" fill="#FFE8DF"/>
<ellipse cx="38.9213" cy="44.5387" rx="1.53846" ry="1.53846" transform="rotate(-90 38.9213 44.5387)" fill="#FF7446"/>
<ellipse cx="44.9994" cy="44.5387" rx="1.53846" ry="1.53846" transform="rotate(-90 44.9994 44.5387)" fill="#FFE8DF"/>
<circle cx="8.1537" cy="7.69227" r="1.53846" fill="#FFE8DF"/>
<circle cx="8.1537" cy="1.53846" r="1.53846" fill="#FF7446"/>
<circle cx="8.1537" cy="44.5385" r="1.53846" fill="#FF7446"/>
<ellipse cx="44.9994" cy="20.0001" rx="1.53846" ry="1.53846" transform="rotate(-90 44.9994 20.0001)" fill="#FF7446"/>
<circle cx="14.308" cy="1.53846" r="1.53846" fill="#FF7446"/>
<circle cx="14.308" cy="44.5385" r="1.53846" fill="#FF7446"/>
<circle cx="14.308" cy="19.9999" r="1.53846" fill="#FF7446"/>
<ellipse cx="44.9994" cy="13.8463" rx="1.53846" ry="1.53846" transform="rotate(-90 44.9994 13.8463)" fill="#FF7446"/>
<ellipse cx="26.6146" cy="7.6925" rx="1.53846" ry="1.53846" transform="rotate(-90 26.6146 7.6925)" fill="#FF7446"/>
<ellipse cx="38.9213" cy="7.6925" rx="1.53846" ry="1.53846" transform="rotate(-90 38.9213 7.6925)" fill="#FFE8DF"/>
<ellipse cx="44.9994" cy="7.69201" rx="1.53846" ry="1.53846" transform="rotate(-90 44.9994 7.69201)" fill="#FFE8DF"/>
<circle cx="20.4603" cy="7.69227" r="1.53846" fill="#FF7446"/>
<circle cx="14.308" cy="26.1537" r="1.53846" fill="#FF7446"/>
<circle cx="20.4603" cy="19.9999" r="1.53846" fill="#FF7446"/>
<circle cx="20.4603" cy="26.1537" r="1.53846" fill="#FF7446"/>
<circle cx="20.4603" cy="44.5385" r="1.53846" fill="#FF7446"/>
<circle cx="26.6146" cy="26.1539" r="1.53846" transform="rotate(-90 26.6146 26.1539)" fill="#FFE8DF"/>
<circle cx="32.7689" cy="26.1539" r="1.53846" transform="rotate(-90 32.7689 26.1539)" fill="#FF7446"/>
<circle cx="38.9213" cy="26.1539" r="1.53846" transform="rotate(-90 38.9213 26.1539)" fill="#FF7446"/>
<ellipse cx="26.6146" cy="32.3077" rx="1.53846" ry="1.53846" transform="rotate(-90 26.6146 32.3077)" fill="#FFE8DF"/>
<ellipse cx="20.4603" cy="32.3077" rx="1.53846" ry="1.53846" transform="rotate(-90 20.4603 32.3077)" fill="#FF7446"/>
<ellipse cx="26.6146" cy="38.4615" rx="1.53846" ry="1.53846" transform="rotate(-90 26.6146 38.4615)" fill="#FFE8DF"/>
<ellipse cx="32.7689" cy="32.3077" rx="1.53846" ry="1.53846" transform="rotate(-90 32.7689 32.3077)" fill="#FF7446"/>
<ellipse cx="38.9213" cy="32.3077" rx="1.53846" ry="1.53846" transform="rotate(-90 38.9213 32.3077)" fill="#FF7446"/>
<ellipse cx="32.7689" cy="38.4615" rx="1.53846" ry="1.53846" transform="rotate(-90 32.7689 38.4615)" fill="#FF7446"/>
<ellipse cx="38.9213" cy="38.4615" rx="1.53846" ry="1.53846" transform="rotate(-90 38.9213 38.4615)" fill="#FF7446"/>
<circle cx="8.1537" cy="26.1537" r="1.53846" fill="#FF7446"/>
<circle cx="8.1537" cy="32.308" r="1.53846" fill="#FF7446"/>
<circle cx="8.1537" cy="38.4613" r="1.53846" fill="#FF7446"/>
<circle cx="8.1537" cy="13.8461" r="1.53846" fill="#FF7446"/>
<circle cx="8.1537" cy="19.9999" r="1.53846" fill="#FF7446"/>
<ellipse cx="26.6146" cy="20.0001" rx="1.53846" ry="1.53846" transform="rotate(-90 26.6146 20.0001)" fill="#FFE8DF"/>
<ellipse cx="32.7689" cy="20.0001" rx="1.53846" ry="1.53846" transform="rotate(-90 32.7689 20.0001)" fill="#FF7446"/>
<ellipse cx="38.9213" cy="20.0001" rx="1.53846" ry="1.53846" transform="rotate(-90 38.9213 20.0001)" fill="#FF7446"/>
<circle cx="14.308" cy="7.69227" r="1.53846" fill="#FF7446"/>
<circle cx="14.308" cy="32.308" r="1.53846" fill="#FF7446"/>
<circle cx="14.308" cy="38.4613" r="1.53846" fill="#FF7446"/>
<circle cx="14.308" cy="13.8461" r="1.53846" fill="#FF7446"/>
<ellipse cx="26.6146" cy="13.8463" rx="1.53846" ry="1.53846" transform="rotate(-90 26.6146 13.8463)" fill="#FF7446"/>
<ellipse cx="32.7689" cy="13.8463" rx="1.53846" ry="1.53846" transform="rotate(-90 32.7689 13.8463)" fill="#FF7446"/>
<ellipse cx="38.9213" cy="13.8463" rx="1.53846" ry="1.53846" transform="rotate(-90 38.9213 13.8463)" fill="#FF7446"/>
<ellipse cx="32.7689" cy="7.69201" rx="1.53846" ry="1.53846" transform="rotate(-90 32.7689 7.69201)" fill="#FF7446"/>
<circle cx="20.4603" cy="38.4613" r="1.53846" fill="#FF7446"/>
<circle cx="20.4603" cy="13.8461" r="1.53846" fill="#FF7446"/>
</svg>
