<svg width="92" height="25" viewBox="0 0 92 25" fill="none" xmlns="http://www.w3.org/2000/svg">
<g id="scope" clip-path="url(#clip0_1471_2724)">
<path id="Vector" d="M89.7567 14.62H87.3181V18.9684H91.6215V14.62H89.7567Z" fill="#1E1E26"/>
<path id="Vector_2" d="M9.14803 8.15258C8.25579 7.88589 7.52994 7.75254 6.73812 7.51772C5.67948 7.22783 5.18602 6.71763 5.18602 5.85086C5.18602 4.98409 5.87743 4.34923 6.93607 4.34923C8.29021 4.34923 8.91851 5.14932 8.94433 6.5176H13.0125C12.9809 2.77802 10.7661 0.876343 7.03362 0.876343C3.49047 0.876343 0.988754 3.07951 0.988754 6.08277C0.988754 8.78744 2.21092 10.4572 4.65526 11.3588C5.53367 11.6706 6.42704 11.9377 7.33199 12.1589C8.55416 12.4922 9.08204 12.959 9.08204 13.9939C9.08204 15.0288 8.15824 15.5941 7.00206 15.5941C5.28069 15.5941 4.85322 14.4577 4.85322 13.1909H0.62153C0.526855 16.2985 2.056 19.2003 6.9332 19.2003C10.4018 19.2003 13.374 17.2986 13.374 13.6605C13.3768 10.4224 11.9883 9.02225 9.14803 8.15258Z" fill="#1E1E26"/>
<path id="Vector_3" d="M23.401 15.2288C20.8563 15.2288 18.6443 13.2604 18.6443 10.0572C18.6443 7.08578 20.4603 4.83913 23.3666 4.83913C24.0414 4.82938 24.7114 4.95503 25.3379 5.20881C25.9643 5.46259 26.5346 5.83946 27.0159 6.31757L29.5578 3.21285C28.4876 2.11127 26.5368 0.809662 23.335 0.809662C18.0476 0.809662 14.2175 4.88262 14.2175 10.0861C14.2175 15.2897 17.7836 19.267 23.3666 19.267C26.4048 19.267 28.4876 17.8987 29.5434 16.7652L27.0991 13.762C26.0908 14.7001 24.7717 15.2234 23.401 15.2288Z" fill="#1E1E26"/>
<path id="Vector_4" d="M38.4917 0.809662C33.1841 0.809662 29.2881 4.78116 29.2881 10.0861C29.2881 15.3911 32.9862 19.267 38.4917 19.267C43.9426 19.267 47.7411 15.2636 47.7411 10.0224C47.7411 4.78116 44.0861 0.809662 38.4917 0.809662ZM38.5261 15.2288C35.683 15.2288 33.7005 13.0604 33.7005 10.0572C33.7005 7.05389 35.5854 4.83913 38.4917 4.83913C41.3319 4.83913 43.3143 7.07709 43.3143 10.0572C43.3143 13.0372 41.4438 15.2288 38.5376 15.2288H38.5261Z" fill="#1E1E26"/>
<path id="Vector_5" d="M59.0275 0.809662C56.2188 0.809662 54.5032 1.91124 53.611 2.8128V1.09955H49.4137V24.8097H53.8405V17.5334C55.2537 18.68 57.0173 19.2949 58.8296 19.2728C64.4441 19.2728 67.8811 15.1679 67.8811 9.99628C67.8811 4.61592 64.3781 0.809662 59.0275 0.809662ZM58.5972 15.3042C55.6594 15.3042 53.72 13.101 53.72 10.0659C53.72 7.0307 55.559 4.78116 58.5742 4.78116C61.5149 4.78116 63.4514 7.01911 63.4514 10.0572C63.4514 13.0952 61.6038 15.3042 58.5972 15.3042Z" fill="#1E1E26"/>
<path id="Vector_6" d="M77.4749 0.809662C72.3452 0.809662 68.7877 4.74927 68.7877 10.0861C68.7877 15.7593 72.4858 19.2641 77.8392 19.2641C82.1426 19.2641 84.5095 16.8609 85.5682 14.6258L82.2976 12.6227C81.3738 14.0953 80.0914 15.3042 77.8392 15.3042C75.326 15.3042 73.6764 13.8692 73.444 11.5008H86.0674C86.1333 10.7326 86.1333 10.0977 86.1333 9.6629C86.1305 4.31443 82.7939 0.809662 77.4749 0.809662ZM73.5444 8.12069C73.7739 6.09146 75.1941 4.58113 77.4405 4.58113C79.8532 4.58113 81.3393 6.11755 81.5373 8.12069H73.5444Z" fill="#1E1E26"/>
</g>
<defs>
<clipPath id="clip0_1471_2724">
<rect width="91" height="24" fill="white" transform="translate(0.621582 0.809662)"/>
</clipPath>
</defs>
</svg>
