<svg width="121" height="32" viewBox="0 0 121 32" fill="none" xmlns="http://www.w3.org/2000/svg">
<g id="scopebigger" clip-path="url(#clip0_2163_31109)">
<path id="Vector" d="M118.52 18.4141H115.278V24.2119H121V18.4141H118.52Z" fill="white"/>
<path id="Vector_2" d="M11.3375 9.79052C10.1511 9.43492 9.18599 9.25712 8.13312 8.94404C6.72548 8.55752 6.06934 7.87725 6.06934 6.72155C6.06934 5.56586 6.9887 4.71938 8.39634 4.71938C10.1969 4.71938 11.0323 5.78617 11.0667 7.61055H16.476C16.434 2.62444 13.489 0.0888672 8.52604 0.0888672C3.81483 0.0888672 0.488366 3.02642 0.488366 7.03077C0.488366 10.637 2.11345 12.8634 5.36361 14.0654C6.53161 14.4812 7.71949 14.8373 8.92277 15.1322C10.5479 15.5767 11.2498 16.199 11.2498 17.5789C11.2498 18.9588 10.0214 19.7125 8.48408 19.7125C6.19523 19.7125 5.62683 18.1973 5.62683 16.5082H7.81491e-05C-0.125809 20.6517 1.90745 24.5208 8.39252 24.5208C13.0046 24.5208 16.9566 21.9852 16.9566 17.1344C16.9604 12.817 15.1141 10.9501 11.3375 9.79052Z" fill="white"/>
<path id="Vector_3" d="M30.2891 19.2255C26.9055 19.2255 23.9643 16.601 23.9643 12.33C23.9643 8.36816 26.379 5.37263 30.2434 5.37263C31.1407 5.35962 32.0316 5.52716 32.8645 5.86553C33.6974 6.20391 34.4558 6.7064 35.0957 7.34388L38.4756 3.20425C37.0527 1.73548 34.4587 0 30.2014 0C23.1708 0 18.0781 5.43061 18.0781 12.3686C18.0781 19.3067 22.8199 24.6097 30.2434 24.6097C34.2832 24.6097 37.0527 22.7854 38.4565 21.2741L35.2063 17.2697C33.8656 18.5206 32.1117 19.2183 30.2891 19.2255Z" fill="white"/>
<path id="Vector_4" d="M50.3549 0C43.2976 0 38.1172 5.29533 38.1172 12.3686C38.1172 19.442 43.0344 24.6097 50.3549 24.6097C57.6029 24.6097 62.6536 19.2719 62.6536 12.2836C62.6536 5.29533 57.7937 0 50.3549 0ZM50.4007 19.2255C46.6203 19.2255 43.9843 16.3343 43.9843 12.33C43.9843 8.32564 46.4906 5.37263 50.3549 5.37263C54.1315 5.37263 56.7675 8.35656 56.7675 12.33C56.7675 16.3034 54.2803 19.2255 50.4159 19.2255H50.4007Z" fill="white"/>
<path id="Vector_5" d="M77.6607 0C73.926 0 71.6448 1.46878 70.4584 2.67085V0.38652H64.8774V32H70.7636V22.2983C72.6427 23.8271 74.9877 24.6469 77.3974 24.6175C84.8629 24.6175 89.433 19.1443 89.433 12.2488C89.433 5.07501 84.7752 0 77.6607 0ZM77.0884 19.326C73.1821 19.326 70.6034 16.3885 70.6034 12.3416C70.6034 8.29472 73.0486 5.29533 77.0579 5.29533C80.968 5.29533 83.543 8.27926 83.543 12.33C83.543 16.3807 81.0863 19.326 77.0884 19.326Z" fill="white"/>
<path id="Vector_6" d="M102.189 0C95.3685 0 90.6382 5.25281 90.6382 12.3686C90.6382 19.9328 95.5554 24.6059 102.674 24.6059C108.396 24.6059 111.543 21.4016 112.951 18.4215L108.602 15.7507C107.373 17.7142 105.668 19.326 102.674 19.326C99.332 19.326 97.1385 17.4127 96.8295 14.2549H113.614C113.702 13.2306 113.702 12.3841 113.702 11.8043C113.698 4.67303 109.262 0 102.189 0ZM96.963 9.74804C97.2682 7.0424 99.1565 5.02863 102.143 5.02863C105.352 5.02863 107.328 7.07718 107.591 9.74804H96.963Z" fill="white"/>
</g>
<defs>
<clipPath id="clip0_2163_31109">
<rect width="121" height="32" fill="white"/>
</clipPath>
</defs>
</svg>
