<svg width="91" height="24" viewBox="0 0 91 24" fill="none" xmlns="http://www.w3.org/2000/svg">
<g id="scope" clip-path="url(#clip0_1223_5835)">
<path id="Vector" d="M89.1351 13.8104H86.6965V18.1587H90.9999V13.8104H89.1351Z" fill="white"/>
<path id="Vector_2" d="M8.52644 7.34292C7.6342 7.07622 6.90836 6.94287 6.11653 6.70806C5.05789 6.41817 4.56444 5.90797 4.56444 5.04119C4.56444 4.17442 5.25585 3.53956 6.31449 3.53956C7.66863 3.53956 8.29693 4.33966 8.32275 5.70794H12.3909C12.3594 1.96836 10.1445 0.0666809 6.41203 0.0666809C2.86889 0.0666809 0.367172 2.26985 0.367172 5.27311C0.367172 7.97778 1.58934 9.64755 4.03368 10.5491C4.91209 10.861 5.80546 11.128 6.7104 11.3492C7.93257 11.6826 8.46046 12.1493 8.46046 13.1842C8.46046 14.2191 7.53666 14.7844 6.38048 14.7844C4.65911 14.7844 4.23164 13.648 4.23164 12.3812H-5.22002e-05C-0.0947273 15.4888 1.43442 18.3906 6.31162 18.3906C9.78017 18.3906 12.7524 16.489 12.7524 12.8508C12.7553 9.61276 11.3667 8.21259 8.52644 7.34292Z" fill="white"/>
<path id="Vector_3" d="M22.7794 14.4191C20.2347 14.4191 18.0227 12.4508 18.0227 9.24749C18.0227 6.27612 19.8388 4.02947 22.745 4.02947C23.4198 4.01972 24.0899 4.14537 24.7163 4.39915C25.3427 4.65293 25.9131 5.0298 26.3943 5.50791L28.9362 2.40319C27.8661 1.30161 25.9152 0 22.7134 0C17.426 0 13.5959 4.07296 13.5959 9.27648C13.5959 14.48 17.162 18.4573 22.745 18.4573C25.7832 18.4573 27.8661 17.089 28.9218 15.9556L26.4775 12.9523C25.4692 13.8905 24.1501 14.4137 22.7794 14.4191Z" fill="white"/>
<path id="Vector_4" d="M37.8701 0C32.5625 0 28.6665 3.97149 28.6665 9.27648C28.6665 14.5815 32.3646 18.4573 37.8701 18.4573C43.3211 18.4573 47.1195 14.4539 47.1195 9.21271C47.1195 3.97149 43.4645 0 37.8701 0ZM37.9045 14.4191C35.0614 14.4191 33.0789 12.2508 33.0789 9.24749C33.0789 6.24423 34.9638 4.02947 37.8701 4.02947C40.7103 4.02947 42.6928 6.26742 42.6928 9.24749C42.6928 12.2276 40.8222 14.4191 37.916 14.4191H37.9045Z" fill="white"/>
<path id="Vector_5" d="M58.4059 0C55.5972 0 53.8816 1.10158 52.9894 2.00314V0.28989H48.7921V24H53.2189V16.7238C54.6321 17.8704 56.3957 18.4852 58.208 18.4631C63.8225 18.4631 67.2595 14.3583 67.2595 9.18662C67.2595 3.80626 63.7565 0 58.4059 0ZM57.9756 14.4945C55.0378 14.4945 53.0984 12.2913 53.0984 9.25619C53.0984 6.22104 54.9374 3.97149 57.9526 3.97149C60.8933 3.97149 62.8299 6.20945 62.8299 9.24749C62.8299 12.2855 60.9823 14.4945 57.9756 14.4945Z" fill="white"/>
<path id="Vector_6" d="M76.8533 0C71.7236 0 68.1661 3.93961 68.1661 9.27648C68.1661 14.9496 71.8642 18.4544 77.2176 18.4544C81.5211 18.4544 83.8879 16.0512 84.9466 13.8162L81.676 11.813C80.7522 13.2857 79.4698 14.4945 77.2176 14.4945C74.7045 14.4945 73.0548 13.0595 72.8224 10.6911H85.4458C85.5118 9.92294 85.5118 9.28808 85.5118 8.85324C85.5089 3.50477 82.1723 0 76.8533 0ZM72.9228 7.31103C73.1524 5.2818 74.5725 3.77147 76.8189 3.77147C79.2317 3.77147 80.7178 5.30789 80.9157 7.31103H72.9228Z" fill="white"/>
</g>
<defs>
<clipPath id="clip0_1223_5835">
<rect width="91" height="24" fill="white"/>
</clipPath>
</defs>
</svg>
