<svg width="45" height="45" viewBox="0 0 45 45" fill="none" xmlns="http://www.w3.org/2000/svg">
<g id="showers">
<circle id="Ellipse 2054" cx="1.5" cy="1.5" r="1.5" fill="#FFE8DF"/>
<circle id="Ellipse 2055" cx="1.5" cy="19.5" r="1.5" fill="#FF7446"/>
<circle id="Ellipse 2056" cx="1.5" cy="7.5" r="1.5" fill="#FF7446"/>
<circle id="Ellipse 2057" cx="1.5" cy="25.5" r="1.5" fill="#FF7446"/>
<circle id="Ellipse 2058" cx="1.5" cy="37.5" r="1.5" fill="#FF7446"/>
<circle id="Ellipse 2059" cx="1.5" cy="13.5" r="1.5" fill="#FF7446"/>
<circle id="Ellipse 2060" cx="1.5" cy="31.5" r="1.5" fill="#FF7446"/>
<circle id="Ellipse 2061" cx="1.5" cy="43.5" r="1.5" fill="#FFE8DF"/>
<circle id="Ellipse 2062" cx="7.5" cy="1.5" r="1.5" fill="#FF7446"/>
<circle id="Ellipse 2063" cx="7.5" cy="19.5" r="1.5" fill="#FFE8DF"/>
<circle id="Ellipse 2064" cx="7.5" cy="7.5" r="1.5" fill="#FFE8DF"/>
<circle id="Ellipse 2065" cx="7.5" cy="25.5" r="1.5" fill="#FFE8DF"/>
<circle id="Ellipse 2066" cx="7.5" cy="37.5" r="1.5" fill="#FF7446"/>
<circle id="Ellipse 2067" cx="7.5" cy="13.5" r="1.5" fill="#FFE8DF"/>
<circle id="Ellipse 2068" cx="7.5" cy="31.5" r="1.5" fill="#FF7446"/>
<circle id="Ellipse 2069" cx="7.5" cy="43.5" r="1.5" fill="#FF7446"/>
<circle id="Ellipse 2070" cx="13.5" cy="1.5" r="1.5" fill="#FF7446"/>
<circle id="Ellipse 2071" cx="13.5" cy="19.5" r="1.5" fill="#FFE8DF"/>
<circle id="Ellipse 2072" cx="13.5" cy="7.5" r="1.5" fill="#FFE8DF"/>
<circle id="Ellipse 2073" cx="13.5" cy="25.5" r="1.5" fill="#FFE8DF"/>
<circle id="Ellipse 2074" cx="13.5" cy="37.5" r="1.5" fill="#FF7446"/>
<circle id="Ellipse 2075" cx="13.5" cy="13.5" r="1.5" fill="#FFE8DF"/>
<circle id="Ellipse 2076" cx="13.5" cy="31.5" r="1.5" fill="#FF7446"/>
<circle id="Ellipse 2077" cx="13.5" cy="43.5" r="1.5" fill="#FF7446"/>
<circle id="Ellipse 2078" cx="19.5" cy="1.5" r="1.5" fill="#FF7446"/>
<circle id="Ellipse 2079" cx="19.5" cy="19.5" r="1.5" fill="#FF7446"/>
<circle id="Ellipse 2080" cx="19.5" cy="7.5" r="1.5" fill="#FF7446"/>
<circle id="Ellipse 2081" cx="19.5" cy="25.5" r="1.5" fill="#FFE8DF"/>
<circle id="Ellipse 2082" cx="19.5" cy="37.5" r="1.5" fill="#FF7446"/>
<circle id="Ellipse 2083" cx="19.5" cy="13.5" r="1.5" fill="#FFE8DF"/>
<circle id="Ellipse 2084" cx="19.5" cy="31.5" r="1.5" fill="#FF7446"/>
<circle id="Ellipse 2085" cx="19.5" cy="43.5" r="1.5" fill="#FF7446"/>
<circle id="Ellipse 2086" cx="25.5" cy="1.5" r="1.5" fill="#FF7446"/>
<circle id="Ellipse 2087" cx="25.5" cy="19.5" r="1.5" fill="#FF7446"/>
<circle id="Ellipse 2088" cx="25.5" cy="7.5" r="1.5" fill="#FF7446"/>
<circle id="Ellipse 2089" cx="25.5" cy="25.5" r="1.5" fill="#FFE8DF"/>
<circle id="Ellipse 2090" cx="25.5" cy="37.5" r="1.5" fill="#FF7446"/>
<circle id="Ellipse 2091" cx="25.5" cy="13.5" r="1.5" fill="#FF7446"/>
<circle id="Ellipse 2092" cx="25.5" cy="31.5" r="1.5" fill="#FF7446"/>
<circle id="Ellipse 2093" cx="25.5" cy="43.5" r="1.5" fill="#FF7446"/>
<circle id="Ellipse 2094" cx="31.5" cy="1.5" r="1.5" fill="#FFE8DF"/>
<circle id="Ellipse 2095" cx="31.5" cy="19.5" r="1.5" fill="#FF7446"/>
<circle id="Ellipse 2096" cx="31.5" cy="7.5" r="1.5" fill="#FF7446"/>
<circle id="Ellipse 2097" cx="31.5" cy="25.5" r="1.5" fill="#FFE8DF"/>
<circle id="Ellipse 2098" cx="31.5" cy="37.5" r="1.5" fill="#FF7446"/>
<circle id="Ellipse 2099" cx="31.5" cy="13.5" r="1.5" fill="#FFE8DF"/>
<circle id="Ellipse 2100" cx="31.5" cy="31.5" r="1.5" fill="#FF7446"/>
<circle id="Ellipse 2101" cx="31.5" cy="43.5" r="1.5" fill="#FF7446"/>
<circle id="Ellipse 2102" cx="37.5" cy="1.5" r="1.5" fill="#FFE8DF"/>
<circle id="Ellipse 2103" cx="37.5" cy="19.5" r="1.5" fill="#FFE8DF"/>
<circle id="Ellipse 2104" cx="37.5" cy="7.5" r="1.5" fill="#FFE8DF"/>
<circle id="Ellipse 2105" cx="37.5" cy="25.5" r="1.5" fill="#FFE8DF"/>
<circle id="Ellipse 2106" cx="37.5" cy="37.5" r="1.5" fill="#FF7446"/>
<circle id="Ellipse 2107" cx="37.5" cy="13.5" r="1.5" fill="#FFE8DF"/>
<circle id="Ellipse 2108" cx="37.5" cy="31.5" r="1.5" fill="#FF7446"/>
<circle id="Ellipse 2109" cx="37.5" cy="43.5" r="1.5" fill="#FFE8DF"/>
<circle id="Ellipse 2110" cx="43.5" cy="1.5" r="1.5" fill="#FFE8DF"/>
<circle id="Ellipse 2111" cx="43.5" cy="19.5" r="1.5" fill="#FFE8DF"/>
<circle id="Ellipse 2112" cx="43.5" cy="7.5" r="1.5" fill="#FFE8DF"/>
<circle id="Ellipse 2113" cx="43.5" cy="25.5" r="1.5" fill="#FFE8DF"/>
<circle id="Ellipse 2114" cx="43.5" cy="37.5" r="1.5" fill="#FFE8DF"/>
<circle id="Ellipse 2115" cx="43.5" cy="13.5" r="1.5" fill="#FFE8DF"/>
<circle id="Ellipse 2116" cx="43.5" cy="31.5" r="1.5" fill="#FFE8DF"/>
<circle id="Ellipse 2117" cx="43.5" cy="43.5" r="1.5" fill="#FFE8DF"/>
</g>
</svg>
