<svg width="45" height="45" viewBox="0 0 45 45" fill="none" xmlns="http://www.w3.org/2000/svg">
<g id="ultra-fast-interntet-wifi">
<circle id="Ellipse 1539" cx="1.5" cy="1.5" r="1.5" fill="#FFE8DF"/>
<circle id="Ellipse 1540" cx="1.5" cy="19.5" r="1.5" fill="#FFE8DF"/>
<circle id="Ellipse 1541" cx="1.5" cy="7.5" r="1.5" fill="#FFE8DF"/>
<circle id="Ellipse 1542" cx="1.5" cy="25.5" r="1.5" fill="#FFE8DF"/>
<circle id="Ellipse 1543" cx="1.5" cy="37.5" r="1.5" fill="#FFE8DF"/>
<circle id="Ellipse 1544" cx="1.5" cy="13.5" r="1.5" fill="#FFE8DF"/>
<circle id="Ellipse 1545" cx="1.5" cy="31.5" r="1.5" fill="#FF7446"/>
<circle id="Ellipse 1546" cx="1.5" cy="43.5" r="1.5" fill="#FFE8DF"/>
<circle id="Ellipse 1547" cx="7.5" cy="1.5" r="1.5" fill="#FFE8DF"/>
<circle id="Ellipse 1548" cx="7.5" cy="19.5" r="1.5" fill="#FFE8DF"/>
<circle id="Ellipse 1549" cx="7.5" cy="7.5" r="1.5" fill="#FFE8DF"/>
<circle id="Ellipse 1550" cx="7.5" cy="25.5" r="1.5" fill="#FFE8DF"/>
<circle id="Ellipse 1551" cx="7.5" cy="37.5" r="1.5" fill="#FF7446"/>
<circle id="Ellipse 1552" cx="7.5" cy="13.5" r="1.5" fill="#FFE8DF"/>
<circle id="Ellipse 1553" cx="7.5" cy="31.5" r="1.5" fill="#FF7446"/>
<circle id="Ellipse 1554" cx="7.5" cy="43.5" r="1.5" fill="#FFE8DF"/>
<circle id="Ellipse 1555" cx="13.5" cy="1.5" r="1.5" fill="#FFE8DF"/>
<circle id="Ellipse 1556" cx="13.5" cy="19.5" r="1.5" fill="#FF7446"/>
<circle id="Ellipse 1557" cx="13.5" cy="7.5" r="1.5" fill="#FFE8DF"/>
<circle id="Ellipse 1558" cx="13.5" cy="25.5" r="1.5" fill="#FFE8DF"/>
<circle id="Ellipse 1559" cx="13.5" cy="37.5" r="1.5" fill="#FF7446"/>
<circle id="Ellipse 1560" cx="13.5" cy="13.5" r="1.5" fill="#FFE8DF"/>
<circle id="Ellipse 1561" cx="13.5" cy="31.5" r="1.5" fill="#FF7446"/>
<circle id="Ellipse 1562" cx="13.5" cy="43.5" r="1.5" fill="#FF7446"/>
<circle id="Ellipse 1563" cx="19.5" cy="1.5" r="1.5" fill="#FFE8DF"/>
<circle id="Ellipse 1564" cx="19.5" cy="19.5" r="1.5" fill="#FF7446"/>
<circle id="Ellipse 1565" cx="19.5" cy="7.5" r="1.5" fill="#FFE8DF"/>
<circle id="Ellipse 1566" cx="19.5" cy="25.5" r="1.5" fill="#FF7446"/>
<circle id="Ellipse 1567" cx="19.5" cy="37.5" r="1.5" fill="#FFE8DF"/>
<circle id="Ellipse 1568" cx="19.5" cy="13.5" r="1.5" fill="#FF7446"/>
<circle id="Ellipse 1569" cx="19.5" cy="31.5" r="1.5" fill="#FFE8DF"/>
<circle id="Ellipse 1570" cx="19.5" cy="43.5" r="1.5" fill="#FFE8DF"/>
<circle id="Ellipse 1571" cx="25.5" cy="1.5" r="1.5" fill="#FFE8DF"/>
<circle id="Ellipse 1572" cx="25.5" cy="19.5" r="1.5" fill="#FF7446"/>
<circle id="Ellipse 1573" cx="25.5" cy="7.5" r="1.5" fill="#FF7446"/>
<circle id="Ellipse 1574" cx="25.5" cy="25.5" r="1.5" fill="#FF7446"/>
<circle id="Ellipse 1575" cx="25.5" cy="37.5" r="1.5" fill="#FFE8DF"/>
<circle id="Ellipse 1576" cx="25.5" cy="13.5" r="1.5" fill="#FF7446"/>
<circle id="Ellipse 1577" cx="25.5" cy="31.5" r="1.5" fill="#FF7446"/>
<circle id="Ellipse 1578" cx="25.5" cy="43.5" r="1.5" fill="#FFE8DF"/>
<circle id="Ellipse 1579" cx="31.5" cy="1.5" r="1.5" fill="#FF7446"/>
<circle id="Ellipse 1580" cx="31.5" cy="19.5" r="1.5" fill="#FF7446"/>
<circle id="Ellipse 1581" cx="31.5" cy="7.5" r="1.5" fill="#FFE8DF"/>
<circle id="Ellipse 1582" cx="31.5" cy="25.5" r="1.5" fill="#FF7446"/>
<circle id="Ellipse 1583" cx="31.5" cy="37.5" r="1.5" fill="#FFE8DF"/>
<circle id="Ellipse 1584" cx="31.5" cy="13.5" r="1.5" fill="#FFE8DF"/>
<circle id="Ellipse 1585" cx="31.5" cy="31.5" r="1.5" fill="#FFE8DF"/>
<circle id="Ellipse 1586" cx="31.5" cy="43.5" r="1.5" fill="#FFE8DF"/>
<circle id="Ellipse 1587" cx="37.5" cy="1.5" r="1.5" fill="#FF7446"/>
<circle id="Ellipse 1588" cx="37.5" cy="19.5" r="1.5" fill="#FF7446"/>
<circle id="Ellipse 1589" cx="37.5" cy="7.5" r="1.5" fill="#FFE8DF"/>
<circle id="Ellipse 1590" cx="37.5" cy="25.5" r="1.5" fill="#FFE8DF"/>
<circle id="Ellipse 1591" cx="37.5" cy="37.5" r="1.5" fill="#FFE8DF"/>
<circle id="Ellipse 1592" cx="37.5" cy="13.5" r="1.5" fill="#FFE8DF"/>
<circle id="Ellipse 1593" cx="37.5" cy="31.5" r="1.5" fill="#FFE8DF"/>
<circle id="Ellipse 1594" cx="37.5" cy="43.5" r="1.5" fill="#FFE8DF"/>
<circle id="Ellipse 1595" cx="43.5" cy="1.5" r="1.5" fill="#FF7446"/>
<circle id="Ellipse 1596" cx="43.5" cy="19.5" r="1.5" fill="#FFE8DF"/>
<circle id="Ellipse 1597" cx="43.5" cy="7.5" r="1.5" fill="#FF7446"/>
<circle id="Ellipse 1598" cx="43.5" cy="25.5" r="1.5" fill="#FFE8DF"/>
<circle id="Ellipse 1599" cx="43.5" cy="37.5" r="1.5" fill="#FFE8DF"/>
<circle id="Ellipse 1600" cx="43.5" cy="13.5" r="1.5" fill="#FF7446"/>
<circle id="Ellipse 1601" cx="43.5" cy="31.5" r="1.5" fill="#FFE8DF"/>
<circle id="Ellipse 1602" cx="43.5" cy="43.5" r="1.5" fill="#FFE8DF"/>
</g>
</svg>
