<svg width="45" height="45" viewBox="0 0 45 45" fill="none" xmlns="http://www.w3.org/2000/svg">
<g id="weekly-happy-hours">
<circle id="Ellipse 1411" cx="1.5" cy="1.5" r="1.5" fill="#FFE8DF"/>
<circle id="Ellipse 1412" cx="1.5" cy="19.5" r="1.5" fill="#FFE8DF"/>
<circle id="Ellipse 1413" cx="1.5" cy="7.5" r="1.5" fill="#FFE8DF"/>
<circle id="Ellipse 1414" cx="1.5" cy="25.5" r="1.5" fill="#FFE8DF"/>
<circle id="Ellipse 1415" cx="1.5" cy="37.5" r="1.5" fill="#FFE8DF"/>
<circle id="Ellipse 1416" cx="1.5" cy="13.5" r="1.5" fill="#FFE8DF"/>
<circle id="Ellipse 1417" cx="1.5" cy="31.5" r="1.5" fill="#FFE8DF"/>
<circle id="Ellipse 1418" cx="1.5" cy="43.5" r="1.5" fill="#FFE8DF"/>
<circle id="Ellipse 1419" cx="7.5" cy="1.5" r="1.5" fill="#FF7446"/>
<circle id="Ellipse 1420" cx="7.5" cy="19.5" r="1.5" fill="#FF7446"/>
<circle id="Ellipse 1421" cx="7.5" cy="7.5" r="1.5" fill="#FF7446"/>
<circle id="Ellipse 1422" cx="7.5" cy="25.5" r="1.5" fill="#FFE8DF"/>
<circle id="Ellipse 1423" cx="7.5" cy="37.5" r="1.5" fill="#FFE8DF"/>
<circle id="Ellipse 1424" cx="7.5" cy="13.5" r="1.5" fill="#FF7446"/>
<circle id="Ellipse 1425" cx="7.5" cy="31.5" r="1.5" fill="#FFE8DF"/>
<circle id="Ellipse 1426" cx="7.5" cy="43.5" r="1.5" fill="#FFE8DF"/>
<circle id="Ellipse 1427" cx="13.5" cy="1.5" r="1.5" fill="#FF7446"/>
<circle id="Ellipse 1428" cx="13.5" cy="19.5" r="1.5" fill="#FF7446"/>
<circle id="Ellipse 1429" cx="13.5" cy="7.5" r="1.5" fill="#FFE8DF"/>
<circle id="Ellipse 1430" cx="13.5" cy="25.5" r="1.5" fill="#FF7446"/>
<circle id="Ellipse 1431" cx="13.5" cy="37.5" r="1.5" fill="#FFE8DF"/>
<circle id="Ellipse 1432" cx="13.5" cy="13.5" r="1.5" fill="#FF7446"/>
<circle id="Ellipse 1433" cx="13.5" cy="31.5" r="1.5" fill="#FFE8DF"/>
<circle id="Ellipse 1434" cx="13.5" cy="43.5" r="1.5" fill="#FF7446"/>
<circle id="Ellipse 1435" cx="19.5" cy="1.5" r="1.5" fill="#FF7446"/>
<circle id="Ellipse 1436" cx="19.5" cy="19.5" r="1.5" fill="#FF7446"/>
<circle id="Ellipse 1437" cx="19.5" cy="7.5" r="1.5" fill="#FFE8DF"/>
<circle id="Ellipse 1438" cx="19.5" cy="25.5" r="1.5" fill="#FF7446"/>
<circle id="Ellipse 1439" cx="19.5" cy="37.5" r="1.5" fill="#FF7446"/>
<circle id="Ellipse 1440" cx="19.5" cy="13.5" r="1.5" fill="#FF7446"/>
<circle id="Ellipse 1441" cx="19.5" cy="31.5" r="1.5" fill="#FF7446"/>
<circle id="Ellipse 1442" cx="19.5" cy="43.5" r="1.5" fill="#FF7446"/>
<circle id="Ellipse 1443" cx="25.5" cy="1.5" r="1.5" fill="#FF7446"/>
<circle id="Ellipse 1444" cx="25.5" cy="19.5" r="1.5" fill="#FF7446"/>
<circle id="Ellipse 1445" cx="25.5" cy="7.5" r="1.5" fill="#FFE8DF"/>
<circle id="Ellipse 1446" cx="25.5" cy="25.5" r="1.5" fill="#FF7446"/>
<circle id="Ellipse 1447" cx="25.5" cy="37.5" r="1.5" fill="#FF7446"/>
<circle id="Ellipse 1448" cx="25.5" cy="13.5" r="1.5" fill="#FF7446"/>
<circle id="Ellipse 1449" cx="25.5" cy="31.5" r="1.5" fill="#FF7446"/>
<circle id="Ellipse 1450" cx="25.5" cy="43.5" r="1.5" fill="#FF7446"/>
<circle id="Ellipse 1451" cx="31.5" cy="1.5" r="1.5" fill="#FF7446"/>
<circle id="Ellipse 1452" cx="31.5" cy="19.5" r="1.5" fill="#FF7446"/>
<circle id="Ellipse 1453" cx="31.5" cy="7.5" r="1.5" fill="#FFE8DF"/>
<circle id="Ellipse 1454" cx="31.5" cy="25.5" r="1.5" fill="#FF7446"/>
<circle id="Ellipse 1455" cx="31.5" cy="37.5" r="1.5" fill="#FFE8DF"/>
<circle id="Ellipse 1456" cx="31.5" cy="13.5" r="1.5" fill="#FF7446"/>
<circle id="Ellipse 1457" cx="31.5" cy="31.5" r="1.5" fill="#FFE8DF"/>
<circle id="Ellipse 1458" cx="31.5" cy="43.5" r="1.5" fill="#FF7446"/>
<circle id="Ellipse 1459" cx="37.5" cy="1.5" r="1.5" fill="#FF7446"/>
<circle id="Ellipse 1460" cx="37.5" cy="19.5" r="1.5" fill="#FF7446"/>
<circle id="Ellipse 1461" cx="37.5" cy="7.5" r="1.5" fill="#FF7446"/>
<circle id="Ellipse 1462" cx="37.5" cy="25.5" r="1.5" fill="#FFE8DF"/>
<circle id="Ellipse 1463" cx="37.5" cy="37.5" r="1.5" fill="#FFE8DF"/>
<circle id="Ellipse 1464" cx="37.5" cy="13.5" r="1.5" fill="#FF7446"/>
<circle id="Ellipse 1465" cx="37.5" cy="31.5" r="1.5" fill="#FFE8DF"/>
<circle id="Ellipse 1466" cx="37.5" cy="43.5" r="1.5" fill="#FFE8DF"/>
<circle id="Ellipse 1467" cx="43.5" cy="1.5" r="1.5" fill="#FFE8DF"/>
<circle id="Ellipse 1468" cx="43.5" cy="19.5" r="1.5" fill="#FFE8DF"/>
<circle id="Ellipse 1469" cx="43.5" cy="7.5" r="1.5" fill="#FFE8DF"/>
<circle id="Ellipse 1470" cx="43.5" cy="25.5" r="1.5" fill="#FFE8DF"/>
<circle id="Ellipse 1471" cx="43.5" cy="37.5" r="1.5" fill="#FFE8DF"/>
<circle id="Ellipse 1472" cx="43.5" cy="13.5" r="1.5" fill="#FFE8DF"/>
<circle id="Ellipse 1473" cx="43.5" cy="31.5" r="1.5" fill="#FFE8DF"/>
<circle id="Ellipse 1474" cx="43.5" cy="43.5" r="1.5" fill="#FFE8DF"/>
</g>
</svg>
